{
.appVersion = "3331";
.storedFileType = com.schriftgestaltung.glyphs;
.formatVersion = 3;
.storedFormatVersion = 1;
DisplayStrings = (
"/uniA818uniA816/uniA816",
"/uniA818/uniA818uniA818",
"/uniA807uniA807/space/uniA807uniA814/space/uniA80CuniA80C/space/uniA80CuniA80D/space/uniA80EuniA80E/space/uniA814uniA814/space/uniA818uniA814/space/uniA818uniA818/space/uniA81BuniA81B/space 
/uniA81DuniA81B/space/uniA81DuniA81D/space/uniA81EuniA81F/space/uniA821uniA807/space/uniA821uniA80C/space/uniA821uniA80D/space/uniA821uniA814/space/uniA821uniA81B 
"
);
axes = (
{
name = Weight;
tag = wght;
},
{
name = Width;
tag = wdth;
}
);
customParameters = (
{
name = hheaAscender;
value = 1069;
},
{
name = hheaDescender;
value = -293;
},
{
name = hheaLineGap;
value = 0;
},
{
name = panose;
value = (
2,
11,
5,
2,
4,
5,
4,
2,
2,
4
);
},
{
name = fsType;
value = (
);
},
{
name = typoAscender;
value = 1069;
},
{
name = typoDescender;
value = -293;
},
{
name = typoLineGap;
value = 0;
},
{
name = unicodeRanges;
value = (
0,
1,
15,
16,
31,
45,
100
);
},
{
name = openTypeNameVersion;
value = "Version 2.004";
},
{
name = codePageRanges;
value = (
1252
);
},
{
name = winAscent;
value = 1069;
},
{
name = winDescent;
value = 293;
},
{
name = "Use Typo Metrics";
value = 1;
},
{
name = "Has WWS Names";
value = 1;
},
{
name = openTypeOS2SelectionUnsupportedBits;
value = (
);
},
{
name = glyphOrder;
value = (
.notdef,
NULL,
CR,
space,
uni00A0,
uni0964,
uni0965,
uni09E6,
uni09E7,
uni09E8,
uni09E9,
uni09EA,
uni09EB,
uni09EC,
uni09ED,
uni09EE,
uni09EF,
uniA800,
uniA801,
uniA802,
uniA803,
uniA804,
uniA805,
uniA806,
uniA807,
uniA808,
uniA809,
uniA80A,
uniA80B,
uniA80C,
uniA80D,
uniA80E,
uniA80F,
uniA810,
uniA811,
uniA812,
uniA813,
uniA814,
uniA815,
uniA816,
uniA817,
uniA818,
uniA819,
uniA81A,
uniA81B,
uniA81C,
uniA81D,
uniA81E,
uniA81F,
uniA820,
uniA821,
uniA822,
uniA823,
uniA824,
uniA825,
uniA826,
uniA827,
uniA828,
uniA829,
uniA82A,
uniA82B,
uniA82C,
uniA807uniA807,
uniA807uniA814,
uniA80CuniA80C,

glyphs = (
{
glyphname = .notdef;
layers = (
{
background = {
shapes = (
{
closed = 1;
nodes = (
(505,0,l),
(505,714,l),
(94,714,l),
(94,0,l)
);
},
{
closed = 1;
nodes = (
(145,663,l),
(454,663,l),
(454,51,l),
(145,51,l)
);
}
);
};
layerId = UUID0;
shapes = (
{
closed = 1;
nodes = (
(505,0,l),
(505,714,l),
(94,714,l),
(94,0,l)
);
},
{
closed = 1;
nodes = (
(145,663,l),
(454,663,l),
(454,51,l),
(145,51,l)
);
}
);
vertWidth = 0;
width = 600;
}
);
},
{
glyphname = uni0964;
layers = (
{
background = {
shapes = (
{
closed = 1;
nodes = (
(275,622,l),
(194,622,l),
(194,0,l),
(275,0,l)
);
}
);
};
layerId = UUID0;
shapes = (
{
closed = 1;
nodes = (
(275,622,l),
(194,622,l),
(194,0,l),
(275,0,l)
);
}
);
vertWidth = 0;
width = 379;
}
);
note = uni0964;
unicode = 2404;
},
{
glyphname = uni0965;
layers = (
{
background = {
shapes = (
{
closed = 1;
nodes = (
(495,622,l),
(414,622,l),
(414,0,l),
(495,0,l)
);
},
{
closed = 1;
nodes = (
(275,622,l),
(194,622,l),
(194,0,l),
(275,0,l)
);
}
);
};
layerId = UUID0;
shapes = (
{
closed = 1;
nodes = (
(495,622,l),
(414,622,l),
(414,0,l),
(495,0,l)
);
},
{
closed = 1;
nodes = (
(275,622,l),
(194,622,l),
(194,0,l),
(275,0,l)
);
}
);
vertWidth = 0;
width = 599;
}
);
note = uni0965;
unicode = 2405;
},
{
glyphname = uni09E6;
layers = (
{
background = {
shapes = (
{
closed = 1;
nodes = (
(72,172,o),
(153,91,o),
(290,91,cs),
(433,91,o),
(520,181,o),
(520,314,cs),
(520,459,o),
(442,544,o),
(300,544,cs),
(162,544,o),
(72,454,o),
(72,320,cs)
);
},
{
closed = 1;
nodes = (
(152,411,o),
(210,473,o),
(305,473,cs),
(391,473,o),
(439,418,o),
(439,324,cs),
(439,225,o),
(382,162,o),
(289,162,cs),
(201,162,o),
(152,217,o),
(152,311,cs)
);
}
);
};
layerId = UUID0;
shapes = (
{
closed = 1;
nodes = (
(72,172,o),
(153,91,o),
(290,91,cs),
(433,91,o),
(520,181,o),
(520,314,cs),
(520,459,o),
(442,544,o),
(300,544,cs),
(162,544,o),
(72,454,o),
(72,320,cs)
);
},
{
closed = 1;
nodes = (
(152,411,o),
(210,473,o),
(305,473,cs),
(391,473,o),
(439,418,o),
(439,324,cs),
(439,225,o),
(382,162,o),
(289,162,cs),
(201,162,o),
(152,217,o),
(152,311,cs)
);
}
);
vertWidth = 0;
width = 592;
}
);
note = uni09E6;
unicode = 2534;
},
{
glyphname = uni09E7;
layers = (
{
background = {
shapes = (
{
closed = 1;
nodes = (
(160,222,o),
(123,181,o),
(123,122,cs),
(123,48,o),
(183,0,o),
(287,0,cs),
(403,0,o),
(495,68,o),
(495,178,cs),
(495,262,o),
(465,299,o),
(436,328,cs),
(393,371,o),
(312,418,o),
(270,451,cs),
(246,470,o),
(206,492,o),
(206,534,cs),
(206,558,o),
(219,576,o),
(238,596,c),
(174,631,l),
(142,600,o),
(122,561,o),
(122,529,cs),
(122,490,o),
(138,461,o),
(184,421,cs),
(207,401,o),
(302,334,o),
(342,302,cs),
(387,266,o),
(415,238,o),
(415,181,cs),
(415,118,o),
(364,75,o),
(286,75,cs),
(235,75,o),
(205,92,o),
(205,120,cs),
(205,145,o),
(222,157,o),
(263,167,c),
(234,243,l)
);
}
);
};
layerId = UUID0;
shapes = (
{
closed = 1;
nodes = (
(160,222,o),
(123,181,o),
(123,122,cs),
(123,48,o),
(183,0,o),
(287,0,cs),
(403,0,o),
(495,68,o),
(495,178,cs),
(495,262,o),
(465,299,o),
(436,328,cs),
(393,371,o),
(312,418,o),
(270,451,cs),
(246,470,o),
(206,492,o),
(206,534,cs),
(206,558,o),
(219,576,o),
(238,596,c),
(174,631,l),
(142,600,o),
(122,561,o),
(122,529,cs),
(122,490,o),
(138,461,o),
(184,421,cs),
(207,401,o),
(302,334,o),
(342,302,cs),
(387,266,o),
(415,238,o),
(415,181,cs),
(415,118,o),
(364,75,o),
(286,75,cs),
(235,75,o),
(205,92,o),
(205,120,cs),
(205,145,o),
(222,157,o),
(263,167,c),
(234,243,l)
);
}
);
vertWidth = 0;
width = 592;
}
);
note = uni09E7;
unicode = 2535;
},
{
glyphname = uni09E8;
layers = (
{
background = {
shapes = (
{
closed = 1;
nodes = (
(432,188,o),
(500,252,o),
(500,333,cs),
(500,427,o),
(447,471,o),
(322,494,cs),
(289,500,o),
(265,506,o),
(250,511,cs),
(222,520,o),
(211,528,o),
(211,549,cs),
(211,565,o),
(219,581,o),
(233,596,c),
(170,631,l),
(142,597,o),
(127,566,o),
(127,539,cs),
(127,482,o),
(174,451,o),
(285,428,cs),
(368,411,o),
(419,398,o),
(419,333,cs),
(419,267,o),
(358,233,o),
(235,233,cs),
(180,233,o),
(136,239,o),
(80,256,c),
(65,185,l),
(285,136,o),
(380,80,o),
(507,-26,c),
(553,28,l),
(476,92,o),
(396,140,o),
(316,173,c)
);
}
);
};
layerId = UUID0;
shapes = (
{
closed = 1;
nodes = (
(432,188,o),
(500,252,o),
(500,333,cs),
(500,427,o),
(447,471,o),
(322,494,cs),
(289,500,o),
(265,506,o),
(250,511,cs),
(222,520,o),
(211,528,o),
(211,549,cs),
(211,565,o),
(219,581,o),
(233,596,c),
(170,631,l),
(142,597,o),
(127,566,o),
(127,539,cs),
(127,482,o),
(174,451,o),
(285,428,cs),
(368,411,o),
(419,398,o),
(419,333,cs),
(419,267,o),
(358,233,o),
(235,233,cs),
(180,233,o),
(136,239,o),
(80,256,c),
(65,185,l),
(285,136,o),
(380,80,o),
(507,-26,c),
(553,28,l),
(476,92,o),
(396,140,o),
(316,173,c)
);
}
);
vertWidth = 0;
width = 592;
}
);
note = uni09E8;
unicode = 2536;
},
{
glyphname = uni09E9;
layers = (
{
background = {
shapes = (
{
closed = 1;
nodes = (
(82,234,o),
(137,39,o),
(346,39,cs),
(480,39,o),
(553,132,o),
(553,295,cs),
(553,449,o),
(477,579,o),
(337,579,cs),
(262,579,o),
(207,538,o),
(207,467,cs),
(207,436,o),
(215,403,o),
(231,369,c),
(311,390,l),
(298,415,o),
(292,438,o),
(292,458,cs),
(292,490,o),
(312,509,o),
(347,509,cs),
(427,509,o),
(473,399,o),
(473,295,cs),
(473,176,o),
(428,114,o),
(341,114,cs),
(194,114,o),
(148,297,o),
(103,510,c),
(29,490,l)
);
}
);
};
layerId = UUID0;
shapes = (
{
closed = 1;
nodes = (
(82,234,o),
(137,39,o),
(346,39,cs),
(480,39,o),
(553,132,o),
(553,295,cs),
(553,449,o),
(477,579,o),
(337,579,cs),
(262,579,o),
(207,538,o),
(207,467,cs),
(207,436,o),
(215,403,o),
(231,369,c),
(311,390,l),
(298,415,o),
(292,438,o),
(292,458,cs),
(292,490,o),
(312,509,o),
(347,509,cs),
(427,509,o),
(473,399,o),
(473,295,cs),
(473,176,o),
(428,114,o),
(341,114,cs),
(194,114,o),
(148,297,o),
(103,510,c),
(29,490,l)
);
}
);
vertWidth = 0;
width = 592;
}
);
note = uni09E9;
unicode = 2537;
},
{
glyphname = uni09EA;
layers = (
{
background = {
shapes = (
{
closed = 1;
nodes = (
(481,367,o),
(519,411,o),
(519,476,cs),
(519,563,o),
(438,622,o),
(290,622,cs),
(177,622,o),
(74,568,o),
(74,471,cs),
(74,406,o),
(106,369,o),
(198,326,c),
(106,289,o),
(63,240,o),
(63,174,cs),
(63,67,o),
(150,0,o),
(296,0,cs),
(452,0,o),
(530,58,o),
(530,174,cs),
(530,246,o),
(492,292,o),
(393,331,c)
);
},
{
closed = 1;
nodes = (
(198,388,o),
(154,420,o),
(154,471,cs),
(154,519,o),
(213,551,o),
(291,551,cs),
(384,551,o),
(438,521,o),
(438,471,cs),
(438,426,o),
(381,385,o),
(297,363,c)
);
},
{
closed = 1;
nodes = (
(390,272,o),
(450,227,o),
(450,173,cs),
(450,106,o),
(396,71,o),
(296,71,cs),
(200,71,o),
(143,110,o),
(143,169,cs),
(143,226,o),
(190,264,o),
(296,292,c)
);
}
);
};
layerId = UUID0;
shapes = (
{
closed = 1;
nodes = (
(481,367,o),
(519,411,o),
(519,476,cs),
(519,563,o),
(438,622,o),
(290,622,cs),
(177,622,o),
(74,568,o),
(74,471,cs),
(74,406,o),
(106,369,o),
(198,326,c),
(106,289,o),
(63,240,o),
(63,174,cs),
(63,67,o),
(150,0,o),
(296,0,cs),
(452,0,o),
(530,58,o),
(530,174,cs),
(530,246,o),
(492,292,o),
(393,331,c)
);
},
{
closed = 1;
nodes = (
(198,388,o),
(154,420,o),
(154,471,cs),
(154,519,o),
(213,551,o),
(291,551,cs),
(384,551,o),
(438,521,o),
(438,471,cs),
(438,426,o),
(381,385,o),
(297,363,c)
);
},
{
closed = 1;
nodes = (
(390,272,o),
(450,227,o),
(450,173,cs),
(450,106,o),
(396,71,o),
(296,71,cs),
(200,71,o),
(143,110,o),
(143,169,cs),
(143,226,o),
(190,264,o),
(296,292,c)
);
}
);
vertWidth = 0;
width = 592;
}
);
note = uni09EA;
unicode = 2538;
},
{
glyphname = uni09EB;
layers = (
{
background = {
shapes = (
{
closed = 1;
nodes = (
(160,509,o),
(49,391,o),
(49,248,cs),
(49,95,o),
(153,0,o),
(313,0,cs),
(407,0,o),
(495,22,o),
(561,63,c),
(528,146,l),
(521,145,o),
(509,144,o),
(492,144,cs),
(426,144,o),
(392,172,o),
(392,221,cs),
(392,281,o),
(439,331,o),
(566,400,c),
(533,456,l),
(527,455,o),
(524,455,o),
(518,455,cs),
(467,455,o),
(434,481,o),
(434,519,cs),
(434,539,o),
(440,558,o),
(453,575,c),
(414,629,l)
);
},
{
closed = 1;
nodes = (
(367,521,o),
(367,516,o),
(367,507,cs),
(367,460,o),
(397,420,o),
(445,407,c),
(355,344,o),
(316,289,o),
(316,222,cs),
(316,147,o),
(365,101,o),
(455,89,c),
(398,74,o),
(369,71,o),
(320,71,cs),
(204,71,o),
(130,131,o),
(130,238,cs),
(130,345,o),
(210,443,o),
(368,525,c)
);
}
);
};
layerId = UUID0;
shapes = (
{
closed = 1;
nodes = (
(160,509,o),
(49,391,o),
(49,248,cs),
(49,95,o),
(153,0,o),
(313,0,cs),
(407,0,o),
(495,22,o),
(561,63,c),
(528,146,l),
(521,145,o),
(509,144,o),
(492,144,cs),
(426,144,o),
(392,172,o),
(392,221,cs),
(392,281,o),
(439,331,o),
(566,400,c),
(533,456,l),
(527,455,o),
(524,455,o),
(518,455,cs),
(467,455,o),
(434,481,o),
(434,519,cs),
(434,539,o),
(440,558,o),
(453,575,c),
(414,629,l)
);
},
{
closed = 1;
nodes = (
(367,521,o),
(367,516,o),
(367,507,cs),
(367,460,o),
(397,420,o),
(445,407,c),
(355,344,o),
(316,289,o),
(316,222,cs),
(316,147,o),
(365,101,o),
(455,89,c),
(398,74,o),
(369,71,o),
(320,71,cs),
(204,71,o),
(130,131,o),
(130,238,cs),
(130,345,o),
(210,443,o),
(368,525,c)
);
}
);
vertWidth = 0;
width = 592;
}
);
note = uni09EB;
unicode = 2539;
},
{
glyphname = uni09EC;
layers = (
{
background = {
shapes = (
{
closed = 1;
nodes = (
(77,220,o),
(157,39,o),
(347,39,cs),
(482,39,o),
(559,125,o),
(559,268,cs),
(559,327,o),
(536,400,o),
(499,452,c),
(443,438,l),
(417,366,o),
(389,328,o),
(348,328,cs),
(323,328,o),
(312,346,o),
(312,380,cs),
(312,471,ls),
(312,566,o),
(267,591,o),
(175,593,c),
(166,517,l),
(222,514,o),
(235,505,o),
(235,451,cs),
(235,388,ls),
(235,299,o),
(275,257,o),
(340,257,cs),
(393,257,o),
(436,288,o),
(469,349,c),
(479,323,o),
(483,297,o),
(483,271,cs),
(483,171,o),
(432,114,o),
(342,114,cs),
(217,114,o),
(148,229,o),
(96,475,c),
(21,452,l)
);
}
);
};
layerId = UUID0;
shapes = (
{
closed = 1;
nodes = (
(77,220,o),
(157,39,o),
(347,39,cs),
(482,39,o),
(559,125,o),
(559,268,cs),
(559,327,o),
(536,400,o),
(499,452,c),
(443,438,l),
(417,366,o),
(389,328,o),
(348,328,cs),
(323,328,o),
(312,346,o),
(312,380,cs),
(312,471,ls),
(312,566,o),
(267,591,o),
(175,593,c),
(166,517,l),
(222,514,o),
(235,505,o),
(235,451,cs),
(235,388,ls),
(235,299,o),
(275,257,o),
(340,257,cs),
(393,257,o),
(436,288,o),
(469,349,c),
(479,323,o),
(483,297,o),
(483,271,cs),
(483,171,o),
(432,114,o),
(342,114,cs),
(217,114,o),
(148,229,o),
(96,475,c),
(21,452,l)
);
}
);
vertWidth = 0;
width = 592;
}
);
note = uni09EC;
unicode = 2540;
},
{
glyphname = uni09ED;
layers = (
{
background = {
shapes = (
{
closed = 1;
nodes = (
(383,28,o),
(427,2,o),
(520,0,c),
(528,77,l),
(472,80,o),
(459,90,o),
(459,141,cs),
(459,467,ls),
(459,576,o),
(396,622,o),
(296,622,cs),
(182,622,o),
(70,529,o),
(70,411,cs),
(70,306,o),
(141,248,o),
(268,248,cs),
(306,248,o),
(344,253,o),
(383,266,c),
(383,122,ls)
);
},
{
closed = 1;
nodes = (
(348,330,o),
(309,322,o),
(266,322,cs),
(191,322,o),
(151,351,o),
(151,406,cs),
(151,484,o),
(223,551,o),
(296,551,cs),
(352,551,o),
(382,533,o),
(382,455,cs),
(382,346,l)
);
}
);
};
layerId = UUID0;
shapes = (
{
closed = 1;
nodes = (
(383,28,o),
(427,2,o),
(520,0,c),
(528,77,l),
(472,80,o),
(459,90,o),
(459,141,cs),
(459,467,ls),
(459,576,o),
(396,622,o),
(296,622,cs),
(182,622,o),
(70,529,o),
(70,411,cs),
(70,306,o),
(141,248,o),
(268,248,cs),
(306,248,o),
(344,253,o),
(383,266,c),
(383,122,ls)
);
},
{
closed = 1;
nodes = (
(348,330,o),
(309,322,o),
(266,322,cs),
(191,322,o),
(151,351,o),
(151,406,cs),
(151,484,o),
(223,551,o),
(296,551,cs),
(352,551,o),
(382,533,o),
(382,455,cs),
(382,346,l)
);
}
);
vertWidth = 0;
width = 592;
}
);
note = uni09ED;
unicode = 2541;
},
{
glyphname = uni09EE;
layers = (
{
background = {
shapes = (
{
closed = 1;
nodes = (
(167,595,o),
(124,621,o),
(31,624,c),
(22,547,l),
(78,544,o),
(91,535,o),
(91,481,cs),
(91,154,ls),
(91,54,o),
(144,0,o),
(237,0,cs),
(357,0,o),
(448,86,o),
(448,213,cs),
(448,244,o),
(442,270,o),
(430,293,c),
(434,292,o),
(438,292,o),
(442,292,cs),
(514,292,o),
(562,322,o),
(586,383,c),
(514,418,l),
(494,380,o),
(470,360,o),
(408,360,cs),
(349,360,o),
(330,375,o),
(269,375,cs),
(242,375,o),
(201,368,o),
(167,355,c),
(167,501,ls)
);
},
{
closed = 1;
nodes = (
(200,296,o),
(236,304,o),
(274,304,cs),
(333,304,o),
(368,272,o),
(368,212,cs),
(368,134,o),
(316,71,o),
(238,71,cs),
(193,71,o),
(167,88,o),
(167,168,cs),
(167,281,l)
);
}
);
};
layerId = UUID0;
shapes = (
{
closed = 1;
nodes = (
(167,595,o),
(124,621,o),
(31,624,c),
(22,547,l),
(78,544,o),
(91,535,o),
(91,481,cs),
(91,154,ls),
(91,54,o),
(144,0,o),
(237,0,cs),
(357,0,o),
(448,86,o),
(448,213,cs),
(448,244,o),
(442,270,o),
(430,293,c),
(434,292,o),
(438,292,o),
(442,292,cs),
(514,292,o),
(562,322,o),
(586,383,c),
(514,418,l),
(494,380,o),
(470,360,o),
(408,360,cs),
(349,360,o),
(330,375,o),
(269,375,cs),
(242,375,o),
(201,368,o),
(167,355,c),
(167,501,ls)
);
},
{
closed = 1;
nodes = (
(200,296,o),
(236,304,o),
(274,304,cs),
(333,304,o),
(368,272,o),
(368,212,cs),
(368,134,o),
(316,71,o),
(238,71,cs),
(193,71,o),
(167,88,o),
(167,168,cs),
(167,281,l)
);
}
);
vertWidth = 0;
width = 592;
}
);
note = uni09EE;
unicode = 2542;
},
{
glyphname = uni09EF;
layers = (
{
background = {
shapes = (
{
closed = 1;
nodes = (
(321,105,o),
(333,137,o),
(333,181,cs),
(333,259,o),
(266,315,o),
(174,315,cs),
(81,315,o),
(27,273,o),
(27,207,cs),
(27,185,o),
(33,161,o),
(44,135,c),
(120,152,l),
(112,166,o),
(108,181,o),
(108,196,cs),
(108,228,o),
(131,245,o),
(175,245,cs),
(227,245,o),
(257,216,o),
(257,169,cs),
(257,123,o),
(226,91,o),
(161,68,c),
(183,0,l),
(197,0,ls),
(429,0,o),
(558,75,o),
(558,216,cs),
(558,326,o),
(501,376,o),
(389,420,cs),
(342,439,o),
(238,464,o),
(200,479,cs),
(149,499,o),
(118,511,o),
(118,549,cs),
(118,562,o),
(127,577,o),
(146,596,c),
(83,631,l),
(51,602,o),
(35,570,o),
(35,536,cs),
(35,474,o),
(75,439,o),
(188,401,cs),
(240,384,o),
(359,352,o),
(395,331,cs),
(448,300,o),
(476,277,o),
(476,214,cs),
(476,138,o),
(412,89,o),
(290,73,c)
);
}
);
};
layerId = UUID0;
shapes = (
{
closed = 1;
nodes = (
(321,105,o),
(333,137,o),
(333,181,cs),
(333,259,o),
(266,315,o),
(174,315,cs),
(81,315,o),
(27,273,o),
(27,207,cs),
(27,185,o),
(33,161,o),
(44,135,c),
(120,152,l),
(112,166,o),
(108,181,o),
(108,196,cs),
(108,228,o),
(131,245,o),
(175,245,cs),
(227,245,o),
(257,216,o),
(257,169,cs),
(257,123,o),
(226,91,o),
(161,68,c),
(183,0,l),
(197,0,ls),
(429,0,o),
(558,75,o),
(558,216,cs),
(558,326,o),
(501,376,o),
(389,420,cs),
(342,439,o),
(238,464,o),
(200,479,cs),
(149,499,o),
(118,511,o),
(118,549,cs),
(118,562,o),
(127,577,o),
(146,596,c),
(83,631,l),
(51,602,o),
(35,570,o),
(35,536,cs),
(35,474,o),
(75,439,o),
(188,401,cs),
(240,384,o),
(359,352,o),
(395,331,cs),
(448,300,o),
(476,277,o),
(476,214,cs),
(476,138,o),
(412,89,o),
(290,73,c)
);
}
);
vertWidth = 0;
width = 592;
}
);
note = uni09EF;
unicode = 2543;
},
{
glyphname = uniA800;
layers = (
{
.lastUpdate = 762319290.884;
anchors = (
{
name = Anchor2;
pos = (703,725);
},
{
name = Anchor3;
pos = (380,725);
},
{
name = Anchor4;
pos = (708,0);
},
{
name = Anchor5;
pos = (743,0);
}
);
background = {
anchors = (
{
name = Anchor2;
pos = (703,725);
},
{
name = Anchor3;
pos = (380,725);
},
{
name = Anchor4;
pos = (708,0);
}
);
shapes = (
{
closed = 1;
nodes = (
(743,0,l),
(743,611,l),
(816,611,l),
(816,679,l),
(-17,679,l),
(-17,611,l),
(662,611,l),
(304,186,o),
(227,81,o),
(164,81,cs),
(137,81,o),
(124,97,o),
(108,139,c),
(37,106,l),
(65,27,o),
(106,4,o),
(157,4,cs),
(278,4,o),
(361,133,o),
(665,506,c),
(668,505,l),
(668,0,l)
);
}
);
};
layerId = UUID0;
shapes = (
{
closed = 1;
nodes = (
(743,0,l),
(743,611,l),
(816,611,l),
(816,679,l),
(-17,679,l),
(-17,611,l),
(662,611,l),
(304,186,o),
(227,81,o),
(164,81,cs),
(137,81,o),
(124,97,o),
(108,139,c),
(37,106,l),
(65,27,o),
(106,4,o),
(157,4,cs),
(278,4,o),
(361,133,o),
(665,506,c),
(668,505,l),
(668,0,l)
);
}
);
vertWidth = 0;
width = 808;
}
);
unicode = 43008;
},
{
color = 4;
glyphname = uniA801;
layers = (
{
anchors = (
{
name = Anchor2;
pos = (347,725);
},
{
name = Anchor3;
pos = (236,725);
},
{
name = Anchor4;
pos = (386,0);
}
);
annotations = (
{
pos = (210.642,917.46);
text = "top part needs improving. the curve below the top line is wrong";
type = Text;
}
);
associatedMasterId = UUID0;
background = {
anchors = (
{
name = Anchor2;
pos = (347,725);
},
{
name = Anchor3;
pos = (236,725);
},
{
name = Anchor4;
pos = (386,0);
}
);
shapes = (
{
closed = 1;
nodes = (
(456,28,l),
(372,153,o),
(267,189,o),
(188,217,c),
(189,221,l),
(325,221,o),
(443,290,o),
(443,410,cs),
(443,485,o),
(393,533,o),
(326,533,cs),
(291,533,o),
(254,528,o),
(200,483,c),
(200,611,l),
(526,611,l),
(526,679,l),
(-17,679,l),
(-17,611,l),
(122,611,l),
(122,397,l),
(178,374,l),
(222,451,o),
(283,467,o),
(305,467,cs),
(337,467,o),
(367,452,o),
(367,404,cs),
(367,321,o),
(264,274,o),
(148,274,cs),
(125,274,o),
(109,275,o),
(78,279,c),
(67,205,l),
(147,182,o),
(287,144,o),
(395,-14,c)
);
}
);
};
layerId = "1FBC5A4C-5960-4440-8DE7-145DFD8C524C";
name = "Sep 18, 24 at 11:28";
shapes = (
{
closed = 1;
nodes = (
(456,28,l),
(372,153,o),
(267,189,o),
(188,217,c),
(189,221,l),
(325,221,o),
(443,290,o),
(443,410,cs),
(443,485,o),
(393,533,o),
(326,533,cs),
(291,533,o),
(254,528,o),
(200,483,c),
(200,611,l),
(526,611,l),
(526,679,l),
(-17,679,l),
(-17,611,l),
(122,611,l),
(122,397,l),
(178,374,l),
(222,451,o),
(283,467,o),
(305,467,cs),
(337,467,o),
(367,452,o),
(367,404,cs),
(367,321,o),
(264,274,o),
(148,274,cs),
(125,274,o),
(109,275,o),
(78,279,c),
(67,205,l),
(147,182,o),
(287,144,o),
(395,-14,c)
);
}
);
vertWidth = 0;
width = 514;
},
{
.lastUpdate = 762319504.446;
anchors = (
{
name = Anchor2;
pos = (347,725);
},
{
name = Anchor3;
pos = (236,725);
},
{
name = Anchor4;
pos = (386,0);
},
{
name = Anchor5;
pos = (442,0);
}
);
background = {
anchors = (
{
name = Anchor2;
pos = (347,725);
},
{
name = Anchor3;
pos = (236,725);
},
{
name = Anchor4;
pos = (386,0);
}
);
shapes = (
{
closed = 1;
nodes = (
(456,28,l),
(372,153,o),
(267,189,o),
(188,217,c),
(189,221,l),
(325,221,o),
(443,290,o),
(443,410,cs),
(443,485,o),
(393,533,o),
(326,533,cs),
(291,533,o),
(254,528,o),
(200,483,c),
(200,611,l),
(526,611,l),
(526,679,l),
(-17,679,l),
(-17,611,l),
(122,611,l),
(122,397,l),
(178,374,l),
(222,451,o),
(283,467,o),
(305,467,cs),
(337,467,o),
(367,452,o),
(367,404,cs),
(367,321,o),
(264,274,o),
(148,274,cs),
(125,274,o),
(109,275,o),
(78,279,c),
(67,205,l),
(147,182,o),
(287,144,o),
(395,-14,c)
);
}
);
};
layerId = UUID0;
name = Regular;
shapes = (
{
closed = 1;
nodes = (
(91,611,l),
(182,623,l),
(260,611,l),
(526,611,l),
(526,679,l),
(-17,679,l),
(-17,611,l)
);
},
{
closed = 1;
nodes = (
(280,504,l),
(299,519,o),
(317,550,o),
(317,578,cs),
(317,601,o),
(309,618,o),
(295,631,c),
(83,630,l),
(63,618,o),
(43,591,o),
(36,559,c),
(105,541,l),
(119,589,o),
(142,618,o),
(182,618,cs),
(213,618,o),
(238,598,o),
(238,562,cs),
(238,511,o),
(193,475,o),
(123,446,c),
(153,390,l),
(198,422,o),
(238,450,o),
(289,450,cs),
(334,450,o),
(367,427,o),
(367,388,cs),
(367,317,o),
(267,274,o),
(148,274,cs),
(125,274,o),
(109,275,o),
(78,279,c),
(67,205,l),
(147,182,o),
(287,144,o),
(395,-14,c),
(456,28,l),
(372,153,o),
(267,189,o),
(188,217,c),
(189,221,l),
(326,221,o),
(443,286,o),
(443,399,cs),
(443,465,o),
(392,508,o),
(325,508,cs),
(306,508,o),
(289,504,o),
(282,501,c)
);
}
);
vertWidth = 0;
width = 514;
}
);
metricLeft = "=-17";
metricRight = "=-12";
unicode = 43009;
},
{
category = Mark;
glyphname = uniA802;
layers = (
{
anchors = (
{
name = _Anchor2;
pos = (-167,725);
}
);
background = {
anchors = (
{
name = _Anchor2;
pos = (-167,725);
}
);
shapes = (
{
closed = 1;
nodes = (
(-235,769,l),
(-397,947,l),
(-451,898,l),
(-279,726,l)
);
},
{
closed = 1;
nodes = (
(-124,767,l),
(-248,975,l),
(-311,935,l),
(-176,734,l)
);
}
);
};
layerId = UUID0;
shapes = (
{
closed = 1;
nodes = (
(-235,769,l),
(-397,947,l),
(-451,898,l),
(-279,726,l)
);
},
{
closed = 1;
nodes = (
(-124,767,l),
(-248,975,l),
(-311,935,l),
(-176,734,l)
);
}
);
vertWidth = 0;
width = 0;
}
);
subCategory = Nonspacing;
unicode = 43010;
},
{
color = 4;
glyphname = uniA803;
layers = (
{
.lastUpdate = 762319579.668;
anchors = (
{
name = Anchor2;
pos = (503,725);
},
{
name = Anchor3;
pos = (365,725);
},
{
name = Anchor4;
pos = (397,0);
},
{
name = Anchor5;
pos = (567,0);
}
);
background = {
anchors = (
{
name = Anchor2;
pos = (503,725);
},
{
name = Anchor3;
pos = (365,725);
},
{
name = Anchor4;
pos = (397,0);
}
);
shapes = (
{
closed = 1;
nodes = (
(503,0,o),
(666,49,o),
(666,199,cs),
(666,292,o),
(612,347,o),
(527,347,c),
(560,368,o),
(577,402,o),
(577,435,cs),
(577,530,o),
(499,560,o),
(446,560,cs),
(380,560,o),
(298,518,o),
(298,435,cs),
(298,422,o),
(300,409,o),
(304,395,c),
(380,412,l),
(378,420,o),
(377,428,o),
(377,435,cs),
(377,476,o),
(414,493,o),
(441,493,cs),
(473,493,o),
(502,475,o),
(502,433,cs),
(502,391,o),
(474,370,o),
(395,349,c),
(417,278,l),
(441,287,o),
(475,295,o),
(500,295,cs),
(548,295,o),
(589,265,o),
(589,200,cs),
(589,103,o),
(469,74,o),
(379,74,cs),
(245,74,o),
(131,153,o),
(131,314,cs),
(131,475,o),
(249,574,o),
(301,615,c),
(246,659,l),
(187,611,o),
(53,495,o),
(53,314,cs),
(53,94,o),
(230,0,o),
(380,0,cs)
);
},
{
closed = 1;
nodes = (
(737,611,l),
(737,679,l),
(-7,679,l),
(-7,611,l)
);
}
);
};
layerId = UUID0;
shapes = (
{
closed = 1;
nodes = (
(503,-8,o),
(666,41,o),
(666,199,cs),
(666,292,o),
(612,347,o),
(527,347,c),
(560,368,o),
(577,402,o),
(577,435,cs),
(577,530,o),
(499,560,o),
(446,560,cs),
(380,560,o),
(298,518,o),
(298,435,cs),
(298,422,o),
(300,409,o),
(304,395,c),
(380,412,l),
(378,420,o),
(377,428,o),
(377,435,cs),
(377,476,o),
(414,493,o),
(441,493,cs),
(473,493,o),
(502,475,o),
(502,433,cs),
(502,391,o),
(474,370,o),
(395,349,c),
(417,278,l),
(441,287,o),
(475,295,o),
(500,295,cs),
(548,295,o),
(589,265,o),
(589,200,cs),
(589,95,o),
(469,66,o),
(379,66,cs),
(245,66,o),
(131,145,o),
(131,314,cs),
(131,475,o),
(249,574,o),
(301,615,c),
(246,659,l),
(187,611,o),
(53,495,o),
(53,314,cs),
(53,86,o),
(230,-8,o),
(380,-8,cs)
);
},
{
closed = 1;
nodes = (
(737,611,l),
(737,679,l),
(-7,679,l),
(-7,611,l)
);
}
);
vertWidth = 0;
width = 726;
}
);
unicode = 43011;
},
{
glyphname = uniA804;
layers = (
{
.lastUpdate = 762319613.458;
anchors = (
{
name = Anchor2;
pos = (170,725);
},
{
name = Anchor3;
pos = (139,725);
},
{
name = Anchor4;
pos = (273,0);
},
{
name = Anchor5;
pos = (398,0);
}
);
layerId = UUID0;
shapes = (
{
closed = 1;
nodes = (
(301,-8,o),
(339,-1,o),
(397,28,c),
(361,93,l),
(318,69,o),
(288,62,o),
(259,62,cs),
(204,62,o),
(166,99,o),
(166,187,cs),
(166,237,l),
(387,237,o),
(483,333,o),
(483,611,c),
(578,611,l),
(578,679,l),
(478,679,l),
(460,887,o),
(283,919,o),
(156,932,c),
(143,868,l),
(262,849,o),
(392,830,o),
(407,679,c),
(-17,679,l),
(-17,611,l),
(90,611,l),
(90,187,ls),
(90,58,o),
(157,-8,o),
(259,-8,cs)
);
},
{
closed = 1;
nodes = (
(166,611,l),
(408,611,l),
(408,376,o),
(337,306,o),
(166,306,c)
);
}
);
vertWidth = 0;
width = 567;
}
);
unicode = 43012;
},
{
glyphname = uniA805;
layers = (
{
.lastUpdate = 762319628.016;
anchors = (
{
name = Anchor2;
pos = (481,725);
},
{
name = Anchor3;
pos = (279,725);
},
{
name = Anchor4;
pos = (478,0);
},
{
name = Anchor5;
pos = (514,0);
}
);
background = {
anchors = (
{
name = Anchor2;
pos = (481,725);
},
{
name = Anchor3;
pos = (279,725);
},
{
name = Anchor4;
pos = (478,0);
}
);
shapes = (
{
closed = 1;
nodes = (
(514,0,l),
(514,611,l),
(610,611,l),
(610,679,l),
(-17,679,l),
(-17,611,l),
(438,611,l),
(438,482,l),
(396,510,o),
(345,530,o),
(281,530,cs),
(142,530,o),
(59,460,o),
(59,333,cs),
(59,203,o),
(137,136,o),
(283,136,cs),
(348,136,o),
(401,158,o),
(438,185,c),
(438,0,l)
);
},
{
closed = 1;
nodes = (
(171,-9,o),
(194,12,o),
(194,49,cs),
(194,85,o),
(171,105,o),
(135,105,cs),
(98,105,o),
(76,85,o),
(76,49,cs),
(76,12,o),
(98,-9,o),
(135,-9,cs)
);
},
{
closed = 1;
nodes = (
(191,208,o),
(141,249,o),
(141,333,cs),
(141,416,o),
(192,459,o),
(291,459,cs),
(355,459,o),
(404,435,o),
(438,411,c),
(438,269,l),
(396,232,o),
(350,208,o),
(285,208,cs)
);
}
);
};
layerId = UUID0;
shapes = (
{
closed = 1;
nodes = (
(514,0,l),
(514,611,l),
(610,611,l),
(610,679,l),
(-17,679,l),
(-17,611,l),
(438,611,l),
(438,482,l),
(396,510,o),
(345,530,o),
(281,530,cs),
(142,530,o),
(59,460,o),
(59,333,cs),
(59,203,o),
(137,136,o),
(283,136,cs),
(348,136,o),
(401,158,o),
(438,185,c),
(438,0,l)
);
},
{
closed = 1;
nodes = (
(171,-9,o),
(194,12,o),
(194,49,cs),
(194,85,o),
(171,105,o),
(135,105,cs),
(98,105,o),
(76,85,o),
(76,49,cs),
(76,12,o),
(98,-9,o),
(135,-9,cs)
);
},
{
closed = 1;
nodes = (
(191,208,o),
(141,249,o),
(141,333,cs),
(141,416,o),
(192,459,o),
(291,459,cs),
(355,459,o),
(404,435,o),
(438,411,c),
(438,269,l),
(396,232,o),
(350,208,o),
(285,208,cs)
);
}
);
vertWidth = 0;
width = 597;
}
);
unicode = 43013;
},
{
category = Mark;
glyphname = uniA806;
layers = (
{
anchors = (
{
name = _Anchor3;
pos = (-206,725);
}
);
background = {
anchors = (
{
name = _Anchor3;
pos = (-206,725);
}
);
shapes = (
{
closed = 1;
nodes = (
(-209,878,l),
(-95,755,l),
(-42,805,l),
(-210,967,l),
(-368,805,l),
(-314,755,l)
);
}
);
};
layerId = UUID0;
shapes = (
{
closed = 1;
nodes = (
(-209,878,l),
(-95,755,l),
(-42,805,l),
(-210,967,l),
(-368,805,l),
(-314,755,l)
);
}
);
vertWidth = 0;
width = 0;
}
);
subCategory = Nonspacing;
unicode = 43014;
},
{
glyphname = uniA807;
layers = (
{
.lastUpdate = 762319635.462;
anchors = (
{
name = Anchor2;
pos = (800,725);
},
{
name = Anchor3;
pos = (445,725);
},
{
name = Anchor4;
pos = (791,0);
},
{
name = Anchor5;
pos = (827,0);
}
);
background = {
anchors = (
{
name = Anchor2;
pos = (800,725);
},
{
name = Anchor3;
pos = (445,725);
},
{
name = Anchor4;
pos = (791,0);
}
);
shapes = (
{
closed = 1;
nodes = (
(827,0,l),
(827,611,l),
(902,611,l),
(902,679,l),
(-17,679,l),
(-17,611,l),
(87,611,l),
(87,95,l),
(159,62,l),
(391,331,o),
(596,456,o),
(748,523,c),
(751,522,l),
(751,0,l)
);
},
{
closed = 1;
nodes = (
(480,0,l),
(480,621,l),
(405,621,l),
(405,0,l)
);
},
{
closed = 1;
nodes = (
(164,190,l),
(164,611,l),
(753,611,l),
(577,527,o),
(366,403,o),
(168,189,c)
);
}
);
};
layerId = UUID0;
shapes = (
{
closed = 1;
nodes = (
(827,0,l),
(827,611,l),
(902,611,l),
(902,679,l),
(-17,679,l),
(-17,611,l),
(87,611,l),
(87,95,l),
(159,62,l),
(391,331,o),
(596,456,o),
(748,523,c),
(751,522,l),
(751,0,l)
);
},
{
closed = 1;
nodes = (
(480,0,l),
(480,621,l),
(405,621,l),
(405,0,l)
);
},
{
closed = 1;
nodes = (
(164,190,l),
(164,611,l),
(753,611,l),
(577,527,o),
(366,403,o),
(168,189,c)
);
}
);
vertWidth = 0;
width = 896;
}
);
unicode = 43015;
},
{
glyphname = uniA808;
layers = (
{
.lastUpdate = 762319641.919;
anchors = (
{
name = Anchor2;
pos = (848,725);
},
{
name = Anchor3;
pos = (472,725);
},
{
name = Anchor4;
pos = (844,0);
},
{
name = Anchor5;
pos = (886,0);
}
);
background = {
anchors = (
{
name = Anchor2;
pos = (848,725);
},
{
name = Anchor3;
pos = (472,725);
},
{
name = Anchor4;
pos = (844,0);
}
);
shapes = (
{
closed = 1;
nodes = (
(886,0,l),
(886,611,l),
(971,611,l),
(971,679,l),
(-17,679,l),
(-17,611,l),
(68,611,l),
(68,236,l),
(147,204,l),
(224,327,o),
(318,446,o),
(427,545,c),
(430,544,l),
(430,236,l),
(510,204,l),
(591,334,o),
(691,458,o),
(807,560,c),
(810,558,l),
(810,0,l)
);
},
{
closed = 1;
nodes = (
(144,341,l),
(144,611,l),
(400,611,l),
(299,526,o),
(225,447,o),
(148,340,c)
);
},
{
closed = 1;
nodes = (
(507,341,l),
(507,611,l),
(762,611,l),
(661,526,o),
(588,447,o),
(511,340,c)
);
}
);
};
layerId = UUID0;
shapes = (
{
closed = 1;
nodes = (
(886,0,l),
(886,611,l),
(971,611,l),
(971,679,l),
(-17,679,l),
(-17,611,l),
(68,611,l),
(68,236,l),
(147,204,l),
(224,327,o),
(318,446,o),
(427,545,c),
(430,544,l),
(430,236,l),
(510,204,l),
(591,334,o),
(691,458,o),
(807,560,c),
(810,558,l),
(810,0,l)
);
},
{
closed = 1;
nodes = (
(144,341,l),
(144,611,l),
(400,611,l),
(299,526,o),
(225,447,o),
(148,340,c)
);
},
{
closed = 1;
nodes = (
(507,341,l),
(507,611,l),
(762,611,l),
(661,526,o),
(588,447,o),
(511,340,c)
);
}
);
vertWidth = 0;
width = 962;
}
);
unicode = 43016;
},
{
glyphname = uniA809;
layers = (
{
.lastUpdate = 762319656.546;
anchors = (
{
name = Anchor2;
pos = (542,725);
},
{
name = Anchor3;
pos = (327,725);
},
{
name = Anchor4;
pos = (543,0);
},
{
name = Anchor5;
pos = (579,0);
}
);
background = {
anchors = (
{
name = Anchor2;
pos = (542,725);
},
{
name = Anchor3;
pos = (327,725);
},
{
name = Anchor4;
pos = (543,0);
}
);
shapes = (
{
closed = 1;
nodes = (
(579,0,l),
(579,611,l),
(673,611,l),
(673,679,l),
(-17,679,l),
(-17,611,l),
(162,611,l),
(197,577,o),
(237,523,o),
(269,464,c),
(110,423,o),
(56,358,o),
(56,288,cs),
(56,188,o),
(129,128,o),
(214,128,cs),
(303,128,o),
(381,192,o),
(381,316,cs),
(381,431,o),
(312,537,o),
(252,611,c),
(503,611,l),
(503,0,l)
);
},
{
closed = 1;
nodes = (
(167,196,o),
(134,225,o),
(134,276,cs),
(134,319,o),
(165,370,o),
(293,398,c),
(300,370,o),
(304,342,o),
(304,314,cs),
(304,232,o),
(248,196,o),
(207,196,cs)
);
}
);
};
layerId = UUID0;
shapes = (
{
closed = 1;
nodes = (
(579,0,l),
(579,611,l),
(673,611,l),
(673,679,l),
(-17,679,l),
(-17,611,l),
(162,611,l),
(197,577,o),
(237,523,o),
(269,464,c),
(110,423,o),
(56,358,o),
(56,288,cs),
(56,188,o),
(129,128,o),
(214,128,cs),
(303,128,o),
(381,192,o),
(381,316,cs),
(381,431,o),
(312,537,o),
(252,611,c),
(503,611,l),
(503,0,l)
);
},
{
closed = 1;
nodes = (
(167,196,o),
(134,225,o),
(134,276,cs),
(134,319,o),
(165,370,o),
(293,398,c),
(300,370,o),
(304,342,o),
(304,314,cs),
(304,232,o),
(248,196,o),
(207,196,cs)
);
}
);
vertWidth = 0;
width = 660;
}
);
unicode = 43017;
},
{
glyphname = uniA80A;
layers = (
{
.lastUpdate = 762319650.712;
anchors = (
{
name = Anchor2;
pos = (483,725);
},
{
name = Anchor3;
pos = (295,725);
},
{
name = Anchor4;
pos = (490,0);
},
{
name = Anchor5;
pos = (526,0);
}
);
background = {
anchors = (
{
name = Anchor2;
pos = (483,725);
},
{
name = Anchor3;
pos = (295,725);
},
{
name = Anchor4;
pos = (490,0);
}
);
shapes = (
{
closed = 1;
nodes = (
(526,0,l),
(526,611,l),
(623,611,l),
(623,679,l),
(-17,679,l),
(-17,611,l),
(450,611,l),
(450,555,l),
(429,555,ls),
(274,555,o),
(175,532,o),
(76,433,c),
(103,383,o),
(163,337,o),
(221,311,c),
(158,292,o),
(84,246,o),
(49,202,c),
(132,102,o),
(243,57,o),
(434,57,cs),
(450,57,l),
(450,0,l)
);
},
{
closed = 1;
nodes = (
(269,128,o),
(189,157,o),
(141,199,c),
(201,244,o),
(264,272,o),
(379,272,cs),
(406,272,o),
(428,270,o),
(450,269,c),
(450,129,l),
(434,128,o),
(420,128,o),
(405,128,cs)
);
},
{
closed = 1;
nodes = (
(271,343,o),
(217,380,o),
(173,420,c),
(227,466,o),
(281,486,o),
(396,486,cs),
(413,486,o),
(431,486,o),
(450,485,c),
(450,344,l),
(433,343,o),
(411,343,o),
(378,343,cs)
);
}
);
};
layerId = UUID0;
shapes = (
{
closed = 1;
nodes = (
(526,0,l),
(526,611,l),
(623,611,l),
(623,679,l),
(-17,679,l),
(-17,611,l),
(450,611,l),
(450,555,l),
(429,555,ls),
(274,555,o),
(175,532,o),
(76,433,c),
(103,383,o),
(163,337,o),
(221,311,c),
(158,292,o),
(84,246,o),
(49,202,c),
(132,102,o),
(243,57,o),
(434,57,cs),
(450,57,l),
(450,0,l)
);
},
{
closed = 1;
nodes = (
(269,128,o),
(189,157,o),
(141,199,c),
(201,244,o),
(264,272,o),
(379,272,cs),
(406,272,o),
(428,270,o),
(450,269,c),
(450,129,l),
(434,128,o),
(420,128,o),
(405,128,cs)
);
},
{
closed = 1;
nodes = (
(271,343,o),
(217,380,o),
(173,420,c),
(227,466,o),
(281,486,o),
(396,486,cs),
(413,486,o),
(431,486,o),
(450,485,c),
(450,344,l),
(433,343,o),
(411,343,o),
(378,343,cs)
);
}
);
vertWidth = 0;
width = 613;
}
);
unicode = 43018;
},
{
category = Mark;
glyphname = uniA80B;
layers = (
{
anchors = (
{
name = Anchor6;
pos = (-352,725);
},
{
name = _Anchor2;
pos = (-154,725);
},
{
name = _Anchor6;
pos = (-157,725);
}
);
background = {
anchors = (
{
name = Anchor6;
pos = (-352,725);
},
{
name = _Anchor2;
pos = (-154,725);
},
{
name = _Anchor6;
pos = (-157,725);
}
);
shapes = (
{
closed = 1;
nodes = (
(-91,747,o),
(-37,792,o),
(-37,855,cs),
(-37,919,o),
(-91,963,o),
(-154,963,cs),
(-216,963,o),
(-269,919,o),
(-269,855,cs),
(-269,792,o),
(-216,747,o),
(-154,747,cs)
);
},
{
closed = 1;
nodes = (
(-182,808,o),
(-204,829,o),
(-204,855,cs),
(-204,881,o),
(-182,902,o),
(-155,902,cs),
(-125,902,o),
(-104,881,o),
(-104,855,cs),
(-104,829,o),
(-125,808,o),
(-155,808,cs)
);
}
);
};
layerId = UUID0;
shapes = (
{
closed = 1;
nodes = (
(-91,747,o),
(-37,792,o),
(-37,855,cs),
(-37,919,o),
(-91,963,o),
(-154,963,cs),
(-216,963,o),
(-269,919,o),
(-269,855,cs),
(-269,792,o),
(-216,747,o),
(-154,747,cs)
);
},
{
closed = 1;
nodes = (
(-182,808,o),
(-204,829,o),
(-204,855,cs),
(-204,881,o),
(-182,902,o),
(-155,902,cs),
(-125,902,o),
(-104,881,o),
(-104,855,cs),
(-104,829,o),
(-125,808,o),
(-155,808,cs)
);
}
);
vertWidth = 0;
width = 0;
}
);
subCategory = Nonspacing;
unicode = 43019;
},
{
glyphname = uniA80C;
layers = (
{
.lastUpdate = 762319662.236;
anchors = (
{
name = Anchor2;
pos = (483,725);
},
{
name = Anchor3;
pos = (295,725);
},
{
name = Anchor4;
pos = (484,0);
},
{
name = Anchor5;
pos = (517,0);
}
);
background = {
anchors = (
{
name = Anchor2;
pos = (483,725);
},
{
name = Anchor3;
pos = (295,725);
},
{
name = Anchor4;
pos = (484,0);
}
);
shapes = (
{
closed = 1;
nodes = (
(516,0,l),
(516,611,l),
(613,611,l),
(613,679,l),
(-17,679,l),
(-17,611,l),
(440,611,l),
(440,515,l),
(419,515,ls),
(243,515,o),
(144,448,o),
(45,349,c),
(141,212,o),
(273,164,o),
(440,158,c),
(440,0,l)
);
},
{
closed = 1;
nodes = (
(304,233,o),
(211,269,o),
(142,339,c),
(193,384,o),
(261,444,o),
(386,444,cs),
(403,444,o),
(421,444,o),
(440,443,c),
(440,233,l),
(424,233,ls)
);
}
);
};
layerId = UUID0;
shapes = (
{
closed = 1;
nodes = (
(517,0,l),
(517,611,l),
(613,611,l),
(613,679,l),
(-17,679,l),
(-17,611,l),
(440,611,l),
(440,515,l),
(419,515,ls),
(243,515,o),
(144,448,o),
(45,349,c),
(141,212,o),
(273,164,o),
(440,158,c),
(440,0,l)
);
},
{
closed = 1;
nodes = (
(304,233,o),
(211,269,o),
(142,339,c),
(193,384,o),
(261,444,o),
(386,444,cs),
(403,444,o),
(421,444,o),
(440,443,c),
(440,233,l),
(424,233,ls)
);
}
);
vertWidth = 0;
width = 603;
}
);
unicode = 43020;
},
{
glyphname = uniA80D;
layers = (
{
.lastUpdate = 762319719.52;
anchors = (
{
name = Anchor2;
pos = (461,725);
},
{
name = Anchor3;
pos = (354,725);
},
{
name = Anchor4;
pos = (537,-69);
},
{
name = Anchor5;
pos = (619,-69);
}
);
background = {
anchors = (
{
name = Anchor2;
pos = (461,725);
},
{
name = Anchor3;
pos = (354,725);
},
{
name = Anchor4;
pos = (537,-69);
}
);
shapes = (
{
closed = 1;
nodes = (
(300,-27,o),
(372,50,o),
(426,91,c),
(426,46,ls),
(426,-11,o),
(433,-82,o),
(532,-82,cs),
(621,-82,o),
(693,17,o),
(693,80,cs),
(693,149,o),
(648,195,o),
(550,195,cs),
(534,195,o),
(517,192,o),
(500,188,c),
(500,457,l),
(416,490,l),
(318,421,o),
(267,384,o),
(168,275,c),
(164,276,l),
(164,611,l),
(747,611,l),
(747,679,l),
(-17,679,l),
(-17,611,l),
(87,611,l),
(87,176,l),
(167,143,l),
(267,304,o),
(381,378,o),
(423,405,c),
(426,404,l),
(426,166,l),
(340,119,o),
(239,23,o),
(191,-122,c),
(259,-147,l)
);
},
{
closed = 1;
nodes = (
(504,-12,o),
(500,7,o),
(500,44,cs),
(500,126,l),
(517,131,o),
(533,133,o),
(548,133,cs),
(600,133,o),
(617,106,o),
(617,79,cs),
(617,35,o),
(580,-12,o),
(533,-12,cs)
);
}
);
};
layerId = UUID0;
shapes = (
{
closed = 1;
nodes = (
(300,-27,o),
(372,50,o),
(426,91,c),
(426,46,ls),
(426,-11,o),
(433,-82,o),
(532,-82,cs),
(621,-82,o),
(693,17,o),
(693,80,cs),
(693,149,o),
(648,195,o),
(550,195,cs),
(534,195,o),
(517,192,o),
(500,188,c),
(500,457,l),
(416,490,l),
(318,421,o),
(267,384,o),
(168,275,c),
(164,276,l),
(164,611,l),
(747,611,l),
(747,679,l),
(-17,679,l),
(-17,611,l),
(87,611,l),
(87,176,l),
(167,143,l),
(267,304,o),
(381,378,o),
(423,405,c),
(426,404,l),
(426,166,l),
(340,119,o),
(239,23,o),
(191,-122,c),
(259,-147,l)
);
},
{
closed = 1;
nodes = (
(504,-12,o),
(500,7,o),
(500,44,cs),
(500,126,l),
(517,131,o),
(533,133,o),
(548,133,cs),
(600,133,o),
(617,106,o),
(617,79,cs),
(617,35,o),
(580,-12,o),
(533,-12,cs)
);
}
);
vertWidth = 0;
width = 735;
}
);
unicode = 43021;
},
{
glyphname = uniA80E;
layers = (
{
.lastUpdate = 762319747.157;
anchors = (
{
name = Anchor2;
pos = (644,725);
},
{
name = Anchor3;
pos = (349,725);
},
{
name = Anchor4;
pos = (640,0);
},
{
name = Anchor5;
pos = (671,0);
}
);
background = {
anchors = (
{
name = Anchor2;
pos = (644,725);
},
{
name = Anchor3;
pos = (349,725);
},
{
name = Anchor4;
pos = (640,0);
}
);
shapes = (
{
closed = 1;
nodes = (
(672,0,l),
(672,611,l),
(760,611,l),
(760,679,l),
(-13,679,l),
(-13,611,l),
(165,611,l),
(103,541,o),
(42,448,o),
(42,331,cs),
(42,136,o),
(177,81,o),
(268,81,cs),
(375,81,o),
(472,133,o),
(472,255,cs),
(472,298,o),
(454,338,o),
(424,358,c),
(425,361,l),
(596,380,l),
(596,0,l)
);
},
{
closed = 1;
nodes = (
(205,147,o),
(117,185,o),
(117,331,cs),
(117,453,o),
(190,540,o),
(260,611,c),
(596,611,l),
(596,450,l),
(304,417,l),
(300,348,l),
(347,347,o),
(395,331,o),
(395,256,cs),
(395,186,o),
(341,147,o),
(273,147,cs)
);
}
);
};
layerId = UUID0;
shapes = (
{
closed = 1;
nodes = (
(672,0,l),
(672,611,l),
(760,611,l),
(760,679,l),
(-13,679,l),
(-13,611,l),
(165,611,l),
(103,541,o),
(42,448,o),
(42,331,cs),
(42,136,o),
(177,81,o),
(268,81,cs),
(375,81,o),
(472,133,o),
(472,255,cs),
(472,298,o),
(454,338,o),
(424,358,c),
(425,361,l),
(596,380,l),
(596,0,l)
);
},
{
closed = 1;
nodes = (
(205,147,o),
(117,185,o),
(117,331,cs),
(117,453,o),
(190,540,o),
(260,611,c),
(596,611,l),
(596,450,l),
(304,417,l),
(300,348,l),
(347,347,o),
(395,331,o),
(395,256,cs),
(395,186,o),
(341,147,o),
(273,147,cs)
);
}
);
vertWidth = 0;
width = 749;
}
);
unicode = 43022;
},
{
glyphname = uniA80F;
layers = (
{
.lastUpdate = 762319820.168;
anchors = (
{
name = Anchor2;
pos = (708,725);
},
{
name = Anchor3;
pos = (435,725);
},
{
name = Anchor4;
pos = (474,80);
},
{
name = Anchor5;
pos = (703,10);
}
);
background = {
anchors = (
{
name = Anchor2;
pos = (708,725);
},
{
name = Anchor3;
pos = (435,725);
},
{
name = Anchor4;
pos = (474,80);
}
);
shapes = (
{
closed = 1;
nodes = (
(596,69,o),
(729,202,o),
(729,348,cs),
(729,410,o),
(712,470,o),
(662,518,c),
(612,469,l),
(643,435,o),
(654,395,o),
(654,352,cs),
(654,261,o),
(598,173,o),
(484,143,c),
(481,145,l),
(481,487,l),
(397,520,l),
(282,421,o),
(238,370,o),
(168,264,c),
(164,265,l),
(164,611,l),
(943,611,l),
(943,679,l),
(-17,679,l),
(-17,611,l),
(87,611,l),
(87,156,l),
(167,126,l),
(266,300,o),
(351,391,o),
(404,435,c),
(407,434,l),
(407,63,l)
);
},
{
closed = 1;
nodes = (
(817,99,o),
(881,217,o),
(881,332,cs),
(881,394,o),
(863,464,o),
(818,522,c),
(764,481,l),
(795,434,o),
(809,385,o),
(809,335,cs),
(809,242,o),
(757,146,o),
(643,88,c),
(676,31,l)
);
}
);
};
layerId = UUID0;
shapes = (
{
closed = 1;
nodes = (
(596,69,o),
(729,202,o),
(729,348,cs),
(729,410,o),
(712,470,o),
(662,518,c),
(612,469,l),
(643,435,o),
(654,395,o),
(654,352,cs),
(654,261,o),
(598,173,o),
(484,143,c),
(481,145,l),
(481,487,l),
(397,520,l),
(282,421,o),
(238,370,o),
(168,264,c),
(164,265,l),
(164,611,l),
(943,611,l),
(943,679,l),
(-17,679,l),
(-17,611,l),
(87,611,l),
(87,156,l),
(167,126,l),
(266,300,o),
(351,391,o),
(404,435,c),
(407,434,l),
(407,63,l)
);
},
{
closed = 1;
nodes = (
(817,99,o),
(881,217,o),
(881,332,cs),
(881,394,o),
(863,464,o),
(818,522,c),
(764,481,l),
(795,434,o),
(809,385,o),
(809,335,cs),
(809,242,o),
(757,146,o),
(643,88,c),
(676,31,l)
);
}
);
vertWidth = 0;
width = 937;
}
);
unicode = 43023;
},
{
glyphname = uniA810;
layers = (
{
.lastUpdate = 762319839.189;
anchors = (
{
name = Anchor2;
pos = (370,725);
},
{
name = Anchor3;
pos = (257,725);
},
{
name = Anchor4;
pos = (264,0);
},
{
name = Anchor5;
pos = (398,0);
}
);
background = {
anchors = (
{
name = Anchor2;
pos = (370,725);
},
{
name = Anchor3;
pos = (257,725);
},
{
name = Anchor4;
pos = (264,0);
}
);
shapes = (
{
closed = 1;
nodes = (
(382,-6,o),
(451,58,o),
(451,158,cs),
(451,176,o),
(450,193,o),
(447,212,c),
(369,201,l),
(372,188,o),
(373,175,o),
(373,163,cs),
(373,83,o),
(303,61,o),
(259,61,cs),
(184,61,o),
(146,103,o),
(146,165,cs),
(146,224,o),
(183,256,o),
(289,303,cs),
(384,345,o),
(449,402,o),
(449,495,cs),
(449,540,o),
(433,582,o),
(401,611,c),
(557,611,l),
(557,679,l),
(-17,679,l),
(-17,611,l),
(137,611,l),
(101,580,o),
(83,536,o),
(83,494,cs),
(83,469,o),
(88,445,o),
(96,424,c),
(169,446,l),
(163,464,o),
(160,480,o),
(160,496,cs),
(160,555,o),
(202,602,o),
(273,602,cs),
(337,602,o),
(376,561,o),
(376,501,cs),
(376,439,o),
(322,395,o),
(251,362,cs),
(139,310,o),
(68,261,o),
(68,167,cs),
(68,79,o),
(129,-6,o),
(259,-6,cs)
);
}
);
};
layerId = UUID0;
shapes = (
{
closed = 1;
nodes = (
(382,-6,o),
(451,58,o),
(451,158,cs),
(451,176,o),
(450,193,o),
(447,212,c),
(369,201,l),
(372,188,o),
(373,175,o),
(373,163,cs),
(373,83,o),
(303,61,o),
(259,61,cs),
(184,61,o),
(146,103,o),
(146,165,cs),
(146,224,o),
(183,256,o),
(289,303,cs),
(384,345,o),
(449,402,o),
(449,495,cs),
(449,540,o),
(433,582,o),
(401,611,c),
(557,611,l),
(557,679,l),
(-17,679,l),
(-17,611,l),
(137,611,l),
(101,580,o),
(83,536,o),
(83,494,cs),
(83,469,o),
(88,445,o),
(96,424,c),
(169,446,l),
(163,464,o),
(160,480,o),
(160,496,cs),
(160,555,o),
(202,602,o),
(273,602,cs),
(337,602,o),
(376,561,o),
(376,501,cs),
(376,439,o),
(322,395,o),
(251,362,cs),
(139,310,o),
(68,261,o),
(68,167,cs),
(68,79,o),
(129,-6,o),
(259,-6,cs)
);
}
);
vertWidth = 0;
width = 543;
}
);
unicode = 43024;
},
{
color = 4;
glyphname = uniA811;
layers = (
{
.lastUpdate = 762319858.727;
anchors = (
{
name = Anchor2;
pos = (445,725);
},
{
name = Anchor3;
pos = (241,725);
},
{
name = Anchor4;
pos = (230,0);
},
{
name = Anchor5;
pos = (370,0);
}
);
background = {
anchors = (
{
name = Anchor2;
pos = (445,725);
},
{
name = Anchor3;
pos = (241,725);
},
{
name = Anchor4;
pos = (108,0);
}
);
shapes = (
{
closed = 1;
nodes = (
(144,595,o),
(101,621,o),
(8,624,c),
(-1,547,l),
(55,544,o),
(68,535,o),
(68,481,cs),
(68,154,ls),
(68,54,o),
(121,0,o),
(214,0,cs),
(334,0,o),
(425,86,o),
(425,213,cs),
(425,244,o),
(419,270,o),
(407,293,c),
(411,292,o),
(415,292,o),
(419,292,cs),
(491,292,o),
(539,322,o),
(563,383,c),
(491,418,l),
(471,380,o),
(447,360,o),
(385,360,cs),
(326,360,o),
(307,375,o),
(246,375,cs),
(219,375,o),
(178,368,o),
(144,355,c),
(144,501,ls)
);
},
{
closed = 1;
nodes = (
(177,296,o),
(213,304,o),
(251,304,cs),
(310,304,o),
(345,272,o),
(345,212,cs),
(345,134,o),
(293,71,o),
(215,71,cs),
(170,71,o),
(144,88,o),
(144,168,cs),
(144,281,l)
);
}
);
};
layerId = UUID0;
shapes = (
{
closed = 1;
nodes = (
(127,309,l),
(162,348,o),
(244,393,o),
(305,393,cs),
(354,393,o),
(403,370,o),
(403,283,cs),
(403,156,o),
(314,65,o),
(223,65,cs),
(161,65,o),
(144,91,o),
(144,162,cs),
(144,611,l),
(536,611,l),
(536,679,l),
(-17,679,l),
(-17,611,l),
(68,611,l),
(68,148,ls),
(68,44,o),
(120,-6,o),
(221,-6,cs),
(362,-6,o),
(479,123,o),
(479,284,cs),
(479,401,o),
(407,463,o),
(306,463,cs),
(252,463,o),
(169,428,o),
(127,391,c)
);
}
);
vertWidth = 0;
width = 526;
},
{
anchors = (
{
name = Anchor2;
pos = (445,725);
},
{
name = Anchor3;
pos = (241,725);
},
{
name = Anchor4;
pos = (108,0);
}
);
annotations = (
{
pos = (78,1012);
text = "should be like a 6, with the curve coming into the main horizontal stem";
type = Text;
}
);
associatedMasterId = UUID0;
background = {
anchors = (
{
name = Anchor2;
pos = (445,725);
},
{
name = Anchor3;
pos = (241,725);
},
{
name = Anchor4;
pos = (108,0);
}
);
shapes = (
{
closed = 1;
nodes = (
(309,0,o),
(473,169,o),
(473,316,cs),
(473,415,o),
(412,478,o),
(321,478,cs),
(293,478,o),
(263,471,o),
(238,459,c),
(268,392,l),
(280,400,o),
(303,408,o),
(321,408,cs),
(371,408,o),
(397,373,o),
(397,315,cs),
(397,209,o),
(285,91,o),
(147,73,c),
(144,75,l),
(144,611,l),
(536,611,l),
(536,679,l),
(-17,679,l),
(-17,611,l),
(68,611,l),
(68,3,l),
(76,-5,l)
);
}
);
};
layerId = "D63C3B5C-36F6-4689-9F18-1DFD20847AED";
name = "Sep 18, 24 at 10:20";
shapes = (
{
closed = 1;
nodes = (
(364,0,o),
(469,142,o),
(469,284,cs),
(469,390,o),
(407,463,o),
(306,463,cs),
(278,463,o),
(248,456,o),
(223,444,c),
(253,377,l),
(265,385,o),
(288,393,o),
(306,393,cs),
(355,393,o),
(393,359,o),
(393,283,cs),
(393,175,o),
(316,72,o),
(214,72,cs),
(155,72,o),
(144,103,o),
(144,171,cs),
(144,611,l),
(536,611,l),
(536,679,l),
(-17,679,l),
(-17,611,l),
(68,611,l),
(68,159,ls),
(68,52,o),
(114,0,o),
(214,0,cs)
);
}
);
vertWidth = 0;
width = 526;
}
);
unicode = 43025;
changeCount = 1;
},
{
glyphname = uniA812;
layers = (
{
.lastUpdate = 762319873.142;
anchors = (
{
name = Anchor2;
pos = (392,725);
},
{
name = Anchor3;
pos = (381,725);
},
{
name = Anchor4;
pos = (393,0);
},
{
name = Anchor5;
pos = (577,0);
}
);
background = {
anchors = (
{
name = Anchor2;
pos = (392,725);
},
{
name = Anchor3;
pos = (381,725);
},
{
name = Anchor4;
pos = (393,0);
}
);
shapes = (
{
closed = 1;
nodes = (
(579,-8,o),
(712,112,o),
(712,284,cs),
(712,342,o),
(696,413,o),
(665,473,c),
(571,465,o),
(490,431,o),
(427,360,c),
(423,361,l),
(423,611,l),
(776,611,l),
(776,679,l),
(-7,679,l),
(-7,611,l),
(346,611,l),
(346,259,l),
(420,227,l),
(464,318,o),
(519,373,o),
(618,397,c),
(631,360,o),
(637,321,o),
(637,289,cs),
(637,149,o),
(532,68,o),
(392,68,cs),
(242,68,o),
(132,144,o),
(132,280,cs),
(132,363,o),
(170,408,o),
(207,447,c),
(145,497,l),
(112,459,o),
(50,391,o),
(50,282,cs),
(50,100,o),
(200,-8,o),
(390,-8,cs)
);
}
);
};
layerId = UUID0;
shapes = (
{
closed = 1;
nodes = (
(579,-8,o),
(712,112,o),
(712,284,cs),
(712,342,o),
(696,413,o),
(665,473,c),
(571,465,o),
(490,431,o),
(427,360,c),
(423,361,l),
(423,611,l),
(776,611,l),
(776,679,l),
(-7,679,l),
(-7,611,l),
(346,611,l),
(346,259,l),
(420,227,l),
(464,318,o),
(519,373,o),
(618,397,c),
(631,360,o),
(637,321,o),
(637,289,cs),
(637,149,o),
(532,68,o),
(392,68,cs),
(242,68,o),
(132,144,o),
(132,280,cs),
(132,363,o),
(170,408,o),
(207,447,c),
(145,497,l),
(112,459,o),
(50,391,o),
(50,282,cs),
(50,100,o),
(200,-8,o),
(390,-8,cs)
);
}
);
vertWidth = 0;
width = 769;
}
);
unicode = 43026;
},
{
color = 4;
glyphname = uniA813;
layers = (
{
anchors = (
{
name = Anchor2;
pos = (483,725);
},
{
name = Anchor3;
pos = (263,725);
},
{
name = Anchor4;
pos = (108,0);
}
);
associatedMasterId = UUID0;
background = {
anchors = (
{
name = Anchor2;
pos = (483,725);
},
{
name = Anchor3;
pos = (263,725);
},
{
name = Anchor4;
pos = (108,0);
}
);
shapes = (
{
closed = 1;
nodes = (
(346,5,o),
(498,157,o),
(498,303,cs),
(498,402,o),
(437,465,o),
(346,465,cs),
(283,465,o),
(210,428,o),
(210,345,cs),
(210,269,o),
(266,240,o),
(304,232,c),
(330,301,l),
(317,304,o),
(285,311,o),
(285,348,cs),
(285,381,o),
(311,397,o),
(342,397,cs),
(392,397,o),
(420,365,o),
(420,302,cs),
(420,196,o),
(304,86,o),
(152,78,c),
(149,80,l),
(149,611,l),
(567,611,l),
(567,679,l),
(-17,679,l),
(-17,611,l),
(73,611,l),
(73,12,l),
(86,0,l)
);
}
);
};
layerId = "1DDDA13F-72D1-4EFE-811B-68FBD9FB368A";
name = backup;
shapes = (
{
closed = 1;
nodes = (
(346,5,o),
(498,157,o),
(498,303,cs),
(498,402,o),
(437,465,o),
(346,465,cs),
(283,465,o),
(210,428,o),
(210,345,cs),
(210,269,o),
(266,240,o),
(304,232,c),
(330,301,l),
(317,304,o),
(285,311,o),
(285,348,cs),
(285,381,o),
(311,397,o),
(342,397,cs),
(392,397,o),
(420,365,o),
(420,302,cs),
(420,196,o),
(304,86,o),
(152,78,c),
(149,80,l),
(149,611,l),
(567,611,l),
(567,679,l),
(-17,679,l),
(-17,611,l),
(73,611,l),
(73,12,l),
(86,0,l)
);
}
);
vertWidth = 0;
width = 551;
},
{
.lastUpdate = 762319909.088;
anchors = (
{
name = Anchor2;
pos = (483,725);
},
{
name = Anchor3;
pos = (263,725);
},
{
name = Anchor4;
pos = (241,0);
},
{
name = Anchor5;
pos = (400,0);
}
);
background = {
shapes = (
{
closed = 1;
nodes = (
(364,-6,o),
(469,142,o),
(469,284,cs),
(469,390,o),
(407,463,o),
(306,463,cs),
(278,463,o),
(248,456,o),
(223,444,c),
(253,377,l),
(265,385,o),
(288,393,o),
(306,393,cs),
(355,393,o),
(393,359,o),
(393,283,cs),
(393,175,o),
(316,65,o),
(216,65,cs),
(163,65,o),
(144,91,o),
(144,162,cs),
(144,611,l),
(536,611,l),
(536,679,l),
(-17,679,l),
(-17,611,l),
(68,611,l),
(68,148,ls),
(68,44,o),
(122,-6,o),
(214,-6,cs)
);
}
);
};
layerId = UUID0;
name = Regular;
shapes = (
{
closed = 1;
nodes = (
(381,-6,o),
(507,105,o),
(507,237,cs),
(507,335,o),
(435,398,o),
(348,398,cs),
(281,398,o),
(209,362,o),
(209,275,cs),
(209,203,o),
(260,163,o),
(353,159,c),
(367,227,l),
(316,230,o),
(284,244,o),
(284,282,cs),
(284,314,o),
(309,330,o),
(343,330,cs),
(392,330,o),
(431,297,o),
(431,236,cs),
(431,146,o),
(349,65,o),
(252,65,cs),
(169,65,o),
(149,106,o),
(149,172,cs),
(149,611,l),
(567,611,l),
(567,679,l),
(-17,679,l),
(-17,611,l),
(73,611,l),
(73,159,ls),
(73,55,o),
(126,-6,o),
(247,-6,cs)
);
}
);
vertWidth = 0;
width = 551;
}
);
unicode = 43027;
},
{
glyphname = uniA814;
layers = (
{
.lastUpdate = 762320215.115;
anchors = (
{
name = Anchor2;
pos = (483,725);
},
{
name = Anchor3;
pos = (279,725);
},
{
name = Anchor4;
pos = (468,0);
},
{
name = Anchor5;
pos = (509,0);
}
);
background = {
anchors = (
{
name = Anchor2;
pos = (483,725);
},
{
name = Anchor3;
pos = (279,725);
},
{
name = Anchor4;
pos = (468,0);
}
);
shapes = (
{
closed = 1;
nodes = (
(165,55,o),
(194,123,o),
(194,194,cs),
(194,237,o),
(181,281,o),
(155,314,c),
(157,317,l),
(185,305,o),
(221,300,o),
(245,300,cs),
(363,300,o),
(424,332,o),
(493,383,c),
(454,445,l),
(402,406,o),
(338,370,o),
(245,370,cs),
(200,370,o),
(139,382,o),
(78,414,c),
(38,352,l),
(94,304,o),
(121,258,o),
(121,194,cs),
(121,141,o),
(95,93,o),
(34,37,c),
(91,-15,l)
);
},
{
closed = 1;
nodes = (
(509,0,l),
(509,621,l),
(434,621,l),
(434,0,l)
);
},
{
closed = 1;
nodes = (
(577,611,l),
(577,679,l),
(-17,679,l),
(-17,611,l)
);
}
);
};
layerId = UUID0;
shapes = (
{
closed = 1;
nodes = (
(165,55,o),
(194,123,o),
(194,194,cs),
(194,237,o),
(181,281,o),
(155,314,c),
(157,317,l),
(185,305,o),
(221,300,o),
(245,300,cs),
(363,300,o),
(424,332,o),
(493,383,c),
(454,445,l),
(402,406,o),
(338,370,o),
(245,370,cs),
(200,370,o),
(139,382,o),
(78,414,c),
(38,352,l),
(94,304,o),
(121,258,o),
(121,194,cs),
(121,141,o),
(95,93,o),
(34,37,c),
(91,-15,l)
);
},
{
closed = 1;
nodes = (
(509,0,l),
(509,621,l),
(434,621,l),
(434,0,l)
);
},
{
closed = 1;
nodes = (
(577,611,l),
(577,679,l),
(-17,679,l),
(-17,611,l)
);
}
);
vertWidth = 0;
width = 572;
}
);
unicode = 43028;
},
{
glyphname = uniA815;
layers = (
{
.lastUpdate = 762320221.618;
anchors = (
{
name = Anchor2;
pos = (811,725);
},
{
name = Anchor3;
pos = (435,725);
},
{
name = Anchor4;
pos = (812,0);
},
{
name = Anchor5;
pos = (847,0);
}
);
background = {
anchors = (
{
name = Anchor2;
pos = (811,725);
},
{
name = Anchor3;
pos = (435,725);
},
{
name = Anchor4;
pos = (812,0);
}
);
shapes = (
{
closed = 1;
nodes = (
(847,0,l),
(847,611,l),
(932,611,l),
(932,679,l),
(-17,679,l),
(-17,611,l),
(726,611,l),
(627,523,o),
(564,435,o),
(493,330,c),
(489,331,l),
(489,499,l),
(419,529,l),
(346,450,o),
(297,372,o),
(211,271,cs),
(181,235,o),
(164,221,o),
(141,221,cs),
(122,221,o),
(110,232,o),
(97,258,c),
(31,212,l),
(61,158,o),
(96,142,o),
(136,142,cs),
(195,142,o),
(236,178,o),
(274,226,cs),
(330,296,o),
(374,358,o),
(414,411,c),
(414,216,l),
(495,184,l),
(572,325,o),
(659,455,o),
(769,559,c),
(772,558,l),
(772,0,l)
);
}
);
};
layerId = UUID0;
shapes = (
{
closed = 1;
nodes = (
(847,0,l),
(847,611,l),
(932,611,l),
(932,679,l),
(-17,679,l),
(-17,611,l),
(726,611,l),
(627,523,o),
(564,435,o),
(493,330,c),
(489,331,l),
(489,499,l),
(419,529,l),
(346,450,o),
(297,372,o),
(211,271,cs),
(181,235,o),
(164,221,o),
(141,221,cs),
(122,221,o),
(110,232,o),
(97,258,c),
(31,212,l),
(61,158,o),
(96,142,o),
(136,142,cs),
(195,142,o),
(236,178,o),
(274,226,cs),
(330,296,o),
(374,358,o),
(414,411,c),
(414,216,l),
(495,184,l),
(572,325,o),
(659,455,o),
(769,559,c),
(772,558,l),
(772,0,l)
);
}
);
vertWidth = 0;
width = 925;
}
);
unicode = 43029;
},
{
color = 4;
glyphname = uniA816;
layers = (
{
.lastUpdate = 762325250.571;
anchors = (
{
name = Anchor2;
pos = (547,725);
},
{
name = Anchor3;
pos = (306,725);
},
{
name = Anchor4;
pos = (632,-164);
},
{
name = Anchor5;
pos = (659,-34);
}
);
background = {
anchors = (
{
name = Anchor2;
pos = (547,725);
},
{
name = Anchor3;
pos = (306,725);
},
{
name = Anchor4;
pos = (688,-65);
}
);
shapes = (
{
closed = 1;
nodes = (
(588,-164,o),
(615,-155,o),
(646,-132,c),
(609,-67,l),
(592,-78,o),
(570,-89,o),
(546,-89,cs),
(508,-89,o),
(500,-60,o),
(500,-19,cs),
(500,457,l),
(416,490,l),
(318,421,o),
(267,384,o),
(168,275,c),
(164,276,l),
(164,611,l),
(687,611,l),
(687,679,l),
(-17,679,l),
(-17,611,l),
(87,611,l),
(87,176,l),
(167,143,l),
(253,272,o),
(338,348,o),
(423,406,c),
(426,404,l),
(426,-22,ls),
(426,-87,o),
(446,-164,o),
(548,-164,cs)
);
}
);
};
guides = (
{
pos = (637,-293);
},
{
pos = (623,-65);
},
{
pos = (623,-164);
}
);
hints = (
{
place = (647,77);
type = Stem;
}
);
layerId = UUID0;
shapes = (
{
closed = 1;
nodes = (
(625,-164,o),
(670,-147,o),
(699,-127,c),
(665,-67,l),
(645,-81,o),
(612,-93,o),
(583,-93,cs),
(527,-93,o),
(500,-57,o),
(500,15,cs),
(500,457,l),
(416,490,l),
(318,421,o),
(267,384,o),
(168,275,c),
(164,276,l),
(164,611,l),
(687,611,l),
(687,679,l),
(-17,679,l),
(-17,611,l),
(87,611,l),
(87,176,l),
(167,143,l),
(253,272,o),
(338,348,o),
(423,406,c),
(426,404,l),
(426,10,ls),
(426,-85,o),
(464,-164,o),
(574,-164,cs)
);
}
);
vertWidth = 0;
width = 674;
},
{
anchors = (
{
name = Anchor2;
pos = (547,725);
},
{
name = Anchor3;
pos = (306,725);
},
{
name = Anchor4;
pos = (688,-65);
}
);
annotations = (
{
pos = (231.727,931.461);
text = "bottom part should be longer. does this mean longer in length or curve.";
type = Text;
}
);
associatedMasterId = UUID0;
background = {
anchors = (
{
name = Anchor2;
pos = (547,725);
},
{
name = Anchor3;
pos = (306,725);
},
{
name = Anchor4;
pos = (688,-65);
}
);
shapes = (
{
closed = 1;
nodes = (
(588,-164,o),
(615,-155,o),
(646,-132,c),
(609,-67,l),
(592,-78,o),
(570,-89,o),
(546,-89,cs),
(508,-89,o),
(500,-60,o),
(500,-19,cs),
(500,457,l),
(416,490,l),
(318,421,o),
(267,384,o),
(168,275,c),
(164,276,l),
(164,611,l),
(687,611,l),
(687,679,l),
(-17,679,l),
(-17,611,l),
(87,611,l),
(87,176,l),
(167,143,l),
(253,272,o),
(338,348,o),
(423,406,c),
(426,404,l),
(426,-22,ls),
(426,-87,o),
(446,-164,o),
(548,-164,cs)
);
}
);
};
guides = (
{
pos = (637,-293);
},
{
pos = (623,-65);
},
{
pos = (623,-164);
}
);
hints = (
{
place = (647,77);
type = Stem;
}
);
layerId = "A75B7F9B-BE5D-4D1B-A7EA-8672CF7567A8";
name = "Sep 18, 24 at 14:09";
shapes = (
{
closed = 1;
nodes = (
(588,-188,o),
(615,-179,o),
(646,-156,c),
(609,-91,l),
(592,-102,o),
(570,-113,o),
(546,-113,cs),
(508,-113,o),
(500,-84,o),
(500,-43,cs),
(500,457,l),
(416,490,l),
(318,421,o),
(267,384,o),
(168,275,c),
(164,276,l),
(164,611,l),
(687,611,l),
(687,679,l),
(-17,679,l),
(-17,611,l),
(87,611,l),
(87,176,l),
(167,143,l),
(253,272,o),
(338,348,o),
(423,406,c),
(426,404,l),
(426,-46,ls),
(426,-111,o),
(446,-188,o),
(548,-188,cs)
);
}
);
vertWidth = 0;
width = 674;
}
);
unicode = 43030;
},
{
glyphname = uniA817;
layers = (
{
.lastUpdate = 762325440.773;
anchors = (
{
name = Anchor2;
pos = (687,725);
},
{
name = Anchor3;
pos = (381,725);
},
{
name = Anchor4;
pos = (694,0);
},
{
name = Anchor5;
pos = (724,0);
}
);
background = {
anchors = (
{
name = Anchor2;
pos = (687,725);
},
{
name = Anchor3;
pos = (381,725);
},
{
name = Anchor4;
pos = (694,0);
}
);
shapes = (
{
closed = 1;
nodes = (
(724,0,l),
(724,611,l),
(809,611,l),
(809,679,l),
(-17,679,l),
(-17,611,l),
(38,611,l),
(43,482,o),
(92,393,o),
(218,393,cs),
(244,393,o),
(268,399,o),
(290,409,c),
(290,212,l),
(377,185,l),
(482,374,o),
(553,438,o),
(645,518,c),
(648,517,l),
(648,0,l)
);
},
{
closed = 1;
nodes = (
(367,314,l),
(367,499,l),
(358,503,l),
(303,465,o),
(260,462,o),
(227,462,cs),
(143,462,o),
(116,523,o),
(112,611,c),
(649,611,l),
(540,518,o),
(464,449,o),
(371,313,c)
);
}
);
};
layerId = UUID0;
shapes = (
{
closed = 1;
nodes = (
(724,0,l),
(724,611,l),
(809,611,l),
(809,679,l),
(-17,679,l),
(-17,611,l),
(38,611,l),
(43,482,o),
(92,393,o),
(218,393,cs),
(244,393,o),
(268,399,o),
(290,409,c),
(290,212,l),
(377,185,l),
(482,374,o),
(553,438,o),
(645,518,c),
(648,517,l),
(648,0,l)
);
},
{
closed = 1;
nodes = (
(367,314,l),
(367,499,l),
(358,503,l),
(303,465,o),
(260,462,o),
(227,462,cs),
(143,462,o),
(116,523,o),
(112,611,c),
(649,611,l),
(540,518,o),
(464,449,o),
(371,313,c)
);
}
);
vertWidth = 0;
width = 806;
},
{
anchors = (
{
name = Anchor2;
pos = (687,725);
},
{
name = Anchor3;
pos = (381,725);
},
{
name = Anchor4;
pos = (694,0);
}
);
associatedMasterId = UUID0;
background = {
anchors = (
{
name = Anchor2;
pos = (687,725);
},
{
name = Anchor3;
pos = (381,725);
},
{
name = Anchor4;
pos = (694,0);
}
);
shapes = (
{
closed = 1;
nodes = (
(724,0,l),
(724,611,l),
(809,611,l),
(809,679,l),
(-17,679,l),
(-17,611,l),
(38,611,l),
(43,482,o),
(92,393,o),
(218,393,cs),
(244,393,o),
(268,399,o),
(290,409,c),
(290,212,l),
(377,185,l),
(482,374,o),
(553,438,o),
(645,518,c),
(648,517,l),
(648,0,l)
);
},
{
closed = 1;
nodes = (
(367,314,l),
(367,499,l),
(358,503,l),
(303,465,o),
(260,462,o),
(227,462,cs),
(143,462,o),
(116,523,o),
(112,611,c),
(649,611,l),
(540,518,o),
(464,449,o),
(371,313,c)
);
}
);
};
layerId = "57641CF6-7041-46D5-8D83-55E1D5C1A280";
name = backup;
shapes = (
{
closed = 1;
nodes = (
(724,0,l),
(724,611,l),
(809,611,l),
(809,679,l),
(-17,679,l),
(-17,611,l),
(38,611,l),
(43,482,o),
(92,393,o),
(218,393,cs),
(244,393,o),
(268,399,o),
(290,409,c),
(290,212,l),
(377,185,l),
(482,374,o),
(553,438,o),
(645,518,c),
(648,517,l),
(648,0,l)
);
},
{
closed = 1;
nodes = (
(367,314,l),
(367,499,l),
(358,503,l),
(303,465,o),
(260,462,o),
(227,462,cs),
(143,462,o),
(116,523,o),
(112,611,c),
(649,611,l),
(540,518,o),
(464,449,o),
(371,313,c)
);
}
);
vertWidth = 0;
width = 806;
}
);
unicode = 43031;
},
{
color = 4;
glyphname = uniA818;
layers = (
{
.lastUpdate = 762325421.274;
anchors = (
{
name = Anchor2;
pos = (504,725);
},
{
name = Anchor3;
pos = (295,725);
},
{
name = Anchor4;
pos = (506,0);
},
{
name = Anchor5;
pos = (541,0);
}
);
background = {
shapes = (
{
closed = 1;
nodes = (
(443,176,l),
(523,143,l),
(609,272,o),
(694,348,o),
(779,406,c),
(782,404,l),
(782,-14,ls),
(782,-109,o),
(820,-188,o),
(930,-188,cs),
(981,-188,o),
(1026,-171,o),
(1055,-151,c),
(1021,-91,l),
(1001,-105,o),
(968,-117,o),
(939,-117,cs),
(883,-117,o),
(856,-81,o),
(856,-9,cs),
(856,457,l),
(772,490,l),
(674,421,o),
(623,384,o),
(524,275,c),
(520,276,l),
(520,611,l),
(1053,611,l),
(1053,679,l),
(-27,679,l),
(-27,611,l),
(443,611,l)
);
},
{
closed = 1;
nodes = (
(295,93,o),
(349,162,o),
(349,244,cs),
(349,317,o),
(307,392,o),
(177,441,c),
(141,380,l),
(242,343,o),
(271,284,o),
(271,239,cs),
(271,197,o),
(245,163,o),
(200,163,cs),
(154,163,o),
(122,197,o),
(122,256,cs),
(122,371,o),
(248,468,o),
(475,469,c),
(475,535,l),
(188,530,o),
(44,395,o),
(44,257,cs),
(44,150,o),
(115,93,o),
(198,93,cs)
);
}
);
};
layerId = UUID0;
shapes = (
{
closed = 1;
nodes = (
(541,0,l),
(541,611,l),
(637,611,l),
(637,679,l),
(-17,679,l),
(-17,611,l),
(466,611,l),
(466,0,l)
);
},
{
closed = 1;
nodes = (
(295,93,o),
(349,162,o),
(349,244,cs),
(349,317,o),
(307,392,o),
(177,441,c),
(141,380,l),
(242,343,o),
(271,284,o),
(271,239,cs),
(271,197,o),
(245,163,o),
(200,163,cs),
(154,163,o),
(122,197,o),
(122,256,cs),
(122,371,o),
(248,468,o),
(475,469,c),
(475,535,l),
(188,530,o),
(44,395,o),
(44,257,cs),
(44,150,o),
(115,93,o),
(198,93,cs)
);
}
);
vertWidth = 0;
width = 630;
},
{
anchors = (
{
name = Anchor2;
pos = (504,725);
},
{
name = Anchor3;
pos = (295,725);
},
{
name = Anchor4;
pos = (506,0);
}
);
annotations = (
{
pos = (49,1031);
text = "The \"NO\"'s front part should be connected little bit billow from the top of the vertical line.";
type = Text;
},
{
pos = (350,875);
text = "this will require updating other glyphs which use this shape also";
type = Text;
}
);
associatedMasterId = UUID0;
background = {
anchors = (
{
name = Anchor2;
pos = (504,725);
},
{
name = Anchor3;
pos = (295,725);
},
{
name = Anchor4;
pos = (506,0);
}
);
shapes = (
{
closed = 1;
nodes = (
(541,0,l),
(541,611,l),
(637,611,l),
(637,679,l),
(-17,679,l),
(-17,611,l),
(306,611,l),
(174,543,o),
(44,401,o),
(44,249,cs),
(44,143,o),
(120,83,o),
(199,83,cs),
(295,83,o),
(349,154,o),
(349,230,cs),
(349,306,o),
(313,375,o),
(190,426,c),
(255,516,o),
(367,593,o),
(456,593,cs),
(459,593,o),
(462,593,o),
(466,592,c),
(466,0,l)
);
},
{
closed = 1;
nodes = (
(157,153,o),
(122,193,o),
(122,245,cs),
(122,286,o),
(134,324,o),
(156,364,c),
(242,328,o),
(271,275,o),
(271,225,cs),
(271,188,o),
(245,153,o),
(200,153,cs)
);
},
{
closed = 1;
nodes = (
(541,0,l),
(541,611,l),
(637,611,l),
(637,679,l),
(-17,679,l),
(-17,611,l),
(306,611,l),
(174,543,o),
(44,401,o),
(44,249,cs),
(44,143,o),
(120,83,o),
(199,83,cs),
(295,83,o),
(349,154,o),
(349,230,cs),
(349,306,o),
(313,375,o),
(190,426,c),
(255,516,o),
(367,593,o),
(456,593,cs),
(459,593,o),
(462,593,o),
(466,592,c),
(466,0,l)
);
},
{
closed = 1;
nodes = (
(157,153,o),
(122,193,o),
(122,245,cs),
(122,286,o),
(134,324,o),
(156,364,c),
(242,328,o),
(271,275,o),
(271,225,cs),
(271,188,o),
(245,153,o),
(200,153,cs)
);
}
);
};
layerId = "B4B893E3-F8F6-425B-836B-184FA69480B1";
name = "Sep 18, 24 at 10:30";
shapes = (
{
closed = 1;
nodes = (
(541,0,l),
(541,611,l),
(637,611,l),
(637,679,l),
(-17,679,l),
(-17,611,l),
(306,611,l),
(174,543,o),
(44,401,o),
(44,249,cs),
(44,143,o),
(120,83,o),
(199,83,cs),
(295,83,o),
(349,154,o),
(349,230,cs),
(349,306,o),
(313,375,o),
(190,426,c),
(255,516,o),
(367,593,o),
(456,593,cs),
(459,593,o),
(462,593,o),
(466,592,c),
(466,0,l)
);
},
{
closed = 1;
nodes = (
(157,153,o),
(122,193,o),
(122,245,cs),
(122,286,o),
(134,324,o),
(156,364,c),
(242,328,o),
(271,275,o),
(271,225,cs),
(271,188,o),
(245,153,o),
(200,153,cs)
);
},
{
closed = 1;
nodes = (
(541,0,l),
(541,611,l),
(637,611,l),
(637,679,l),
(-17,679,l),
(-17,611,l),
(306,611,l),
(174,543,o),
(44,401,o),
(44,249,cs),
(44,143,o),
(120,83,o),
(199,83,cs),
(295,83,o),
(349,154,o),
(349,230,cs),
(349,306,o),
(313,375,o),
(190,426,c),
(255,516,o),
(367,593,o),
(456,593,cs),
(459,593,o),
(462,593,o),
(466,592,c),
(466,0,l)
);
},
{
closed = 1;
nodes = (
(157,153,o),
(122,193,o),
(122,245,cs),
(122,286,o),
(134,324,o),
(156,364,c),
(242,328,o),
(271,275,o),
(271,225,cs),
(271,188,o),
(245,153,o),
(200,153,cs)
);
}
);
vertWidth = 0;
width = 630;
}
);
unicode = 43032;
},
{
glyphname = uniA819;
layers = (
{
.lastUpdate = 762320319.099;
anchors = (
{
name = Anchor2;
pos = (649,725);
},
{
name = Anchor3;
pos = (349,725);
},
{
name = Anchor4;
pos = (651,0);
},
{
name = Anchor5;
pos = (684,0);
}
);
background = {
anchors = (
{
name = Anchor2;
pos = (649,725);
},
{
name = Anchor3;
pos = (349,725);
},
{
name = Anchor4;
pos = (651,0);
}
);
shapes = (
{
closed = 1;
nodes = (
(684,0,l),
(684,611,l),
(769,611,l),
(769,679,l),
(-17,679,l),
(-17,611,l),
(68,611,l),
(68,91,l),
(147,59,l),
(283,268,o),
(462,427,o),
(605,518,c),
(608,517,l),
(608,0,l)
);
},
{
closed = 1;
nodes = (
(144,197,l),
(144,611,l),
(610,611,l),
(450,508,o),
(268,364,o),
(148,196,c)
);
}
);
};
layerId = UUID0;
shapes = (
{
closed = 1;
nodes = (
(684,0,l),
(684,611,l),
(769,611,l),
(769,679,l),
(-17,679,l),
(-17,611,l),
(68,611,l),
(68,91,l),
(147,59,l),
(283,268,o),
(462,427,o),
(605,518,c),
(608,517,l),
(608,0,l)
);
},
{
closed = 1;
nodes = (
(144,197,l),
(144,611,l),
(610,611,l),
(450,508,o),
(268,364,o),
(148,196,c)
);
}
);
vertWidth = 0;
width = 750;
}
);
unicode = 43033;
},
{
glyphname = uniA81A;
layers = (
{
.lastUpdate = 762320839.628;
anchors = (
{
name = Anchor2;
pos = (649,725);
},
{
name = Anchor3;
pos = (397,725);
},
{
name = Anchor4;
pos = (651,0);
},
{
name = Anchor5;
pos = (684,-20);
}
);
background = {
anchors = (
{
name = Anchor2;
pos = (649,725);
},
{
name = Anchor3;
pos = (397,725);
},
{
name = Anchor4;
pos = (651,0);
}
);
shapes = (
{
closed = 1;
nodes = (
(684,0,l),
(684,167,l),
(727,117,o),
(790,72,o),
(878,64,c),
(889,135,l),
(812,143,o),
(742,182,o),
(715,214,c),
(716,217,l),
(798,219,o),
(892,238,o),
(892,335,cs),
(892,419,o),
(832,447,o),
(769,447,cs),
(736,447,o),
(709,442,o),
(684,435,c),
(684,611,l),
(920,611,l),
(920,679,l),
(-17,679,l),
(-17,611,l),
(68,611,l),
(68,95,l),
(147,63,l),
(274,268,o),
(443,417,o),
(605,518,c),
(608,517,l),
(608,0,l)
);
},
{
closed = 1;
nodes = (
(144,197,l),
(144,611,l),
(610,611,l),
(450,508,o),
(268,364,o),
(148,196,c)
);
},
{
closed = 1;
nodes = (
(684,371,l),
(711,381,o),
(737,386,o),
(765,386,cs),
(799,386,o),
(821,369,o),
(821,335,cs),
(821,288,o),
(751,272,o),
(684,270,c)
);
}
);
};
layerId = UUID0;
shapes = (
{
closed = 1;
nodes = (
(684,0,l),
(684,167,l),
(727,117,o),
(790,72,o),
(878,64,c),
(889,135,l),
(812,143,o),
(742,182,o),
(715,214,c),
(716,217,l),
(798,219,o),
(892,238,o),
(892,335,cs),
(892,419,o),
(832,447,o),
(769,447,cs),
(736,447,o),
(709,442,o),
(684,435,c),
(684,611,l),
(920,611,l),
(920,679,l),
(-17,679,l),
(-17,611,l),
(68,611,l),
(68,95,l),
(147,63,l),
(274,268,o),
(443,417,o),
(605,518,c),
(608,517,l),
(608,0,l)
);
},
{
closed = 1;
nodes = (
(144,197,l),
(144,611,l),
(610,611,l),
(450,508,o),
(268,364,o),
(148,196,c)
);
},
{
closed = 1;
nodes = (
(684,371,l),
(711,381,o),
(737,386,o),
(765,386,cs),
(799,386,o),
(821,369,o),
(821,335,cs),
(821,288,o),
(751,272,o),
(684,270,c)
);
}
);
vertWidth = 0;
width = 908;
}
);
unicode = 43034;
},
{
glyphname = uniA81B;
layers = (
{
.lastUpdate = 762320332.62;
anchors = (
{
name = Anchor2;
pos = (483,725);
},
{
name = Anchor3;
pos = (273,725);
},
{
name = Anchor4;
pos = (484,0);
},
{
name = Anchor5;
pos = (514,0);
}
);
background = {
anchors = (
{
name = Anchor2;
pos = (483,725);
},
{
name = Anchor3;
pos = (273,725);
},
{
name = Anchor4;
pos = (484,0);
}
);
shapes = (
{
closed = 1;
nodes = (
(514,0,l),
(514,611,l),
(610,611,l),
(610,679,l),
(-17,679,l),
(-17,611,l),
(438,611,l),
(438,474,l),
(396,500,o),
(345,519,o),
(281,519,cs),
(142,519,o),
(59,448,o),
(59,322,cs),
(59,192,o),
(141,122,o),
(278,122,cs),
(343,122,o),
(395,145,o),
(438,176,c),
(438,0,l)
);
},
{
closed = 1;
nodes = (
(186,196,o),
(141,238,o),
(141,322,cs),
(141,405,o),
(190,447,o),
(289,447,cs),
(356,447,o),
(401,423,o),
(438,397,c),
(438,260,l),
(397,222,o),
(344,196,o),
(280,196,cs)
);
}
);
};
layerId = UUID0;
shapes = (
{
closed = 1;
nodes = (
(514,0,l),
(514,611,l),
(610,611,l),
(610,679,l),
(-17,679,l),
(-17,611,l),
(438,611,l),
(438,474,l),
(396,500,o),
(345,519,o),
(281,519,cs),
(142,519,o),
(59,448,o),
(59,322,cs),
(59,192,o),
(141,122,o),
(278,122,cs),
(343,122,o),
(395,145,o),
(438,176,c),
(438,0,l)
);
},
{
closed = 1;
nodes = (
(186,196,o),
(141,238,o),
(141,322,cs),
(141,405,o),
(190,447,o),
(289,447,cs),
(356,447,o),
(401,423,o),
(438,397,c),
(438,260,l),
(397,222,o),
(344,196,o),
(280,196,cs)
);
}
);
vertWidth = 0;
width = 593;
}
);
unicode = 43035;
},
{
color = 4;
glyphname = uniA81C;
layers = (
{
.lastUpdate = 762320343.188;
anchors = (
{
name = Anchor2;
pos = (680,725);
},
{
name = Anchor3;
pos = (406,725);
},
{
name = Anchor4;
pos = (676,0);
},
{
name = Anchor5;
pos = (712,0);
}
);
background = {
anchors = (
{
name = Anchor2;
pos = (680,725);
},
{
name = Anchor3;
pos = (406,725);
},
{
name = Anchor4;
pos = (676,0);
}
);
shapes = (
{
closed = 1;
nodes = (
(713,0,l),
(713,611,l),
(788,611,l),
(788,679,l),
(-131,679,l),
(-131,611,l),
(-27,611,l),
(-27,95,l),
(45,62,l),
(277,331,o),
(482,456,o),
(634,523,c),
(637,522,l),
(637,0,l)
);
},
{
closed = 1;
nodes = (
(366,0,l),
(366,621,l),
(291,621,l),
(291,0,l)
);
},
{
closed = 1;
nodes = (
(50,190,l),
(50,611,l),
(639,611,l),
(463,527,o),
(252,403,o),
(54,189,c)
);
}
);
};
guides = (
{
pos = (870,559);
}
);
layerId = UUID0;
shapes = (
{
closed = 1;
nodes = (
(712,0,l),
(712,611,l),
(808,611,l),
(808,679,l),
(-17,679,l),
(-17,611,l),
(637,611,l),
(637,0,l)
);
},
{
closed = 1;
nodes = (
(488,144,o),
(558,213,o),
(558,311,cs),
(558,434,o),
(449,539,o),
(291,539,cs),
(130,539,o),
(20,422,o),
(56,224,c),
(129,234,l),
(102,390,o),
(159,472,o),
(280,472,cs),
(410,472,o),
(480,382,o),
(480,308,cs),
(480,260,o),
(455,215,o),
(403,215,cs),
(366,215,o),
(334,235,o),
(334,289,cs),
(334,345,o),
(368,401,o),
(431,452,c),
(448,471,l),
(507,512,o),
(579,547,o),
(651,558,c),
(651,622,l),
(623,622,l),
(518,594,o),
(441,554,o),
(385,510,c),
(368,486,l),
(283,417,o),
(256,341,o),
(256,285,cs),
(256,199,o),
(317,144,o),
(402,144,cs)
);
}
);
vertWidth = 0;
width = 800;
}
);
metricLeft = "=-17";
unicode = 43036;
},
{
glyphname = uniA81D;
layers = (
{
.lastUpdate = 762320349.892;
anchors = (
{
name = Anchor2;
pos = (547,725);
},
{
name = Anchor3;
pos = (295,725);
},
{
name = Anchor4;
pos = (549,0);
},
{
name = Anchor5;
pos = (585,0);
}
);
background = {
anchors = (
{
name = Anchor2;
pos = (547,725);
},
{
name = Anchor3;
pos = (295,725);
},
{
name = Anchor4;
pos = (549,0);
}
);
shapes = (
{
closed = 1;
nodes = (
(585,0,l),
(585,611,l),
(670,611,l),
(670,679,l),
(-17,679,l),
(-17,611,l),
(32,611,l),
(106,539,o),
(159,477,o),
(197,424,c),
(108,356,o),
(70,302,o),
(70,238,cs),
(70,172,o),
(108,103,o),
(204,103,cs),
(289,103,o),
(346,164,o),
(346,236,cs),
(346,289,o),
(334,341,o),
(294,409,c),
(348,446,o),
(419,489,o),
(509,541,c),
(509,0,l)
);
},
{
closed = 1;
nodes = (
(164,172,o),
(144,205,o),
(144,238,cs),
(144,279,o),
(171,318,o),
(234,367,c),
(262,315,o),
(274,275,o),
(274,243,cs),
(274,198,o),
(244,172,o),
(207,172,cs)
);
},
{
closed = 1;
nodes = (
(226,508,o),
(186,555,o),
(135,611,c),
(490,611,l),
(394,555,o),
(317,508,o),
(256,467,c)
);
}
);
};
layerId = UUID0;
shapes = (
{
closed = 1;
nodes = (
(585,0,l),
(585,611,l),
(670,611,l),
(670,679,l),
(-17,679,l),
(-17,611,l),
(32,611,l),
(106,539,o),
(159,477,o),
(197,424,c),
(108,356,o),
(70,302,o),
(70,238,cs),
(70,172,o),
(108,103,o),
(204,103,cs),
(289,103,o),
(346,164,o),
(346,236,cs),
(346,289,o),
(334,341,o),
(294,409,c),
(348,446,o),
(419,489,o),
(509,541,c),
(509,0,l)
);
},
{
closed = 1;
nodes = (
(164,172,o),
(144,205,o),
(144,238,cs),
(144,279,o),
(171,318,o),
(234,367,c),
(262,315,o),
(274,275,o),
(274,243,cs),
(274,198,o),
(244,172,o),
(207,172,cs)
);
},
{
closed = 1;
nodes = (
(226,508,o),
(186,555,o),
(135,611,c),
(490,611,l),
(394,555,o),
(317,508,o),
(256,467,c)
);
}
);
vertWidth = 0;
width = 662;
}
);
unicode = 43037;
},
{
glyphname = uniA81E;
layers = (
{
.lastUpdate = 762320354.995;
anchors = (
{
name = Anchor2;
pos = (531,725);
},
{
name = Anchor3;
pos = (311,725);
},
{
name = Anchor4;
pos = (543,0);
},
{
name = Anchor5;
pos = (575,0);
}
);
background = {
anchors = (
{
name = Anchor2;
pos = (531,725);
},
{
name = Anchor3;
pos = (311,725);
},
{
name = Anchor4;
pos = (543,0);
}
);
shapes = (
{
closed = 1;
nodes = (
(575,0,l),
(575,611,l),
(660,611,l),
(660,679,l),
(-17,679,l),
(-17,611,l),
(501,611,l),
(496,559,l),
(499,558,l),
(499,0,l)
);
},
{
closed = 1;
nodes = (
(217,217,o),
(252,251,o),
(299,309,cs),
(393,425,o),
(458,541,o),
(581,629,c),
(511,659,l),
(403,576,o),
(325,454,o),
(238,350,cs),
(205,310,o),
(190,299,o),
(165,299,cs),
(147,299,o),
(127,308,o),
(112,328,c),
(55,272,l),
(93,227,o),
(120,217,o),
(159,217,cs)
);
}
);
};
layerId = UUID0;
shapes = (
{
closed = 1;
nodes = (
(575,0,l),
(575,611,l),
(660,611,l),
(660,679,l),
(-17,679,l),
(-17,611,l),
(501,611,l),
(496,559,l),
(499,558,l),
(499,0,l)
);
},
{
closed = 1;
nodes = (
(217,217,o),
(252,251,o),
(299,309,cs),
(393,425,o),
(458,541,o),
(581,629,c),
(511,659,l),
(403,576,o),
(325,454,o),
(238,350,cs),
(205,310,o),
(190,299,o),
(165,299,cs),
(147,299,o),
(127,308,o),
(112,328,c),
(55,272,l),
(93,227,o),
(120,217,o),
(159,217,cs)
);
}
);
vertWidth = 0;
width = 652;
}
);
unicode = 43038;
},
{
glyphname = uniA81F;
layers = (
{
.lastUpdate = 762320360.285;
anchors = (
{
name = Anchor2;
pos = (542,725);
},
{
name = Anchor3;
pos = (306,725);
},
{
name = Anchor4;
pos = (533,0);
},
{
name = Anchor5;
pos = (575,0);
}
);
background = {
anchors = (
{
name = Anchor2;
pos = (542,725);
},
{
name = Anchor3;
pos = (306,725);
},
{
name = Anchor4;
pos = (533,0);
}
);
shapes = (
{
closed = 1;
nodes = (
(575,0,l),
(575,611,l),
(660,611,l),
(660,679,l),
(-17,679,l),
(-17,611,l),
(453,611,l),
(370,537,o),
(297,450,o),
(227,365,cs),
(194,324,o),
(179,310,o),
(154,310,cs),
(136,310,o),
(118,318,o),
(99,340,c),
(45,288,l),
(76,245,o),
(109,231,o),
(147,231,cs),
(206,231,o),
(241,266,o),
(288,323,cs),
(360,410,o),
(423,489,o),
(499,557,c),
(499,0,l)
);
},
{
closed = 1;
nodes = (
(401,-14,l),
(362,10,o),
(337,44,o),
(337,99,cs),
(337,170,o),
(385,213,o),
(438,250,c),
(401,301,l),
(340,258,o),
(267,194,o),
(267,95,cs),
(267,14,o),
(311,-42,o),
(357,-70,c)
);
}
);
};
layerId = UUID0;
shapes = (
{
closed = 1;
nodes = (
(575,0,l),
(575,611,l),
(660,611,l),
(660,679,l),
(-17,679,l),
(-17,611,l),
(453,611,l),
(370,537,o),
(297,450,o),
(227,365,cs),
(194,324,o),
(179,310,o),
(154,310,cs),
(136,310,o),
(118,318,o),
(99,340,c),
(45,288,l),
(76,245,o),
(109,231,o),
(147,231,cs),
(206,231,o),
(241,266,o),
(288,323,cs),
(360,410,o),
(423,489,o),
(499,557,c),
(499,0,l)
);
},
{
closed = 1;
nodes = (
(401,-14,l),
(362,10,o),
(337,44,o),
(337,99,cs),
(337,170,o),
(385,213,o),
(438,250,c),
(401,301,l),
(340,258,o),
(267,194,o),
(267,95,cs),
(267,14,o),
(311,-42,o),
(357,-70,c)
);
}
);
vertWidth = 0;
width = 652;
},
{
anchors = (
{
name = Anchor2;
pos = (542,725);
},
{
name = Anchor3;
pos = (306,725);
},
{
name = Anchor4;
pos = (533,0);
}
);
associatedMasterId = UUID0;
background = {
anchors = (
{
name = Anchor2;
pos = (542,725);
},
{
name = Anchor3;
pos = (306,725);
},
{
name = Anchor4;
pos = (533,0);
}
);
shapes = (
{
closed = 1;
nodes = (
(575,0,l),
(575,611,l),
(660,611,l),
(660,679,l),
(-17,679,l),
(-17,611,l),
(453,611,l),
(370,537,o),
(297,450,o),
(227,365,cs),
(194,324,o),
(179,310,o),
(154,310,cs),
(136,310,o),
(118,318,o),
(99,340,c),
(45,288,l),
(76,245,o),
(109,231,o),
(147,231,cs),
(206,231,o),
(241,266,o),
(288,323,cs),
(360,410,o),
(423,489,o),
(499,557,c),
(499,0,l)
);
},
{
closed = 1;
nodes = (
(401,-14,l),
(362,10,o),
(337,44,o),
(337,99,cs),
(337,170,o),
(385,213,o),
(438,250,c),
(401,301,l),
(340,258,o),
(267,194,o),
(267,95,cs),
(267,14,o),
(311,-42,o),
(357,-70,c)
);
}
);
};
layerId = "292BB761-54EA-4A61-97CC-D6296D79AC64";
name = "previous form";
shapes = (
{
closed = 1;
nodes = (
(575,0,l),
(575,611,l),
(660,611,l),
(660,679,l),
(-17,679,l),
(-17,611,l),
(453,611,l),
(370,537,o),
(297,450,o),
(227,365,cs),
(194,324,o),
(179,310,o),
(154,310,cs),
(136,310,o),
(118,318,o),
(99,340,c),
(45,288,l),
(76,245,o),
(109,231,o),
(147,231,cs),
(206,231,o),
(241,266,o),
(288,323,cs),
(360,410,o),
(423,489,o),
(499,557,c),
(499,0,l)
);
},
{
closed = 1;
nodes = (
(401,-14,l),
(362,10,o),
(337,44,o),
(337,99,cs),
(337,170,o),
(385,213,o),
(438,250,c),
(401,301,l),
(340,258,o),
(267,194,o),
(267,95,cs),
(267,14,o),
(311,-42,o),
(357,-70,c)
);
}
);
vertWidth = 0;
width = 652;
}
);
unicode = 43039;
},
{
glyphname = uniA820;
layers = (
{
.lastUpdate = 762320393.225;
anchors = (
{
name = Anchor2;
pos = (520,725);
},
{
name = Anchor3;
pos = (295,725);
},
{
name = Anchor4;
pos = (329,-113);
},
{
name = Anchor5;
pos = (455,-40);
}
);
background = {
anchors = (
{
name = Anchor2;
pos = (520,725);
},
{
name = Anchor3;
pos = (295,725);
},
{
name = Anchor4;
pos = (329,-113);
}
);
shapes = (
{
closed = 1;
nodes = (
(415,-89,o),
(528,70,o),
(528,258,cs),
(528,324,o),
(511,396,o),
(485,451,c),
(353,440,o),
(235,370,o),
(168,275,c),
(164,276,l),
(164,611,l),
(624,611,l),
(624,679,l),
(-17,679,l),
(-17,611,l),
(87,611,l),
(87,175,l),
(161,143,l),
(213,232,o),
(312,349,o),
(436,371,c),
(446,337,o),
(453,299,o),
(453,265,cs),
(453,93,o),
(370,-10,o),
(235,-121,c),
(287,-182,l)
);
}
);
};
layerId = UUID0;
shapes = (
{
closed = 1;
nodes = (
(415,-89,o),
(528,70,o),
(528,258,cs),
(528,324,o),
(511,396,o),
(485,451,c),
(353,440,o),
(235,370,o),
(168,275,c),
(164,276,l),
(164,611,l),
(624,611,l),
(624,679,l),
(-17,679,l),
(-17,611,l),
(87,611,l),
(87,175,l),
(161,143,l),
(213,232,o),
(312,349,o),
(436,371,c),
(446,337,o),
(453,299,o),
(453,265,cs),
(453,93,o),
(370,-10,o),
(235,-121,c),
(287,-182,l)
);
}
);
vertWidth = 0;
width = 609;
}
);
unicode = 43040;
},
{
glyphname = uniA821;
layers = (
{
.lastUpdate = 762320409.024;
anchors = (
{
name = Anchor2;
pos = (649,725);
},
{
name = Anchor3;
pos = (349,725);
},
{
name = Anchor4;
pos = (651,0);
},
{
name = Anchor5;
pos = (684,0);
}
);
background = {
anchors = (
{
name = Anchor2;
pos = (649,725);
},
{
name = Anchor3;
pos = (349,725);
},
{
name = Anchor4;
pos = (651,0);
}
);
shapes = (
{
closed = 1;
nodes = (
(394,5,l),
(342,123,o),
(250,198,o),
(175,219,c),
(176,223,l),
(252,228,o),
(319,264,o),
(352,316,c),
(428,386,o),
(511,453,o),
(605,518,c),
(608,517,l),
(608,0,l),
(684,0,l),
(684,611,l),
(769,611,l),
(769,679,l),
(-17,679,l),
(-17,611,l),
(610,611,l),
(519,544,o),
(437,482,o),
(371,426,c),
(356,511,o),
(290,562,o),
(218,562,cs),
(155,562,o),
(86,539,o),
(34,495,c),
(80,434,l),
(133,481,o),
(178,493,o),
(216,493,cs),
(265,493,o),
(299,454,o),
(299,393,cs),
(299,312,o),
(165,279,o),
(65,270,c),
(65,196,l),
(139,179,o),
(259,130,o),
(320,-31,c)
);
}
);
};
layerId = UUID0;
shapes = (
{
closed = 1;
nodes = (
(394,5,l),
(342,123,o),
(250,198,o),
(175,219,c),
(176,223,l),
(252,228,o),
(319,264,o),
(352,316,c),
(428,386,o),
(511,453,o),
(605,518,c),
(608,517,l),
(608,0,l),
(684,0,l),
(684,611,l),
(769,611,l),
(769,679,l),
(-17,679,l),
(-17,611,l),
(610,611,l),
(519,544,o),
(437,482,o),
(371,426,c),
(356,511,o),
(290,562,o),
(218,562,cs),
(155,562,o),
(86,539,o),
(34,495,c),
(80,434,l),
(133,481,o),
(178,493,o),
(216,493,cs),
(265,493,o),
(299,454,o),
(299,393,cs),
(299,312,o),
(165,279,o),
(65,270,c),
(65,196,l),
(139,179,o),
(259,130,o),
(320,-31,c)
);
}
);
vertWidth = 0;
width = 762;
}
);
unicode = 43041;
},
{
glyphname = uniA822;
layers = (
{
.lastUpdate = 762320413.441;
anchors = (
{
name = Anchor2;
pos = (682,725);
},
{
name = Anchor3;
pos = (365,725);
},
{
name = Anchor4;
pos = (678,0);
},
{
name = Anchor5;
pos = (714,0);
}
);
background = {
anchors = (
{
name = Anchor2;
pos = (682,725);
},
{
name = Anchor3;
pos = (365,725);
},
{
name = Anchor4;
pos = (678,0);
}
);
shapes = (
{
closed = 1;
nodes = (
(714,0,l),
(714,611,l),
(799,611,l),
(799,679,l),
(-17,679,l),
(-17,611,l),
(68,611,l),
(68,95,l),
(147,63,l),
(274,268,o),
(474,417,o),
(635,518,c),
(638,517,l),
(638,0,l)
);
},
{
closed = 1;
nodes = (
(568,-14,l),
(543,-8,o),
(465,19,o),
(465,103,cs),
(465,194,o),
(518,236,o),
(570,280,c),
(535,326,l),
(493,295,o),
(394,219,o),
(394,102,cs),
(394,-23,o),
(499,-67,o),
(544,-82,c)
);
},
{
closed = 1;
nodes = (
(144,197,l),
(144,611,l),
(640,611,l),
(481,508,o),
(268,364,o),
(148,196,c)
);
}
);
};
layerId = UUID0;
shapes = (
{
closed = 1;
nodes = (
(714,0,l),
(714,611,l),
(799,611,l),
(799,679,l),
(-17,679,l),
(-17,611,l),
(68,611,l),
(68,95,l),
(147,63,l),
(274,268,o),
(474,417,o),
(635,518,c),
(638,517,l),
(638,0,l)
);
},
{
closed = 1;
nodes = (
(568,-14,l),
(543,-8,o),
(465,19,o),
(465,103,cs),
(465,194,o),
(518,236,o),
(570,280,c),
(535,326,l),
(493,295,o),
(394,219,o),
(394,102,cs),
(394,-23,o),
(499,-67,o),
(544,-82,c)
);
},
{
closed = 1;
nodes = (
(144,197,l),
(144,611,l),
(640,611,l),
(481,508,o),
(268,364,o),
(148,196,c)
);
}
);
vertWidth = 0;
width = 787;
}
);
unicode = 43042;
},
{
category = Letter;
glyphname = uniA823;
layers = (
{
anchors = (
{
name = Anchor2;
pos = (161,725);
},
{
name = Anchor3;
pos = (156,725);
},
{
name = Anchor4;
pos = (161,0);
}
);
background = {
anchors = (
{
name = Anchor2;
pos = (161,725);
},
{
name = Anchor3;
pos = (156,725);
},
{
name = Anchor4;
pos = (161,0);
}
);
shapes = (
{
closed = 1;
nodes = (
(197,0,l),
(197,611,l),
(291,611,l),
(291,679,l),
(-17,679,l),
(-17,611,l),
(121,611,l),
(121,0,l)
);
}
);
};
layerId = UUID0;
shapes = (
{
closed = 1;
nodes = (
(197,0,l),
(197,611,l),
(291,611,l),
(291,679,l),
(-17,679,l),
(-17,611,l),
(121,611,l),
(121,0,l)
);
}
);
vertWidth = 0;
width = 281;
}
);
subCategory = Other;
unicode = 43043;
},
{
category = Letter;
glyphname = uniA824;
layers = (
{
anchors = (
{
name = Anchor2;
pos = (302,822);
},
{
name = Anchor3;
pos = (48,952);
},
{
name = Anchor4;
pos = (139,0);
}
);
background = {
anchors = (
{
name = Anchor2;
pos = (302,822);
},
{
name = Anchor3;
pos = (48,952);
},
{
name = Anchor4;
pos = (139,0);
}
);
shapes = (
{
closed = 1;
nodes = (
(176,0,l),
(176,611,l),
(270,611,l),
(270,679,l),
(176,679,l),
(176,809,ls),
(176,878,o),
(150,958,o),
(49,958,cs),
(-63,958,o),
(-131,877,o),
(-186,761,c),
(-113,728,l),
(-71,816,o),
(-24,888,o),
(45,888,cs),
(89,888,o),
(100,850,o),
(100,809,cs),
(100,679,l),
(-17,679,l),
(-17,611,l),
(100,611,l),
(100,0,l)
);
}
);
};
layerId = UUID0;
shapes = (
{
closed = 1;
nodes = (
(176,0,l),
(176,611,l),
(270,611,l),
(270,679,l),
(176,679,l),
(176,809,ls),
(176,878,o),
(150,958,o),
(49,958,cs),
(-63,958,o),
(-131,877,o),
(-186,761,c),
(-113,728,l),
(-71,816,o),
(-24,888,o),
(45,888,cs),
(89,888,o),
(100,850,o),
(100,809,cs),
(100,679,l),
(-17,679,l),
(-17,611,l),
(100,611,l),
(100,0,l)
);
}
);
vertWidth = 0;
width = 254;
}
);
subCategory = Other;
unicode = 43044;
},
{
category = Mark;
color = 4;
glyphname = uniA825;
layers = (
{
.lastUpdate = 762325408.502;
anchors = (
{
name = _Anchor5;
pos = (-224,0);
}
);
background = {
anchors = (
{
name = _Anchor4;
pos = (-113,0);
}
);
shapes = (
{
closed = 1;
nodes = (
(-70,-270,o),
(6,-219,o),
(6,-122,cs),
(6,-29,o),
(-56,7,o),
(-122,7,cs),
(-144,7,o),
(-173,3,o),
(-194,-3,c),
(-174,-71,l),
(-160,-67,o),
(-140,-64,o),
(-125,-64,cs),
(-93,-64,o),
(-66,-76,o),
(-66,-122,cs),
(-66,-179,o),
(-122,-202,o),
(-248,-202,cs),
(-282,-202,o),
(-323,-199,o),
(-371,-189,c),
(-390,-256,l),
(-339,-266,o),
(-292,-270,o),
(-248,-270,cs)
);
},
{
closed = 1;
nodes = (
(-113,-293,o),
(6,-233,o),
(6,-114,cs),
(6,-33,o),
(-54,7,o),
(-122,7,cs),
(-144,7,o),
(-173,3,o),
(-194,-3,c),
(-174,-71,l),
(-160,-67,o),
(-140,-64,o),
(-125,-64,cs),
(-93,-64,o),
(-66,-77,o),
(-66,-118,cs),
(-66,-188,o),
(-160,-225,o),
(-318,-225,cs),
(-390,-225,o),
(-443,-219,o),
(-491,-207,c),
(-510,-273,l),
(-473,-284,o),
(-394,-293,o),
(-318,-293,cs)
);
}
);
};
guides = (
{
pos = (-350,0);
}
);
layerId = UUID0;
shapes = (
{
closed = 1;
nodes = (
(-157,-32,l),
(-153,-31,o),
(-146,-30,o),
(-140,-30,cs),
(-107,-30,o),
(-86,-52,o),
(-86,-85,cs),
(-86,-184,o),
(-277,-255,o),
(-493,-255,cs),
(-560,-255,o),
(-615,-248,o),
(-652,-237,c),
(-671,-303,l),
(-624,-316,o),
(-568,-323,o),
(-496,-323,cs),
(-234,-323,o),
(-12,-230,o),
(-12,-82,cs),
(-12,-7,o),
(-69,41,o),
(-138,41,cs),
(-152,41,o),
(-164,39,o),
(-173,36,c)
);
}
);
vertWidth = 0;
width = 0;
}
);
subCategory = Nonspacing;
unicode = 43045;
},
{
category = Mark;
glyphname = uniA826;
layers = (
{
anchors = (
{
name = Anchor6;
pos = (48,725);
},
{
name = _Anchor2;
pos = (-98,725);
},
{
name = _Anchor6;
pos = (-157,725);
}
);
background = {
anchors = (
{
name = Anchor6;
pos = (48,725);
},
{
name = _Anchor2;
pos = (-98,725);
},
{
name = _Anchor6;
pos = (-157,725);
}
);
shapes = (
{
closed = 1;
nodes = (
(-104,736,l),
(-176,867,o),
(-279,911,o),
(-380,950,c),
(-403,888,l),
(-298,853,o),
(-252,841,o),
(-169,719,c)
);
}
);
};
layerId = UUID0;
shapes = (
{
closed = 1;
nodes = (
(-104,736,l),
(-176,867,o),
(-279,911,o),
(-380,950,c),
(-403,888,l),
(-298,853,o),
(-252,841,o),
(-169,719,c)
);
}
);
vertWidth = 0;
width = 0;
}
);
subCategory = Nonspacing;
unicode = 43046;
},
{
category = Letter;
glyphname = uniA827;
layers = (
{
anchors = (
{
name = Anchor2;
pos = (268,725);
},
{
name = Anchor3;
pos = (161,844);
},
{
name = Anchor4;
pos = (139,0);
}
);
background = {
anchors = (
{
name = Anchor2;
pos = (268,725);
},
{
name = Anchor3;
pos = (161,844);
},
{
name = Anchor4;
pos = (139,0);
}
);
shapes = (
{
closed = 1;
nodes = (
(176,0,l),
(176,611,l),
(270,611,l),
(270,679,l),
(-17,679,l),
(-17,611,l),
(100,611,l),
(100,0,l)
);
},
{
closed = 1;
nodes = (
(165,731,l),
(106,859,o),
(7,946,o),
(-101,991,c),
(-130,927,l),
(-41,891,o),
(43,825,o),
(100,719,c)
);
}
);
};
layerId = UUID0;
shapes = (
{
closed = 1;
nodes = (
(176,0,l),
(176,611,l),
(270,611,l),
(270,679,l),
(-17,679,l),
(-17,611,l),
(100,611,l),
(100,0,l)
);
},
{
closed = 1;
nodes = (
(165,731,l),
(106,859,o),
(7,946,o),
(-101,991,c),
(-130,927,l),
(-41,891,o),
(43,825,o),
(100,719,c)
);
}
);
vertWidth = 0;
width = 262;
}
);
subCategory = Other;
unicode = 43047;
},
{
glyphname = uniA828;
layers = (
{
background = {
shapes = (
{
closed = 1;
nodes = (
(257,264,o),
(311,308,o),
(311,371,cs),
(311,434,o),
(257,478,o),
(194,478,cs),
(133,478,o),
(80,434,o),
(80,371,cs),
(80,308,o),
(133,264,o),
(194,264,cs)
);
},
{
closed = 1;
nodes = (
(169,324,o),
(145,345,o),
(145,370,cs),
(145,396,o),
(169,416,o),
(193,416,cs),
(220,416,o),
(240,396,o),
(240,370,cs),
(240,345,o),
(220,324,o),
(193,324,cs)
);
}
);
};
layerId = UUID0;
shapes = (
{
closed = 1;
nodes = (
(257,264,o),
(311,308,o),
(311,371,cs),
(311,434,o),
(257,478,o),
(194,478,cs),
(133,478,o),
(80,434,o),
(80,371,cs),
(80,308,o),
(133,264,o),
(194,264,cs)
);
},
{
closed = 1;
nodes = (
(169,324,o),
(145,345,o),
(145,370,cs),
(145,396,o),
(169,416,o),
(193,416,cs),
(220,416,o),
(240,396,o),
(240,370,cs),
(240,345,o),
(220,324,o),
(193,324,cs)
);
}
);
vertWidth = 0;
width = 381;
}
);
unicode = 43048;
},
{
glyphname = uniA829;
layers = (
{
background = {
shapes = (
{
closed = 1;
nodes = (
(226,344,o),
(281,389,o),
(281,451,cs),
(281,515,o),
(226,559,o),
(164,559,cs),
(103,559,o),
(49,515,o),
(49,451,cs),
(49,389,o),
(103,344,o),
(164,344,cs)
);
},
{
closed = 1;
nodes = (
(226,72,o),
(281,116,o),
(281,179,cs),
(281,242,o),
(226,286,o),
(164,286,cs),
(103,286,o),
(49,242,o),
(49,179,cs),
(49,116,o),
(103,72,o),
(164,72,cs)
);
},
{
closed = 1;
nodes = (
(138,132,o),
(115,154,o),
(115,178,cs),
(115,204,o),
(138,224,o),
(163,224,cs),
(190,224,o),
(210,204,o),
(210,178,cs),
(210,154,o),
(190,132,o),
(163,132,cs)
);
},
{
closed = 1;
nodes = (
(138,405,o),
(115,426,o),
(115,450,cs),
(115,477,o),
(138,497,o),
(163,497,cs),
(190,497,o),
(210,477,o),
(210,450,cs),
(210,426,o),
(190,405,o),
(163,405,cs)
);
}
);
};
layerId = UUID0;
shapes = (
{
closed = 1;
nodes = (
(226,344,o),
(281,389,o),
(281,451,cs),
(281,515,o),
(226,559,o),
(164,559,cs),
(103,559,o),
(49,515,o),
(49,451,cs),
(49,389,o),
(103,344,o),
(164,344,cs)
);
},
{
closed = 1;
nodes = (
(226,72,o),
(281,116,o),
(281,179,cs),
(281,242,o),
(226,286,o),
(164,286,cs),
(103,286,o),
(49,242,o),
(49,179,cs),
(49,116,o),
(103,72,o),
(164,72,cs)
);
},
{
closed = 1;
nodes = (
(138,132,o),
(115,154,o),
(115,178,cs),
(115,204,o),
(138,224,o),
(163,224,cs),
(190,224,o),
(210,204,o),
(210,178,cs),
(210,154,o),
(190,132,o),
(163,132,cs)
);
},
{
closed = 1;
nodes = (
(138,405,o),
(115,426,o),
(115,450,cs),
(115,477,o),
(138,497,o),
(163,497,cs),
(190,497,o),
(210,477,o),
(210,450,cs),
(210,426,o),
(190,405,o),
(163,405,cs)
);
}
);
vertWidth = 0;
width = 331;
}
);
unicode = 43049;
},
{
glyphname = uniA82A;
layers = (
{
background = {
shapes = (
{
closed = 1;
nodes = (
(519,344,o),
(574,389,o),
(574,451,cs),
(574,515,o),
(519,559,o),
(457,559,cs),
(396,559,o),
(342,515,o),
(342,451,cs),
(342,389,o),
(396,344,o),
(457,344,cs)
);
},
{
closed = 1;
nodes = (
(370,102,o),
(424,146,o),
(424,209,cs),
(424,273,o),
(370,316,o),
(307,316,cs),
(246,316,o),
(193,273,o),
(193,209,cs),
(193,146,o),
(246,102,o),
(307,102,cs)
);
},
{
closed = 1;
nodes = (
(282,163,o),
(259,184,o),
(259,208,cs),
(259,234,o),
(282,255,o),
(306,255,cs),
(333,255,o),
(353,234,o),
(353,208,cs),
(353,184,o),
(333,163,o),
(306,163,cs)
);
},
{
closed = 1;
nodes = (
(226,344,o),
(281,389,o),
(281,451,cs),
(281,515,o),
(226,559,o),
(164,559,cs),
(103,559,o),
(49,515,o),
(49,451,cs),
(49,389,o),
(103,344,o),
(164,344,cs)
);
},
{
closed = 1;
nodes = (
(138,405,o),
(115,426,o),
(115,450,cs),
(115,477,o),
(138,497,o),
(163,497,cs),
(190,497,o),
(210,477,o),
(210,450,cs),
(210,426,o),
(190,405,o),
(163,405,cs)
);
},
{
closed = 1;
nodes = (
(431,405,o),
(408,426,o),
(408,450,cs),
(408,477,o),
(431,497,o),
(456,497,cs),
(483,497,o),
(503,477,o),
(503,450,cs),
(503,426,o),
(483,405,o),
(456,405,cs)
);
}
);
};
layerId = UUID0;
shapes = (
{
closed = 1;
nodes = (
(519,344,o),
(574,389,o),
(574,451,cs),
(574,515,o),
(519,559,o),
(457,559,cs),
(396,559,o),
(342,515,o),
(342,451,cs),
(342,389,o),
(396,344,o),
(457,344,cs)
);
},
{
closed = 1;
nodes = (
(370,102,o),
(424,146,o),
(424,209,cs),
(424,273,o),
(370,316,o),
(307,316,cs),
(246,316,o),
(193,273,o),
(193,209,cs),
(193,146,o),
(246,102,o),
(307,102,cs)
);
},
{
closed = 1;
nodes = (
(282,163,o),
(259,184,o),
(259,208,cs),
(259,234,o),
(282,255,o),
(306,255,cs),
(333,255,o),
(353,234,o),
(353,208,cs),
(353,184,o),
(333,163,o),
(306,163,cs)
);
},
{
closed = 1;
nodes = (
(226,344,o),
(281,389,o),
(281,451,cs),
(281,515,o),
(226,559,o),
(164,559,cs),
(103,559,o),
(49,515,o),
(49,451,cs),
(49,389,o),
(103,344,o),
(164,344,cs)
);
},
{
closed = 1;
nodes = (
(138,405,o),
(115,426,o),
(115,450,cs),
(115,477,o),
(138,497,o),
(163,497,cs),
(190,497,o),
(210,477,o),
(210,450,cs),
(210,426,o),
(190,405,o),
(163,405,cs)
);
},
{
closed = 1;
nodes = (
(431,405,o),
(408,426,o),
(408,450,cs),
(408,477,o),
(431,497,o),
(456,497,cs),
(483,497,o),
(503,477,o),
(503,450,cs),
(503,426,o),
(483,405,o),
(456,405,cs)
);
}
);
vertWidth = 0;
width = 628;
}
);
unicode = 43050;
},
{
glyphname = uniA82B;
layers = (
{
background = {
shapes = (
{
closed = 1;
nodes = (
(528,351,o),
(583,396,o),
(583,459,cs),
(583,522,o),
(528,566,o),
(466,566,cs),
(405,566,o),
(351,522,o),
(351,459,cs),
(351,396,o),
(405,351,o),
(466,351,cs)
);
},
{
closed = 1;
nodes = (
(246,84,o),
(301,128,o),
(301,191,cs),
(301,255,o),
(246,298,o),
(184,298,cs),
(123,298,o),
(70,255,o),
(70,191,cs),
(70,128,o),
(123,84,o),
(184,84,cs)
);
},
{
closed = 1;
nodes = (
(159,144,o),
(135,166,o),
(135,190,cs),
(135,216,o),
(159,236,o),
(183,236,cs),
(210,236,o),
(230,216,o),
(230,190,cs),
(230,166,o),
(210,144,o),
(183,144,cs)
);
},
{
closed = 1;
nodes = (
(246,351,o),
(301,396,o),
(301,459,cs),
(301,522,o),
(246,566,o),
(184,566,cs),
(123,566,o),
(70,522,o),
(70,459,cs),
(70,396,o),
(123,351,o),
(184,351,cs)
);
},
{
closed = 1;
nodes = (
(159,412,o),
(135,433,o),
(135,458,cs),
(135,484,o),
(159,504,o),
(183,504,cs),
(210,504,o),
(230,484,o),
(230,458,cs),
(230,433,o),
(210,412,o),
(183,412,cs)
);
},
{
closed = 1;
nodes = (
(528,84,o),
(583,128,o),
(583,191,cs),
(583,255,o),
(528,298,o),
(466,298,cs),
(405,298,o),
(351,255,o),
(351,191,cs),
(351,128,o),
(405,84,o),
(466,84,cs)
);
},
{
closed = 1;
nodes = (
(440,144,o),
(417,166,o),
(417,190,cs),
(417,216,o),
(440,236,o),
(465,236,cs),
(492,236,o),
(512,216,o),
(512,190,cs),
(512,166,o),
(492,144,o),
(465,144,cs)
);
},
{
closed = 1;
nodes = (
(440,412,o),
(417,433,o),
(417,458,cs),
(417,484,o),
(440,504,o),
(465,504,cs),
(492,504,o),
(512,484,o),
(512,458,cs),
(512,433,o),
(492,412,o),
(465,412,cs)
);
}
);
};
layerId = UUID0;
shapes = (
{
closed = 1;
nodes = (
(528,351,o),
(583,396,o),
(583,459,cs),
(583,522,o),
(528,566,o),
(466,566,cs),
(405,566,o),
(351,522,o),
(351,459,cs),
(351,396,o),
(405,351,o),
(466,351,cs)
);
},
{
closed = 1;
nodes = (
(246,84,o),
(301,128,o),
(301,191,cs),
(301,255,o),
(246,298,o),
(184,298,cs),
(123,298,o),
(70,255,o),
(70,191,cs),
(70,128,o),
(123,84,o),
(184,84,cs)
);
},
{
closed = 1;
nodes = (
(159,144,o),
(135,166,o),
(135,190,cs),
(135,216,o),
(159,236,o),
(183,236,cs),
(210,236,o),
(230,216,o),
(230,190,cs),
(230,166,o),
(210,144,o),
(183,144,cs)
);
},
{
closed = 1;
nodes = (
(246,351,o),
(301,396,o),
(301,459,cs),
(301,522,o),
(246,566,o),
(184,566,cs),
(123,566,o),
(70,522,o),
(70,459,cs),
(70,396,o),
(123,351,o),
(184,351,cs)
);
},
{
closed = 1;
nodes = (
(159,412,o),
(135,433,o),
(135,458,cs),
(135,484,o),
(159,504,o),
(183,504,cs),
(210,504,o),
(230,484,o),
(230,458,cs),
(230,433,o),
(210,412,o),
(183,412,cs)
);
},
{
closed = 1;
nodes = (
(528,84,o),
(583,128,o),
(583,191,cs),
(583,255,o),
(528,298,o),
(466,298,cs),
(405,298,o),
(351,255,o),
(351,191,cs),
(351,128,o),
(405,84,o),
(466,84,cs)
);
},
{
closed = 1;
nodes = (
(440,144,o),
(417,166,o),
(417,190,cs),
(417,216,o),
(440,236,o),
(465,236,cs),
(492,236,o),
(512,216,o),
(512,190,cs),
(512,166,o),
(492,144,o),
(465,144,cs)
);
},
{
closed = 1;
nodes = (
(440,412,o),
(417,433,o),
(417,458,cs),
(417,484,o),
(440,504,o),
(465,504,cs),
(492,504,o),
(512,484,o),
(512,458,cs),
(512,433,o),
(492,412,o),
(465,412,cs)
);
}
);
vertWidth = 0;
width = 646;
}
);
unicode = 43051;
},
{
category = Mark;
glyphname = uniA82C;
layers = (
{
anchors = (
{
name = _Anchor4;
pos = (-113,0);
}
);
background = {
anchors = (
{
name = _Anchor4;
pos = (-113,0);
}
);
shapes = (
{
closed = 1;
nodes = (
(-276,-141,l),
(-21,-268,l),
(22,-214,l),
(-224,-77,l)
);
}
);
};
layerId = UUID0;
shapes = (
{
closed = 1;
nodes = (
(-276,-141,l),
(-21,-268,l),
(22,-214,l),
(-224,-77,l)
);
}
);
vertWidth = 0;
width = 0;
}
);
subCategory = Nonspacing;
unicode = 43052;
},
{
color = 0;
glyphname = uniA807uniA807;
layers = (
{
.lastUpdate = 762320613.348;
anchors = (
{
name = Anchor2;
pos = (751,725);
},
{
name = Anchor3;
pos = (537,725);
},
{
name = Anchor4;
pos = (1069,-99);
},
{
name = Anchor5;
pos = (1103,-99);
}
);
background = {
anchors = (
{
name = Anchor2;
pos = (751,725);
},
{
name = Anchor3;
pos = (537,725);
},
{
name = Anchor4;
pos = (1069,-98);
}
);
shapes = (
{
closed = 1;
nodes = (
(786,-99,l),
(786,252,l),
(866,311,o),
(946,361,o),
(1024,404,c),
(1027,403,l),
(1027,-99,l),
(1103,-99,l),
(1103,492,l),
(1029,492,l),
(945,443,o),
(864,395,o),
(786,341,c),
(786,611,l),
(1212,611,l),
(1212,679,l),
(-17,679,l),
(-17,611,l),
(87,611,l),
(87,95,l),
(159,62,l),
(248,165,o),
(325,245,o),
(395,308,c),
(395,-24,l),
(465,-58,l),
(542,40,o),
(625,123,o),
(711,193,c),
(711,-99,l)
);
},
{
closed = 1;
nodes = (
(164,190,l),
(164,611,l),
(395,611,l),
(395,405,l),
(323,346,o),
(249,276,o),
(168,189,c)
);
},
{
closed = 1;
nodes = (
(470,71,l),
(470,373,l),
(551,438,o),
(627,483,o),
(708,523,c),
(711,522,l),
(711,288,l),
(630,227,o),
(551,156,o),
(474,70,c)
);
},
{
closed = 1;
nodes = (
(470,611,l),
(713,611,l),
(627,566,o),
(548,520,o),
(470,463,c)
);
}
);
};
layerId = UUID0;
shapes = (
{
closed = 1;
nodes = (
(786,-99,l),
(786,252,l),
(866,311,o),
(946,361,o),
(1024,404,c),
(1027,403,l),
(1027,-99,l),
(1103,-99,l),
(1103,492,l),
(1029,492,l),
(945,443,o),
(864,395,o),
(786,341,c),
(786,611,l),
(1212,611,l),
(1212,679,l),
(-17,679,l),
(-17,611,l),
(87,611,l),
(87,95,l),
(159,62,l),
(248,165,o),
(325,245,o),
(395,308,c),
(395,-24,l),
(465,-58,l),
(542,40,o),
(625,123,o),
(711,193,c),
(711,-99,l)
);
},
{
closed = 1;
nodes = (
(164,190,l),
(164,611,l),
(395,611,l),
(395,405,l),
(323,346,o),
(249,276,o),
(168,189,c)
);
},
{
closed = 1;
nodes = (
(470,71,l),
(470,373,l),
(551,438,o),
(627,483,o),
(708,523,c),
(711,522,l),
(711,288,l),
(630,227,o),
(551,156,o),
(474,70,c)
);
},
{
closed = 1;
nodes = (
(470,611,l),
(713,611,l),
(627,566,o),
(548,520,o),
(470,463,c)
);
}
);
vertWidth = 0;
width = 1200;
}
);
},
{
color = 0;
glyphname = uniA807uniA814;
layers = (
{
.lastUpdate = 762328597.739;
anchors = (
{
name = Anchor2;
pos = (784,725);
},
{
name = Anchor3;
pos = (429,725);
},
{
name = Anchor4;
pos = (779,-147);
},
{
name = Anchor5;
pos = (817,-147);
}
);
background = {
anchors = (
{
name = Anchor2;
pos = (784,725);
},
{
name = Anchor3;
pos = (429,725);
},
{
name = Anchor4;
pos = (779,-147);
}
);
shapes = (
{
closed = 1;
nodes = (
(433,-232,o),
(459,-188,o),
(459,-128,cs),
(459,-84,o),
(443,-41,o),
(417,-1,c),
(419,2,l),
(451,-10,o),
(503,-13,o),
(538,-13,cs),
(610,-13,o),
(685,4,o),
(741,30,c),
(741,-202,l),
(817,-202,l),
(817,611,l),
(922,611,l),
(922,679,l),
(-17,679,l),
(-17,611,l),
(87,611,l),
(87,166,l),
(159,132,l),
(230,216,o),
(311,287,o),
(395,346,c),
(395,131,l),
(470,131,l),
(470,395,l),
(561,450,o),
(653,493,o),
(738,523,c),
(741,522,l),
(741,112,l),
(674,75,o),
(600,58,o),
(526,58,cs),
(478,58,o),
(393,68,o),
(327,106,c),
(294,43,l),
(350,-4,o),
(385,-61,o),
(385,-118,cs),
(385,-164,o),
(370,-192,o),
(315,-240,c),
(373,-293,l)
);
},
{
closed = 1;
nodes = (
(164,256,l),
(164,611,l),
(395,611,l),
(395,432,l),
(319,382,o),
(243,324,o),
(168,255,c)
);
},
{
closed = 1;
nodes = (
(470,611,l),
(743,611,l),
(651,575,o),
(560,533,o),
(470,479,c)
);
}
);
};
layerId = UUID0;
shapes = (
{
closed = 1;
nodes = (
(433,-232,o),
(459,-188,o),
(459,-128,cs),
(459,-84,o),
(443,-41,o),
(417,-1,c),
(419,2,l),
(451,-10,o),
(503,-13,o),
(538,-13,cs),
(610,-13,o),
(685,4,o),
(741,30,c),
(741,-202,l),
(817,-202,l),
(817,611,l),
(922,611,l),
(922,679,l),
(-17,679,l),
(-17,611,l),
(87,611,l),
(87,166,l),
(159,132,l),
(230,216,o),
(311,287,o),
(395,346,c),
(395,131,l),
(470,131,l),
(470,395,l),
(561,450,o),
(653,493,o),
(738,523,c),
(741,522,l),
(741,112,l),
(674,75,o),
(600,58,o),
(526,58,cs),
(478,58,o),
(393,68,o),
(327,106,c),
(294,43,l),
(350,-4,o),
(385,-61,o),
(385,-118,cs),
(385,-164,o),
(370,-192,o),
(315,-240,c),
(373,-293,l)
);
},
{
closed = 1;
nodes = (
(164,256,l),
(164,611,l),
(395,611,l),
(395,432,l),
(319,382,o),
(243,324,o),
(168,255,c)
);
},
{
closed = 1;
nodes = (
(470,611,l),
(743,611,l),
(651,575,o),
(560,533,o),
(470,479,c)
);
}
);
vertWidth = 0;
width = 915;
}
);
changeCount = 17;
},
{
color = 0;
glyphname = uniA80CuniA80C;
layers = (
{
.lastUpdate = 762320626.544;
anchors = (
{
name = Anchor2;
pos = (859,725);
},
{
name = Anchor3;
pos = (478,725);
},
{
name = Anchor4;
pos = (849,0);
},
{
name = Anchor5;
pos = (890,0);
}
);
background = {
anchors = (
{
name = Anchor2;
pos = (859,725);
},
{
name = Anchor3;
pos = (478,725);
},
{
name = Anchor4;
pos = (849,0);
}
);
shapes = (
{
closed = 1;
nodes = (
(516,0,l),
(516,251,l),
(598,189,o),
(697,162,o),
(814,158,c),
(814,0,l),
(890,0,l),
(890,611,l),
(987,611,l),
(987,679,l),
(-17,679,l),
(-17,611,l),
(440,611,l),
(440,515,l),
(419,515,ls),
(243,515,o),
(144,451,o),
(45,352,c),
(141,215,o),
(273,164,o),
(440,158,c),
(440,0,l)
);
},
{
closed = 1;
nodes = (
(304,233,o),
(191,276,o),
(142,339,c),
(191,386,o),
(261,444,o),
(386,444,cs),
(403,444,o),
(421,444,o),
(440,443,c),
(440,233,l),
(424,233,ls)
);
},
{
closed = 1;
nodes = (
(678,233,o),
(577,274,o),
(516,339,c),
(567,384,o),
(634,444,o),
(760,444,cs),
(777,444,o),
(795,444,o),
(814,443,c),
(814,233,l),
(798,233,ls)
);
},
{
closed = 1;
nodes = (
(516,611,l),
(814,611,l),
(814,515,l),
(793,515,ls),
(673,515,o),
(588,485,o),
(516,435,c)
);
}
);
};
guides = (
{
pos = (986,515);
},
{
pos = (986,158);
}
);
layerId = UUID0;
shapes = (
{
closed = 1;
nodes = (
(516,0,l),
(516,251,l),
(598,189,o),
(697,162,o),
(814,158,c),
(814,0,l),
(890,0,l),
(890,611,l),
(987,611,l),
(987,679,l),
(-17,679,l),
(-17,611,l),
(440,611,l),
(440,515,l),
(419,515,ls),
(243,515,o),
(144,451,o),
(45,352,c),
(141,215,o),
(273,164,o),
(440,158,c),
(440,0,l)
);
},
{
closed = 1;
nodes = (
(304,233,o),
(191,276,o),
(142,339,c),
(191,386,o),
(261,444,o),
(386,444,cs),
(403,444,o),
(421,444,o),
(440,443,c),
(440,233,l),
(424,233,ls)
);
},
{
closed = 1;
nodes = (
(678,233,o),
(577,274,o),
(516,339,c),
(567,384,o),
(634,444,o),
(760,444,cs),
(777,444,o),
(795,444,o),
(814,443,c),
(814,233,l),
(798,233,ls)
);
},
{
closed = 1;
nodes = (
(516,611,l),
(814,611,l),
(814,515,l),
(793,515,ls),
(673,515,o),
(588,485,o),
(516,435,c)
);
}
);
vertWidth = 0;
width = 979;
}
);
},
{
color = 0;
glyphname = uniA80CuniA80D;
layers = (
{
anchors = (
{
name = Anchor2;
pos = (445,725);
},
{
name = Anchor3;
pos = (451,725);
},
{
name = Anchor4;
pos = (860,-69);
},
{
name = Anchor5;
pos = (942,-69);
}
);
background = {
anchors = (
{
name = Anchor2;
pos = (784,725);
},
{
name = Anchor3;
pos = (677,725);
},
{
name = Anchor4;
pos = (860,-69);
},
{
name = Anchor5;
pos = (942,-69);
}
);
shapes = (
{
closed = 1;
nodes = (
(623,-27,o),
(695,50,o),
(749,91,c),
(749,46,ls),
(749,-11,o),
(756,-82,o),
(855,-82,cs),
(944,-82,o),
(1016,17,o),
(1016,80,cs),
(1016,149,o),
(971,195,o),
(873,195,cs),
(857,195,o),
(840,192,o),
(823,188,c),
(823,457,l),
(739,490,l),
(641,421,o),
(590,384,o),
(491,275,c),
(487,276,l),
(487,611,l),
(1070,611,l),
(1070,679,l),
(306,679,l),
(306,611,l),
(410,611,l),
(410,176,l),
(490,143,l),
(590,304,o),
(704,378,o),
(746,405,c),
(749,404,l),
(749,166,l),
(663,119,o),
(562,23,o),
(514,-122,c),
(582,-147,l)
);
},
{
closed = 1;
nodes = (
(827,-12,o),
(823,7,o),
(823,44,cs),
(823,126,l),
(840,131,o),
(856,133,o),
(871,133,cs),
(923,133,o),
(940,106,o),
(940,79,cs),
(940,35,o),
(903,-12,o),
(856,-12,cs)
);
}
);
};
layerId = UUID0;
shapes = (
{
closed = 1;
nodes = (
(623,-27,o),
(695,50,o),
(749,91,c),
(749,46,ls),
(749,-11,o),
(756,-82,o),
(855,-82,cs),
(944,-82,o),
(1016,17,o),
(1016,80,cs),
(1016,149,o),
(972,195,o),
(874,195,cs),
(857,195,o),
(840,192,o),
(823,188,c),
(823,457,l),
(739,490,l),
(641,421,o),
(590,374,o),
(491,265,c),
(487,266,l),
(487,611,l),
(1071,611,l),
(1071,679,l),
(-17,679,l),
(-17,611,l),
(411,611,l),
(411,553,l),
(234,553,o),
(134,512,o),
(35,413,c),
(127,282,o),
(262,245,o),
(411,240,c),
(411,166,l),
(495,141,l),
(595,297,o),
(704,378,o),
(746,405,c),
(749,404,l),
(749,166,l),
(664,119,o),
(563,23,o),
(514,-122,c),
(582,-147,l)
);
},
{
closed = 1;
nodes = (
(293,314,o),
(200,330,o),
(132,400,c),
(183,444,o),
(250,485,o),
(376,485,cs),
(387,485,o),
(399,485,o),
(411,484,c),
(411,314,l)
);
},
{
closed = 1;
nodes = (
(827,-12,o),
(823,7,o),
(823,44,cs),
(823,126,l),
(840,131,o),
(856,133,o),
(872,133,cs),
(923,133,o),
(940,106,o),
(940,79,cs),
(940,35,o),
(903,-12,o),
(856,-12,cs)
);
}
);
vertWidth = 0;
width = 1062;
}
);
},
{
color = 0;
glyphname = uniA80EuniA80E;
layers = (
{
.lastUpdate = 762320636.816;
anchors = (
{
name = Anchor2;
pos = (644,725);
},
{
name = Anchor3;
pos = (381,725);
},
{
name = Anchor4;
pos = (655,-99);
},
{
name = Anchor5;
pos = (686,-99);
}
);
background = {
anchors = (
{
name = Anchor2;
pos = (644,725);
},
{
name = Anchor3;
pos = (381,725);
},
{
name = Anchor4;
pos = (655,-98);
}
);
shapes = (
{
closed = 1;
nodes = (
(686,-99,l),
(686,611,l),
(781,611,l),
(781,679,l),
(-13,679,l),
(-13,611,l),
(141,611,l),
(87,560,o),
(59,500,o),
(59,434,cs),
(59,370,o),
(83,313,o),
(128,275,c),
(83,227,o),
(59,171,o),
(59,111,cs),
(59,-5,o),
(138,-98,o),
(282,-98,cs),
(387,-98,o),
(486,-57,o),
(486,44,cs),
(486,89,o),
(467,116,o),
(438,132,c),
(439,135,l),
(610,154,l),
(610,-99,l)
);
},
{
closed = 1;
nodes = (
(182,-31,o),
(138,30,o),
(138,112,cs),
(138,162,o),
(154,205,o),
(187,241,c),
(214,231,o),
(246,225,o),
(282,225,cs),
(387,225,o),
(486,267,o),
(486,368,cs),
(486,412,o),
(467,439,o),
(438,456,c),
(439,459,l),
(610,478,l),
(610,220,l),
(318,189,l),
(314,123,l),
(361,122,o),
(410,116,o),
(410,50,cs),
(410,-9,o),
(352,-31,o),
(284,-31,cs)
);
},
{
closed = 1;
nodes = (
(182,292,o),
(138,353,o),
(138,435,cs),
(138,509,o),
(175,569,o),
(245,611,c),
(610,611,l),
(610,543,l),
(318,512,l),
(314,446,l),
(361,445,o),
(410,439,o),
(410,374,cs),
(410,314,o),
(352,292,o),
(284,292,cs)
);
}
);
};
layerId = UUID0;
shapes = (
{
closed = 1;
nodes = (
(686,-99,l),
(686,611,l),
(781,611,l),
(781,679,l),
(-13,679,l),
(-13,611,l),
(141,611,l),
(87,560,o),
(59,500,o),
(59,434,cs),
(59,370,o),
(83,313,o),
(128,275,c),
(83,227,o),
(59,171,o),
(59,111,cs),
(59,-5,o),
(138,-98,o),
(282,-98,cs),
(387,-98,o),
(486,-57,o),
(486,44,cs),
(486,89,o),
(467,116,o),
(438,132,c),
(439,135,l),
(610,154,l),
(610,-99,l)
);
},
{
closed = 1;
nodes = (
(182,-31,o),
(138,30,o),
(138,112,cs),
(138,162,o),
(154,205,o),
(187,241,c),
(214,231,o),
(246,225,o),
(282,225,cs),
(387,225,o),
(486,267,o),
(486,368,cs),
(486,412,o),
(467,439,o),
(438,456,c),
(439,459,l),
(610,478,l),
(610,220,l),
(318,189,l),
(314,123,l),
(361,122,o),
(410,116,o),
(410,50,cs),
(410,-9,o),
(352,-31,o),
(284,-31,cs)
);
},
{
closed = 1;
nodes = (
(182,292,o),
(138,353,o),
(138,435,cs),
(138,509,o),
(175,569,o),
(245,611,c),
(610,611,l),
(610,543,l),
(318,512,l),
(314,446,l),
(361,445,o),
(410,439,o),
(410,374,cs),
(410,314,o),
(352,292,o),
(284,292,cs)
);
}
);
vertWidth = 0;
width = 775;
}
);
},
{
color = 0;
glyphname = uniA814uniA814;
layers = (
{
.lastUpdate = 762320645.483;
anchors = (
{
name = Anchor2;
pos = (504,725);
},
{
name = Anchor3;
pos = (273,725);
},
{
name = Anchor4;
pos = (499,-99);
},
{
name = Anchor5;
pos = (539,-99);
}
);
background = {
anchors = (
{
name = Anchor2;
pos = (504,725);
},
{
name = Anchor3;
pos = (273,725);
},
{
name = Anchor4;
pos = (499,-98);
}
);
shapes = (
{
closed = 1;
nodes = (
(280,-49,o),
(307,6,o),
(307,59,cs),
(307,95,o),
(298,125,o),
(271,161,c),
(274,164,l),
(298,155,o),
(326,149,o),
(355,149,cs),
(388,149,o),
(425,154,o),
(464,166,c),
(464,-99,l),
(539,-99,l),
(539,611,l),
(617,611,l),
(617,679,l),
(-17,679,l),
(-17,611,l),
(464,611,l),
(464,505,l),
(399,473,o),
(342,460,o),
(272,460,cs),
(208,460,o),
(137,483,o),
(78,517,c),
(37,457,l),
(90,419,o),
(102,372,o),
(102,326,cs),
(102,286,o),
(77,242,o),
(41,203,c),
(105,155,l),
(149,204,o),
(174,256,o),
(174,308,cs),
(174,344,o),
(166,380,o),
(147,413,c),
(149,416,l),
(195,398,o),
(237,386,o),
(287,386,cs),
(350,386,o),
(405,396,o),
(464,424,c),
(464,243,l),
(421,226,o),
(376,220,o),
(343,220,cs),
(300,220,o),
(254,230,o),
(210,250,c),
(171,185,l),
(218,151,o),
(233,113,o),
(233,73,cs),
(233,32,o),
(211,-6,o),
(173,-48,c),
(235,-99,l)
);
}
);
};
layerId = UUID0;
shapes = (
{
closed = 1;
nodes = (
(280,-49,o),
(307,6,o),
(307,59,cs),
(307,95,o),
(298,125,o),
(271,161,c),
(274,164,l),
(298,155,o),
(326,149,o),
(355,149,cs),
(388,149,o),
(425,154,o),
(464,166,c),
(464,-99,l),
(539,-99,l),
(539,611,l),
(617,611,l),
(617,679,l),
(-17,679,l),
(-17,611,l),
(464,611,l),
(464,505,l),
(399,473,o),
(342,460,o),
(272,460,cs),
(208,460,o),
(137,483,o),
(78,517,c),
(37,457,l),
(90,419,o),
(102,372,o),
(102,326,cs),
(102,286,o),
(77,242,o),
(41,203,c),
(105,155,l),
(149,204,o),
(174,256,o),
(174,308,cs),
(174,344,o),
(166,380,o),
(147,413,c),
(149,416,l),
(195,398,o),
(237,386,o),
(287,386,cs),
(350,386,o),
(405,396,o),
(464,424,c),
(464,243,l),
(421,226,o),
(376,220,o),
(343,220,cs),
(300,220,o),
(254,230,o),
(210,250,c),
(171,185,l),
(218,151,o),
(233,113,o),
(233,73,cs),
(233,32,o),
(211,-6,o),
(173,-48,c),
(235,-99,l)
);
}
);
vertWidth = 0;
width = 610;
}
);
},
{
color = 0;
glyphname = uniA818uniA814;
layers = (
{
.lastUpdate = 762320653.611;
anchors = (
{
name = Anchor2;
pos = (526,725);
},
{
name = Anchor3;
pos = (300,725);
},
{
name = Anchor4;
pos = (505,-99);
},
{
name = Anchor5;
pos = (541,-99);
}
);
background = {
anchors = (
{
name = Anchor2;
pos = (526,725);
},
{
name = Anchor3;
pos = (300,725);
},
{
name = Anchor4;
pos = (505,-98);
}
);
shapes = (
{
closed = 1;
nodes = (
(229,-108,o),
(257,-55,o),
(257,-2,cs),
(257,34,o),
(247,65,o),
(221,100,c),
(223,103,l),
(256,93,o),
(289,88,o),
(320,88,cs),
(370,88,o),
(418,100,o),
(466,122,c),
(466,-99,l),
(541,-99,l),
(541,611,l),
(627,611,l),
(627,679,l),
(-17,679,l),
(-17,611,l),
(158,611,l),
(83,550,o),
(30,470,o),
(30,379,cs),
(30,273,o),
(105,220,o),
(184,220,cs),
(278,220,o),
(330,282,o),
(330,357,cs),
(330,428,o),
(291,488,o),
(179,541,c),
(231,598,o),
(291,615,o),
(366,615,cs),
(389,615,o),
(432,614,o),
(466,609,c),
(466,199,l),
(409,170,o),
(354,155,o),
(299,155,cs),
(252,155,o),
(209,162,o),
(160,187,c),
(121,124,l),
(168,91,o),
(183,53,o),
(183,12,cs),
(183,-28,o),
(161,-67,o),
(122,-109,c),
(185,-158,l)
);
},
{
closed = 1;
nodes = (
(130,286,o),
(106,329,o),
(106,380,cs),
(106,415,o),
(116,448,o),
(140,484,c),
(221,450,o),
(251,407,o),
(251,358,cs),
(251,320,o),
(230,286,o),
(185,286,cs)
);
}
);
};
layerId = UUID0;
shapes = (
{
closed = 1;
nodes = (
(229,-108,o),
(257,-55,o),
(257,-2,cs),
(257,34,o),
(247,65,o),
(221,100,c),
(223,103,l),
(256,93,o),
(289,88,o),
(320,88,cs),
(370,88,o),
(418,100,o),
(466,122,c),
(466,-99,l),
(541,-99,l),
(541,611,l),
(627,611,l),
(627,679,l),
(-17,679,l),
(-17,611,l),
(158,611,l),
(83,550,o),
(30,470,o),
(30,379,cs),
(30,273,o),
(105,220,o),
(184,220,cs),
(278,220,o),
(330,282,o),
(330,357,cs),
(330,428,o),
(291,488,o),
(179,541,c),
(231,598,o),
(291,615,o),
(366,615,cs),
(389,615,o),
(432,614,o),
(466,609,c),
(466,199,l),
(409,170,o),
(354,155,o),
(299,155,cs),
(252,155,o),
(209,162,o),
(160,187,c),
(121,124,l),
(168,91,o),
(183,53,o),
(183,12,cs),
(183,-28,o),
(161,-67,o),
(122,-109,c),
(185,-158,l)
);
},
{
closed = 1;
nodes = (
(130,289,o),
(106,329,o),
(106,380,cs),
(106,415,o),
(116,448,o),
(140,484,c),
(221,450,o),
(251,407,o),
(251,358,cs),
(251,320,o),
(230,289,o),
(185,289,cs)
);
}
);
vertWidth = 0;
width = 619;
},
{
anchors = (
{
name = Anchor2;
pos = (526,725);
},
{
name = Anchor3;
pos = (300,725);
},
{
name = Anchor4;
pos = (505,-98);
}
);
associatedMasterId = UUID0;
background = {
anchors = (
{
name = Anchor2;
pos = (526,725);
},
{
name = Anchor3;
pos = (300,725);
},
{
name = Anchor4;
pos = (505,-98);
}
);
shapes = (
{
closed = 1;
nodes = (
(229,-108,o),
(257,-55,o),
(257,-2,cs),
(257,34,o),
(247,65,o),
(221,100,c),
(223,103,l),
(256,93,o),
(289,88,o),
(320,88,cs),
(370,88,o),
(418,100,o),
(466,122,c),
(466,-99,l),
(541,-99,l),
(541,611,l),
(627,611,l),
(627,679,l),
(-17,679,l),
(-17,611,l),
(158,611,l),
(83,550,o),
(30,470,o),
(30,379,cs),
(30,273,o),
(105,220,o),
(184,220,cs),
(278,220,o),
(330,282,o),
(330,357,cs),
(330,428,o),
(291,488,o),
(179,541,c),
(231,598,o),
(291,615,o),
(366,615,cs),
(389,615,o),
(432,614,o),
(466,609,c),
(466,199,l),
(409,170,o),
(354,155,o),
(299,155,cs),
(252,155,o),
(209,162,o),
(160,187,c),
(121,124,l),
(168,91,o),
(183,53,o),
(183,12,cs),
(183,-28,o),
(161,-67,o),
(122,-109,c),
(185,-158,l)
);
},
{
closed = 1;
nodes = (
(130,286,o),
(106,329,o),
(106,380,cs),
(106,415,o),
(116,448,o),
(140,484,c),
(221,450,o),
(251,407,o),
(251,358,cs),
(251,320,o),
(230,286,o),
(185,286,cs)
);
}
);
};
layerId = "31301407-9AFC-4020-9FB1-9408F2D02D87";
name = "Sep 18, 24 at 14:06";
shapes = (
{
closed = 1;
nodes = (
(229,-108,o),
(257,-55,o),
(257,-2,cs),
(257,34,o),
(247,65,o),
(221,100,c),
(223,103,l),
(256,93,o),
(289,88,o),
(320,88,cs),
(370,88,o),
(418,100,o),
(466,122,c),
(466,-99,l),
(541,-99,l),
(541,611,l),
(627,611,l),
(627,679,l),
(-17,679,l),
(-17,611,l),
(158,611,l),
(83,550,o),
(30,470,o),
(30,379,cs),
(30,273,o),
(105,220,o),
(184,220,cs),
(278,220,o),
(330,282,o),
(330,357,cs),
(330,428,o),
(291,488,o),
(179,541,c),
(231,598,o),
(291,615,o),
(366,615,cs),
(389,615,o),
(432,614,o),
(466,609,c),
(466,199,l),
(409,170,o),
(354,155,o),
(299,155,cs),
(252,155,o),
(209,162,o),
(160,187,c),
(121,124,l),
(168,91,o),
(183,53,o),
(183,12,cs),
(183,-28,o),
(161,-67,o),
(122,-109,c),
(185,-158,l)
);
},
{
closed = 1;
nodes = (
(130,286,o),
(106,329,o),
(106,380,cs),
(106,415,o),
(116,448,o),
(140,484,c),
(221,450,o),
(251,407,o),
(251,358,cs),
(251,320,o),
(230,286,o),
(185,286,cs)
);
}
);
vertWidth = 0;
width = 619;
}
);
},
{
color = 4;
glyphname = uniA818uniA816;
layers = (
{
anchors = (
{
name = Anchor2;
pos = (504,725);
},
{
name = Anchor3;
pos = (488,725);
},
{
name = Anchor4;
pos = (918,-137);
}
);
annotations = (
{
pos = (261.5,828.883);
text = "lower 6's so it enters the stem rather than the top bar";
type = Text;
}
);
associatedMasterId = UUID0;
background = {
shapes = (
{
closed = 1;
nodes = (
(528,0,l),
(528,611,l),
(624,611,l),
(624,679,l),
(-30,679,l),
(-30,611,l),
(293,611,l),
(161,543,o),
(31,401,o),
(31,249,cs),
(31,143,o),
(107,83,o),
(186,83,cs),
(282,83,o),
(336,154,o),
(336,230,cs),
(336,306,o),
(300,375,o),
(177,426,c),
(242,516,o),
(354,593,o),
(443,593,cs),
(446,593,o),
(449,593,o),
(453,592,c),
(453,0,l)
);
},
{
closed = 1;
nodes = (
(144,153,o),
(109,193,o),
(109,245,cs),
(109,286,o),
(121,324,o),
(143,364,c),
(229,328,o),
(258,275,o),
(258,225,cs),
(258,188,o),
(232,153,o),
(187,153,cs)
);
},
{
closed = 1;
nodes = (
(528,0,l),
(528,611,l),
(624,611,l),
(624,679,l),
(-30,679,l),
(-30,611,l),
(293,611,l),
(161,543,o),
(31,401,o),
(31,249,cs),
(31,143,o),
(107,83,o),
(186,83,cs),
(282,83,o),
(336,154,o),
(336,230,cs),
(336,306,o),
(300,375,o),
(177,426,c),
(242,516,o),
(354,593,o),
(443,593,cs),
(446,593,o),
(449,593,o),
(453,592,c),
(453,0,l)
);
},
{
closed = 1;
nodes = (
(144,153,o),
(109,193,o),
(109,245,cs),
(109,286,o),
(121,324,o),
(143,364,c),
(229,328,o),
(258,275,o),
(258,225,cs),
(258,188,o),
(232,153,o),
(187,153,cs)
);
}
);
};
layerId = "FB2D20CB-185C-414C-8B36-12C23D415556";
name = "Sep 18, 24 at 11:56";
shapes = (
{
closed = 1;
nodes = (
(954,-164,o),
(982,-155,o),
(1013,-132,c),
(976,-67,l),
(958,-78,o),
(936,-89,o),
(913,-89,cs),
(875,-89,o),
(866,-60,o),
(866,-19,cs),
(866,457,l),
(783,490,l),
(685,421,o),
(633,384,o),
(534,275,c),
(530,276,l),
(530,611,l),
(1063,611,l),
(1063,679,l),
(-17,679,l),
(-17,611,l),
(289,611,l),
(159,538,o),
(53,388,o),
(53,260,cs),
(53,154,o),
(129,93,o),
(208,93,cs),
(304,93,o),
(358,164,o),
(358,240,cs),
(358,316,o),
(322,385,o),
(199,436,c),
(264,526,o),
(348,593,o),
(437,593,cs),
(440,593,o),
(449,593,o),
(453,592,c),
(453,176,l),
(533,143,l),
(619,272,o),
(705,348,o),
(790,406,c),
(793,404,l),
(793,-22,ls),
(793,-87,o),
(813,-164,o),
(915,-164,cs)
);
},
{
closed = 1;
nodes = (
(166,163,o),
(131,203,o),
(131,256,cs),
(131,296,o),
(141,335,o),
(163,375,c),
(249,339,o),
(280,285,o),
(280,235,cs),
(280,198,o),
(254,163,o),
(209,163,cs)
);
}
);
vertWidth = 0;
width = 1050;
},
{
.lastUpdate = 762325308.826;
anchors = (
{
name = Anchor2;
pos = (504,725);
},
{
name = Anchor3;
pos = (488,725);
},
{
name = Anchor4;
pos = (998,-164);
},
{
name = Anchor5;
pos = (1025,-34);
}
);
background = {
anchors = (
{
name = Anchor2;
pos = (913,725);
},
{
name = Anchor3;
pos = (672,725);
},
{
name = Anchor4;
pos = (998,-164);
},
{
name = Anchor5;
pos = (1025,-34);
}
);
shapes = (
{
closed = 1;
nodes = (
(991,-164,o),
(1036,-147,o),
(1065,-127,c),
(1031,-67,l),
(1011,-81,o),
(978,-93,o),
(949,-93,cs),
(893,-93,o),
(866,-57,o),
(866,15,cs),
(866,457,l),
(782,490,l),
(684,421,o),
(633,384,o),
(534,275,c),
(530,276,l),
(530,611,l),
(1053,611,l),
(1053,679,l),
(349,679,l),
(349,611,l),
(453,611,l),
(453,176,l),
(533,143,l),
(619,272,o),
(704,348,o),
(789,406,c),
(792,404,l),
(792,10,ls),
(792,-85,o),
(830,-164,o),
(940,-164,cs)
);
}
);
};
guides = (
{
pos = (43,535);
}
);
layerId = UUID0;
name = Regular;
shapes = (
{
closed = 1;
nodes = (
(453,176,l),
(533,143,l),
(619,272,o),
(704,348,o),
(789,406,c),
(792,404,l),
(792,10,ls),
(792,-85,o),
(830,-164,o),
(940,-164,cs),
(991,-164,o),
(1036,-147,o),
(1065,-127,c),
(1031,-67,l),
(1011,-81,o),
(978,-93,o),
(949,-93,cs),
(893,-93,o),
(866,-57,o),
(866,15,cs),
(866,457,l),
(782,490,l),
(684,421,o),
(633,384,o),
(534,275,c),
(530,276,l),
(530,611,l),
(1063,611,l),
(1063,679,l),
(-17,679,l),
(-17,611,l),
(453,611,l)
);
},
{
closed = 1;
nodes = (
(305,93,o),
(359,162,o),
(359,244,cs),
(359,317,o),
(317,392,o),
(187,441,c),
(151,380,l),
(252,343,o),
(281,284,o),
(281,239,cs),
(281,197,o),
(255,163,o),
(210,163,cs),
(164,163,o),
(132,197,o),
(132,256,cs),
(132,371,o),
(258,468,o),
(485,469,c),
(485,535,l),
(198,530,o),
(54,395,o),
(54,257,cs),
(54,150,o),
(125,93,o),
(208,93,cs)
);
}
);
vertWidth = 0;
width = 1040;
}
);
metricLeft = uniA816;
metricRight = uniA816;
},
{
color = 0;
glyphname = uniA818uniA818;
layers = (
{
.lastUpdate = 762320666.089;
anchors = (
{
name = Anchor2;
pos = (569,725);
},
{
name = Anchor3;
pos = (338,725);
},
{
name = Anchor4;
pos = (564,-99);
},
{
name = Anchor5;
pos = (602,-99);
}
);
background = {
anchors = (
{
name = Anchor2;
pos = (569,725);
},
{
name = Anchor3;
pos = (338,725);
},
{
name = Anchor4;
pos = (564,-98);
}
);
shapes = (
{
closed = 1;
nodes = (
(350,-197,o),
(404,-137,o),
(404,-65,cs),
(404,5,o),
(368,59,o),
(259,110,c),
(326,185,o),
(415,212,o),
(509,212,cs),
(526,212,l),
(526,-99,l),
(602,-99,l),
(602,611,l),
(688,611,l),
(688,679,l),
(-16,679,l),
(-16,611,l),
(167,611,l),
(80,547,o),
(31,472,o),
(31,384,cs),
(31,281,o),
(102,229,o),
(179,229,cs),
(270,229,o),
(323,289,o),
(323,362,cs),
(323,431,o),
(285,490,o),
(176,541,c),
(229,603,o),
(342,615,o),
(404,615,cs),
(436,615,o),
(484,614,o),
(526,609,c),
(526,278,l),
(521,278,ls),
(255,278,o),
(112,92,o),
(112,-42,cs),
(112,-145,o),
(183,-197,o),
(260,-197,cs)
);
},
{
closed = 1;
nodes = (
(210,-125,o),
(189,-86,o),
(189,-40,cs),
(189,-9,o),
(199,22,o),
(219,55,c),
(294,24,o),
(320,-14,o),
(320,-60,cs),
(320,-95,o),
(300,-125,o),
(260,-125,cs)
);
},
{
closed = 1;
nodes = (
(129,301,o),
(108,340,o),
(108,386,cs),
(108,417,o),
(118,448,o),
(138,481,c),
(213,450,o),
(239,412,o),
(239,367,cs),
(239,331,o),
(219,301,o),
(179,301,cs)
);
}
);
};
layerId = UUID0;
shapes = (
{
closed = 1;
nodes = (
(202,615,o),
(414,615,cs),
(433,615,o),
(484,614,o),
(526,609,c),
(526,278,l),
(521,278,ls),
(255,278,o),
(112,92,o),
(112,-42,cs),
(112,-145,o),
(183,-197,o),
(260,-197,cs),
(350,-197,o),
(404,-137,o),
(404,-65,cs),
(404,10,o),
(363,66,o),
(236,120,c),
(196,64,l),
(289,31,o),
(320,-9,o),
(320,-60,cs),
(320,-95,o),
(300,-127,o),
(260,-127,cs),
(210,-127,o),
(189,-86,o),
(189,-40,cs),
(189,44,o),
(285,212,o),
(509,212,cs),
(526,212,l),
(526,-99,l),
(602,-99,l),
(602,611,l),
(688,611,l),
(688,679,l),
(-16,679,l),
(-16,611,l),
(175,611,l),
(76,555,o),
(31,472,o),
(31,384,cs),
(31,281,o),
(102,229,o),
(179,229,cs),
(270,229,o),
(323,289,o),
(323,362,cs),
(323,435,o),
(280,498,o),
(154,551,c),
(114,490,l),
(208,457,o),
(239,416,o),
(239,367,cs),
(239,331,o),
(219,299,o),
(179,299,cs),
(129,299,o),
(108,340,o),
(108,386,cs),
(108,488,o)
);
}
);
vertWidth = 0;
width = 679;
}
);
},
{
color = 0;
glyphname = uniA81BuniA81B;
layers = (
{
.lastUpdate = 762320670.374;
anchors = (
{
name = Anchor2;
pos = (408,725);
},
{
name = Anchor3;
pos = (241,725);
},
{
name = Anchor4;
pos = (408,-98);
},
{
name = Anchor5;
pos = (445,-119);
}
);
background = {
anchors = (
{
name = Anchor2;
pos = (408,725);
},
{
name = Anchor3;
pos = (241,725);
},
{
name = Anchor4;
pos = (408,-98);
}
);
shapes = (
{
closed = 1;
nodes = (
(445,-119,l),
(445,611,l),
(531,611,l),
(531,679,l),
(-17,679,l),
(-17,611,l),
(370,611,l),
(370,534,l),
(326,555,o),
(277,570,o),
(221,570,cs),
(131,570,o),
(29,532,o),
(29,411,cs),
(29,285,o),
(131,251,o),
(220,251,cs),
(278,251,o),
(330,264,o),
(370,289,c),
(370,181,l),
(328,201,o),
(282,215,o),
(228,215,cs),
(141,215,o),
(41,182,o),
(41,65,cs),
(41,-57,o),
(139,-96,o),
(225,-96,cs),
(279,-96,o),
(331,-81,o),
(370,-58,c),
(370,-119,l)
);
},
{
closed = 1;
nodes = (
(185,-28,o),
(118,-16,o),
(118,65,cs),
(118,134,o),
(179,150,o),
(232,150,cs),
(286,150,o),
(333,131,o),
(370,110,c),
(370,19,l),
(337,-5,o),
(289,-28,o),
(236,-28,cs)
);
},
{
closed = 1;
nodes = (
(178,322,o),
(109,327,o),
(109,411,cs),
(109,494,o),
(182,500,o),
(240,500,cs),
(288,500,o),
(334,486,o),
(370,466,c),
(370,371,l),
(330,336,o),
(286,322,o),
(231,322,cs)
);
}
);
};
layerId = UUID0;
shapes = (
{
closed = 1;
nodes = (
(445,-119,l),
(445,611,l),
(531,611,l),
(531,679,l),
(-17,679,l),
(-17,611,l),
(370,611,l),
(370,534,l),
(326,555,o),
(277,570,o),
(221,570,cs),
(131,570,o),
(29,532,o),
(29,411,cs),
(29,285,o),
(131,251,o),
(220,251,cs),
(278,251,o),
(330,264,o),
(370,289,c),
(370,181,l),
(328,201,o),
(282,215,o),
(228,215,cs),
(141,215,o),
(41,182,o),
(41,65,cs),
(41,-57,o),
(139,-96,o),
(225,-96,cs),
(279,-96,o),
(331,-81,o),
(370,-58,c),
(370,-119,l)
);
},
{
closed = 1;
nodes = (
(185,-28,o),
(118,-16,o),
(118,65,cs),
(118,134,o),
(179,150,o),
(232,150,cs),
(286,150,o),
(333,131,o),
(370,110,c),
(370,19,l),
(337,-5,o),
(289,-28,o),
(236,-28,cs)
);
},
{
closed = 1;
nodes = (
(178,322,o),
(109,327,o),
(109,411,cs),
(109,494,o),
(182,500,o),
(240,500,cs),
(288,500,o),
(334,486,o),
(370,466,c),
(370,371,l),
(330,336,o),
(286,322,o),
(231,322,cs)
);
}
);
vertWidth = 0;
width = 521;
}
);
},
{
color = 0;
glyphname = uniA81DuniA81B;
layers = (
{
.lastUpdate = 762325547.735;
anchors = (
{
name = Anchor2;
pos = (617,725);
},
{
name = Anchor3;
pos = (381,725);
},
{
name = Anchor4;
pos = (623,-98);
},
{
name = Anchor5;
pos = (659,-119);
}
);
background = {
anchors = (
{
name = Anchor2;
pos = (617,725);
},
{
name = Anchor3;
pos = (381,725);
},
{
name = Anchor4;
pos = (623,-98);
}
);
shapes = (
{
closed = 1;
nodes = (
(658,-119,l),
(658,611,l),
(743,611,l),
(743,679,l),
(-17,679,l),
(-17,611,l),
(33,611,l),
(95,558,o),
(144,515,o),
(183,480,c),
(117,421,o),
(90,371,o),
(90,309,cs),
(90,242,o),
(139,182,o),
(227,182,cs),
(312,182,o),
(367,234,o),
(367,307,cs),
(367,369,o),
(342,412,o),
(276,479,c),
(324,517,o),
(388,559,o),
(470,611,c),
(582,611,l),
(582,174,l),
(538,194,o),
(499,208,o),
(451,208,cs),
(367,208,o),
(272,173,o),
(272,59,cs),
(272,-60,o),
(365,-100,o),
(449,-100,cs),
(504,-100,o),
(543,-89,o),
(582,-66,c),
(582,-119,l)
);
},
{
closed = 1;
nodes = (
(401,-34,o),
(346,-17,o),
(346,59,cs),
(346,125,o),
(403,144,o),
(454,144,cs),
(501,144,o),
(543,129,o),
(582,107,c),
(582,9,l),
(548,-17,o),
(512,-34,o),
(458,-34,cs)
);
},
{
closed = 1;
nodes = (
(181,244,o),
(162,281,o),
(162,316,cs),
(162,355,o),
(182,393,o),
(227,437,c),
(275,387,o),
(297,352,o),
(297,314,cs),
(297,269,o),
(265,244,o),
(227,244,cs)
);
},
{
closed = 1;
nodes = (
(206,547,o),
(173,576,o),
(136,611,c),
(356,611,l),
(308,577,o),
(267,548,o),
(233,521,c)
);
}
);
};
layerId = UUID0;
shapes = (
{
closed = 1;
nodes = (
(658,-119,l),
(658,611,l),
(743,611,l),
(743,679,l),
(-17,679,l),
(-17,611,l),
(33,611,l),
(95,558,o),
(144,515,o),
(183,480,c),
(117,421,o),
(90,371,o),
(90,309,cs),
(90,242,o),
(139,182,o),
(227,182,cs),
(312,182,o),
(367,234,o),
(367,307,cs),
(367,369,o),
(342,412,o),
(276,479,c),
(324,517,o),
(388,559,o),
(470,611,c),
(582,611,l),
(582,174,l),
(538,194,o),
(499,208,o),
(451,208,cs),
(367,208,o),
(272,173,o),
(272,59,cs),
(272,-60,o),
(365,-100,o),
(449,-100,cs),
(504,-100,o),
(543,-89,o),
(582,-66,c),
(582,-119,l)
);
},
{
closed = 1;
nodes = (
(401,-34,o),
(346,-17,o),
(346,59,cs),
(346,125,o),
(403,144,o),
(454,144,cs),
(501,144,o),
(543,129,o),
(582,107,c),
(582,9,l),
(548,-17,o),
(512,-34,o),
(458,-34,cs)
);
},
{
closed = 1;
nodes = (
(181,244,o),
(162,281,o),
(162,316,cs),
(162,355,o),
(182,393,o),
(227,437,c),
(275,387,o),
(297,352,o),
(297,314,cs),
(297,269,o),
(265,244,o),
(227,244,cs)
);
},
{
closed = 1;
nodes = (
(206,547,o),
(173,576,o),
(136,611,c),
(356,611,l),
(308,577,o),
(267,548,o),
(233,521,c)
);
}
);
vertWidth = 0;
width = 737;
}
);
},
{
color = 0;
glyphname = uniA81DuniA81D;
layers = (
{
.lastUpdate = 762320681.03;
anchors = (
{
name = Anchor2;
pos = (666,725);
},
{
name = Anchor3;
pos = (402,725);
},
{
name = Anchor4;
pos = (671,-99);
},
{
name = Anchor5;
pos = (710,-99);
}
);
background = {
anchors = (
{
name = Anchor2;
pos = (666,725);
},
{
name = Anchor3;
pos = (402,725);
},
{
name = Anchor4;
pos = (671,-98);
}
);
shapes = (
{
closed = 1;
nodes = (
(710,-99,l),
(710,611,l),
(796,611,l),
(796,679,l),
(-5,679,l),
(-5,611,l),
(20,611,l),
(82,558,o),
(126,515,o),
(165,480,c),
(99,421,o),
(72,371,o),
(72,309,cs),
(72,242,o),
(121,182,o),
(209,182,cs),
(265,182,o),
(307,204,o),
(329,240,c),
(346,227,o),
(361,214,o),
(375,203,c),
(313,146,o),
(286,97,o),
(286,36,cs),
(286,-30,o),
(335,-91,o),
(423,-91,cs),
(508,-91,o),
(562,-38,o),
(562,34,cs),
(562,98,o),
(539,136,o),
(468,203,c),
(510,236,o),
(565,274,o),
(634,318,c),
(634,-99,l)
);
},
{
closed = 1;
nodes = (
(377,-28,o),
(357,8,o),
(357,43,cs),
(357,82,o),
(377,119,o),
(421,162,c),
(474,113,o),
(493,80,o),
(493,41,cs),
(493,-4,o),
(460,-28,o),
(423,-28,cs)
);
},
{
closed = 1;
nodes = (
(162,244,o),
(143,281,o),
(143,316,cs),
(143,355,o),
(163,393,o),
(209,437,c),
(257,388,o),
(279,352,o),
(279,314,cs),
(279,269,o),
(246,244,o),
(209,244,cs)
);
},
{
closed = 1;
nodes = (
(187,547,o),
(156,576,o),
(118,611,c),
(338,611,l),
(289,577,o),
(249,548,o),
(214,521,c)
);
},
{
closed = 1;
nodes = (
(401,263,o),
(376,284,o),
(348,309,c),
(347,370,o),
(323,412,o),
(258,479,c),
(306,517,o),
(369,560,o),
(451,611,c),
(634,611,l),
(634,393,l),
(545,333,o),
(475,285,o),
(423,244,c)
);
}
);
};
layerId = UUID0;
shapes = (
{
closed = 1;
nodes = (
(710,-99,l),
(710,611,l),
(796,611,l),
(796,679,l),
(-5,679,l),
(-5,611,l),
(20,611,l),
(82,558,o),
(126,515,o),
(165,480,c),
(99,421,o),
(72,371,o),
(72,309,cs),
(72,242,o),
(121,182,o),
(209,182,cs),
(265,182,o),
(307,204,o),
(329,240,c),
(346,227,o),
(361,214,o),
(375,203,c),
(313,146,o),
(286,97,o),
(286,36,cs),
(286,-30,o),
(335,-91,o),
(423,-91,cs),
(508,-91,o),
(562,-38,o),
(562,34,cs),
(562,98,o),
(539,136,o),
(468,203,c),
(510,236,o),
(565,274,o),
(634,318,c),
(634,-99,l)
);
},
{
closed = 1;
nodes = (
(377,-28,o),
(357,8,o),
(357,43,cs),
(357,82,o),
(377,119,o),
(421,162,c),
(474,113,o),
(493,80,o),
(493,41,cs),
(493,-4,o),
(460,-28,o),
(423,-28,cs)
);
},
{
closed = 1;
nodes = (
(162,244,o),
(143,281,o),
(143,316,cs),
(143,355,o),
(163,393,o),
(209,437,c),
(257,388,o),
(279,352,o),
(279,314,cs),
(279,269,o),
(246,244,o),
(209,244,cs)
);
},
{
closed = 1;
nodes = (
(187,547,o),
(156,576,o),
(118,611,c),
(338,611,l),
(289,577,o),
(249,548,o),
(214,521,c)
);
},
{
closed = 1;
nodes = (
(401,263,o),
(376,284,o),
(348,309,c),
(347,370,o),
(323,412,o),
(258,479,c),
(306,517,o),
(369,560,o),
(451,611,c),
(634,611,l),
(634,393,l),
(545,333,o),
(475,285,o),
(423,244,c)
);
}
);
vertWidth = 0;
width = 788;
}
);
},
{
color = 0;
glyphname = uniA81EuniA81F;
layers = (
{
.lastUpdate = 762320685.98;
anchors = (
{
name = Anchor2;
pos = (542,725);
},
{
name = Anchor3;
pos = (327,725);
},
{
name = Anchor4;
pos = (548,-99);
},
{
name = Anchor5;
pos = (585,-99);
}
);
background = {
anchors = (
{
name = Anchor2;
pos = (542,725);
},
{
name = Anchor3;
pos = (327,725);
},
{
name = Anchor4;
pos = (548,-98);
}
);
shapes = (
{
closed = 1;
nodes = (
(585,-99,l),
(585,611,l),
(670,611,l),
(670,679,l),
(-17,679,l),
(-17,611,l),
(439,611,l),
(366,552,o),
(298,493,o),
(222,420,cs),
(185,384,o),
(168,369,o),
(142,369,cs),
(125,369,o),
(107,377,o),
(88,399,c),
(34,346,l),
(65,304,o),
(98,290,o),
(136,290,cs),
(195,290,o),
(230,325,o),
(283,379,cs),
(364,462,o),
(430,518,o),
(506,576,c),
(509,573,l),
(509,458,l),
(407,379,o),
(336,310,o),
(244,215,cs),
(208,178,o),
(189,159,o),
(164,159,cs),
(146,159,o),
(128,167,o),
(109,189,c),
(55,136,l),
(86,94,o),
(119,80,o),
(157,80,cs),
(216,80,o),
(255,119,o),
(305,174,cs),
(382,260,o),
(438,313,o),
(509,369,c),
(509,-99,l)
);
},
{
closed = 1;
nodes = (
(411,-135,l),
(372,-111,o),
(347,-77,o),
(347,-22,cs),
(347,48,o),
(395,92,o),
(448,129,c),
(411,180,l),
(350,136,o),
(277,73,o),
(277,-26,cs),
(277,-107,o),
(321,-164,o),
(367,-191,c)
);
}
);
};
layerId = UUID0;
shapes = (
{
closed = 1;
nodes = (
(585,-99,l),
(585,611,l),
(670,611,l),
(670,679,l),
(-17,679,l),
(-17,611,l),
(439,611,l),
(366,552,o),
(298,493,o),
(222,420,cs),
(185,384,o),
(168,369,o),
(142,369,cs),
(125,369,o),
(107,377,o),
(88,399,c),
(34,346,l),
(65,304,o),
(98,290,o),
(136,290,cs),
(195,290,o),
(230,325,o),
(283,379,cs),
(364,462,o),
(430,518,o),
(506,576,c),
(509,573,l),
(509,458,l),
(407,379,o),
(336,310,o),
(244,215,cs),
(208,178,o),
(189,159,o),
(164,159,cs),
(146,159,o),
(128,167,o),
(109,189,c),
(55,136,l),
(86,94,o),
(119,80,o),
(157,80,cs),
(216,80,o),
(255,119,o),
(305,174,cs),
(382,260,o),
(438,313,o),
(509,369,c),
(509,-99,l)
);
},
{
closed = 1;
nodes = (
(411,-135,l),
(372,-111,o),
(347,-77,o),
(347,-22,cs),
(347,48,o),
(395,92,o),
(448,129,c),
(411,180,l),
(350,136,o),
(277,73,o),
(277,-26,cs),
(277,-107,o),
(321,-164,o),
(367,-191,c)
);
}
);
vertWidth = 0;
width = 663;
}
);
},
{
color = 0;
glyphname = uniA821uniA807;
layers = (
{
.lastUpdate = 762320691.321;
anchors = (
{
name = Anchor2;
pos = (1213,725);
},
{
name = Anchor3;
pos = (703,725);
},
{
name = Anchor4;
pos = (1214,0);
},
{
name = Anchor5;
pos = (1251,0);
}
);
background = {
anchors = (
{
name = Anchor2;
pos = (1213,725);
},
{
name = Anchor3;
pos = (703,725);
},
{
name = Anchor4;
pos = (1214,0);
}
);
shapes = (
{
closed = 1;
nodes = (
(394,5,l),
(342,123,o),
(250,198,o),
(175,219,c),
(176,223,l),
(252,228,o),
(318,264,o),
(351,316,c),
(401,362,o),
(454,407,o),
(511,450,c),
(511,95,l),
(583,62,l),
(669,162,o),
(751,242,o),
(829,306,c),
(829,0,l),
(904,0,l),
(904,366,l),
(1004,440,o),
(1095,489,o),
(1173,523,c),
(1176,522,l),
(1176,0,l),
(1251,0,l),
(1251,611,l),
(1326,611,l),
(1326,679,l),
(-7,679,l),
(-7,611,l),
(511,611,l),
(511,537,l),
(459,498,o),
(411,461,o),
(370,426,c),
(355,511,o),
(290,562,o),
(218,562,cs),
(155,562,o),
(86,539,o),
(34,495,c),
(80,434,l),
(133,481,o),
(178,493,o),
(216,493,cs),
(265,493,o),
(299,454,o),
(299,393,cs),
(299,312,o),
(165,279,o),
(65,270,c),
(65,196,l),
(139,179,o),
(259,130,o),
(320,-31,c)
);
},
{
closed = 1;
nodes = (
(588,190,l),
(588,611,l),
(829,611,l),
(829,403,l),
(750,343,o),
(670,273,o),
(592,189,c)
);
},
{
closed = 1;
nodes = (
(904,611,l),
(1178,611,l),
(1093,570,o),
(1000,521,o),
(904,456,c)
);
}
);
};
layerId = UUID0;
shapes = (
{
closed = 1;
nodes = (
(394,5,l),
(342,123,o),
(250,198,o),
(175,219,c),
(176,223,l),
(252,228,o),
(318,264,o),
(351,316,c),
(401,362,o),
(454,407,o),
(511,450,c),
(511,95,l),
(583,62,l),
(669,162,o),
(751,242,o),
(829,306,c),
(829,0,l),
(904,0,l),
(904,366,l),
(1004,440,o),
(1095,489,o),
(1173,523,c),
(1176,522,l),
(1176,0,l),
(1251,0,l),
(1251,611,l),
(1326,611,l),
(1326,679,l),
(-7,679,l),
(-7,611,l),
(511,611,l),
(511,537,l),
(459,498,o),
(411,461,o),
(370,426,c),
(355,511,o),
(290,562,o),
(218,562,cs),
(155,562,o),
(86,539,o),
(34,495,c),
(80,434,l),
(133,481,o),
(178,493,o),
(216,493,cs),
(265,493,o),
(299,454,o),
(299,393,cs),
(299,312,o),
(165,279,o),
(65,270,c),
(65,196,l),
(139,179,o),
(259,130,o),
(320,-31,c)
);
},
{
closed = 1;
nodes = (
(588,190,l),
(588,611,l),
(829,611,l),
(829,403,l),
(750,343,o),
(670,273,o),
(592,189,c)
);
},
{
closed = 1;
nodes = (
(904,611,l),
(1178,611,l),
(1093,570,o),
(1000,521,o),
(904,456,c)
);
}
);
vertWidth = 0;
width = 1321;
}
);
},
{
color = 0;
glyphname = uniA821uniA80C;
layers = (
{
.lastUpdate = 762320696.687;
anchors = (
{
name = Anchor2;
pos = (751,725);
},
{
name = Anchor3;
pos = (402,725);
},
{
name = Anchor4;
pos = (747,0);
},
{
name = Anchor5;
pos = (775,0);
}
);
background = {
anchors = (
{
name = Anchor2;
pos = (751,725);
},
{
name = Anchor3;
pos = (402,725);
},
{
name = Anchor4;
pos = (747,0);
}
);
shapes = (
{
closed = 1;
nodes = (
(394,5,l),
(342,123,o),
(250,198,o),
(175,219,c),
(176,223,l),
(248,228,o),
(313,261,o),
(347,309,c),
(443,386,o),
(595,470,o),
(696,518,c),
(699,517,l),
(699,361,l),
(535,361,o),
(454,323,o),
(364,230,c),
(447,111,o),
(562,77,o),
(699,72,c),
(699,0,l),
(775,0,l),
(775,611,l),
(860,611,l),
(860,679,l),
(-17,679,l),
(-17,611,l),
(701,611,l),
(590,550,o),
(462,479,o),
(372,417,c),
(361,507,o),
(292,562,o),
(218,562,cs),
(155,562,o),
(86,539,o),
(34,495,c),
(80,434,l),
(133,481,o),
(178,493,o),
(216,493,cs),
(265,493,o),
(299,454,o),
(299,393,cs),
(299,312,o),
(165,279,o),
(65,270,c),
(65,196,l),
(139,179,o),
(259,130,o),
(320,-31,c)
);
},
{
closed = 1;
nodes = (
(573,144,o),
(509,163,o),
(460,221,c),
(508,274,o),
(573,291,o),
(652,291,cs),
(668,291,o),
(683,291,o),
(699,289,c),
(699,145,l),
(687,144,o),
(675,144,o),
(664,144,cs)
);
}
);
};
layerId = UUID0;
shapes = (
{
closed = 1;
nodes = (
(394,5,l),
(342,123,o),
(250,198,o),
(175,219,c),
(176,223,l),
(248,228,o),
(313,261,o),
(347,309,c),
(443,386,o),
(595,470,o),
(696,518,c),
(699,517,l),
(699,361,l),
(535,361,o),
(454,323,o),
(364,230,c),
(447,111,o),
(562,77,o),
(699,72,c),
(699,0,l),
(775,0,l),
(775,611,l),
(860,611,l),
(860,679,l),
(-17,679,l),
(-17,611,l),
(701,611,l),
(590,550,o),
(462,479,o),
(372,417,c),
(361,507,o),
(292,562,o),
(218,562,cs),
(155,562,o),
(86,539,o),
(34,495,c),
(80,434,l),
(133,481,o),
(178,493,o),
(216,493,cs),
(265,493,o),
(299,454,o),
(299,393,cs),
(299,312,o),
(165,279,o),
(65,270,c),
(65,196,l),
(139,179,o),
(259,130,o),
(320,-31,c)
);
},
{
closed = 1;
nodes = (
(573,144,o),
(509,163,o),
(460,221,c),
(508,274,o),
(573,291,o),
(652,291,cs),
(668,291,o),
(683,291,o),
(699,289,c),
(699,145,l),
(687,144,o),
(675,144,o),
(664,144,cs)
);
}
);
vertWidth = 0;
width = 851;
}
);
},
{
color = 0;
glyphname = uniA821uniA80D;
layers = (
{
.lastUpdate = 762320727.71;
anchors = (
{
name = Anchor2;
pos = (542,725);
},
{
name = Anchor3;
pos = (547,725);
},
{
name = Anchor4;
pos = (967,-69);
},
{
name = Anchor5;
pos = (1043,-69);
}
);
background = {
anchors = (
{
name = Anchor2;
pos = (542,725);
},
{
name = Anchor3;
pos = (547,725);
},
{
name = Anchor4;
pos = (967,-69);
}
);
shapes = (
{
closed = 1;
nodes = (
(724,-27,o),
(796,50,o),
(850,91,c),
(850,46,ls),
(850,-11,o),
(857,-82,o),
(956,-82,cs),
(1045,-82,o),
(1117,17,o),
(1117,80,cs),
(1117,149,o),
(1073,195,o),
(975,195,cs),
(958,195,o),
(941,192,o),
(924,188,c),
(924,457,l),
(840,490,l),
(742,421,o),
(691,384,o),
(592,275,c),
(588,276,l),
(588,611,l),
(1172,611,l),
(1172,679,l),
(-8,679,l),
(-8,611,l),
(511,611,l),
(511,537,l),
(459,498,o),
(411,461,o),
(370,426,c),
(355,511,o),
(290,562,o),
(218,562,cs),
(155,562,o),
(86,539,o),
(34,495,c),
(80,434,l),
(133,481,o),
(178,493,o),
(216,493,cs),
(265,493,o),
(299,454,o),
(299,393,cs),
(299,312,o),
(165,279,o),
(65,270,c),
(65,196,l),
(139,179,o),
(259,130,o),
(320,-31,c),
(394,5,l),
(342,123,o),
(250,198,o),
(175,219,c),
(176,223,l),
(252,228,o),
(318,264,o),
(351,316,c),
(401,362,o),
(454,407,o),
(511,450,c),
(511,176,l),
(591,143,l),
(691,304,o),
(805,378,o),
(847,405,c),
(850,404,l),
(850,166,l),
(765,119,o),
(664,23,o),
(615,-122,c),
(683,-147,l)
);
},
{
closed = 1;
nodes = (
(928,-12,o),
(924,7,o),
(924,44,cs),
(924,126,l),
(941,131,o),
(957,133,o),
(973,133,cs),
(1024,133,o),
(1041,106,o),
(1041,79,cs),
(1041,35,o),
(1004,-12,o),
(957,-12,cs)
);
}
);
};
layerId = UUID0;
shapes = (
{
closed = 1;
nodes = (
(724,-27,o),
(796,50,o),
(850,91,c),
(850,46,ls),
(850,-11,o),
(857,-82,o),
(956,-82,cs),
(1045,-82,o),
(1117,17,o),
(1117,80,cs),
(1117,149,o),
(1073,195,o),
(975,195,cs),
(958,195,o),
(941,192,o),
(924,188,c),
(924,457,l),
(840,490,l),
(742,421,o),
(691,384,o),
(592,275,c),
(588,276,l),
(588,611,l),
(1172,611,l),
(1172,679,l),
(-8,679,l),
(-8,611,l),
(511,611,l),
(511,537,l),
(459,498,o),
(411,461,o),
(370,426,c),
(355,511,o),
(290,562,o),
(218,562,cs),
(155,562,o),
(86,539,o),
(34,495,c),
(80,434,l),
(133,481,o),
(178,493,o),
(216,493,cs),
(265,493,o),
(299,454,o),
(299,393,cs),
(299,312,o),
(165,279,o),
(65,270,c),
(65,196,l),
(139,179,o),
(259,130,o),
(320,-31,c),
(394,5,l),
(342,123,o),
(250,198,o),
(175,219,c),
(176,223,l),
(252,228,o),
(318,264,o),
(351,316,c),
(401,362,o),
(454,407,o),
(511,450,c),
(511,176,l),
(591,143,l),
(691,304,o),
(805,378,o),
(847,405,c),
(850,404,l),
(850,166,l),
(765,119,o),
(664,23,o),
(615,-122,c),
(683,-147,l)
);
},
{
closed = 1;
nodes = (
(928,-12,o),
(924,7,o),
(924,44,cs),
(924,126,l),
(941,131,o),
(957,133,o),
(973,133,cs),
(1024,133,o),
(1041,106,o),
(1041,79,cs),
(1041,35,o),
(1004,-12,o),
(957,-12,cs)
);
}
);
vertWidth = 0;
width = 1165;
}
);
},
{
color = 0;
glyphname = uniA821uniA814;
layers = (
{
anchors = (
{
name = Anchor2;
pos = (735,725);
},
{
name = Anchor3;
pos = (402,725);
},
{
name = Anchor4;
pos = (741,0);
},
{
name = Anchor5;
pos = (775,0);
}
);
background = {
anchors = (
{
name = Anchor2;
pos = (735,725);
},
{
name = Anchor3;
pos = (402,725);
},
{
name = Anchor4;
pos = (741,0);
}
);
shapes = (
{
closed = 1;
nodes = (
(530,-9,o),
(560,57,o),
(560,109,cs),
(560,145,o),
(550,176,o),
(524,211,c),
(526,214,l),
(559,204,o),
(592,199,o),
(623,199,cs),
(652,199,o),
(676,203,o),
(699,211,c),
(699,0,l),
(775,0,l),
(775,611,l),
(860,611,l),
(860,679,l),
(-17,679,l),
(-17,611,l),
(701,611,l),
(590,550,o),
(462,479,o),
(372,417,c),
(361,507,o),
(292,562,o),
(218,562,cs),
(155,562,o),
(86,539,o),
(34,495,c),
(80,434,l),
(133,481,o),
(178,493,o),
(216,493,cs),
(265,493,o),
(299,454,o),
(299,393,cs),
(299,312,o),
(165,279,o),
(65,270,c),
(65,196,l),
(139,179,o),
(248,130,o),
(310,-31,c),
(384,5,l),
(332,123,o),
(250,198,o),
(175,219,c),
(176,223,l),
(248,228,o),
(313,261,o),
(347,309,c),
(443,386,o),
(595,470,o),
(696,518,c),
(699,517,l),
(699,286,l),
(667,273,o),
(639,266,o),
(602,266,cs),
(555,266,o),
(512,273,o),
(463,298,c),
(424,235,l),
(471,202,o),
(486,164,o),
(486,123,cs),
(486,83,o),
(462,32,o),
(423,-10,c),
(486,-59,l)
);
}
);
};
layerId = UUID0;
shapes = (
{
closed = 1;
nodes = (
(530,-9,o),
(560,57,o),
(560,109,cs),
(560,145,o),
(550,176,o),
(524,211,c),
(526,214,l),
(559,204,o),
(592,199,o),
(623,199,cs),
(652,199,o),
(676,203,o),
(699,211,c),
(699,0,l),
(775,0,l),
(775,611,l),
(860,611,l),
(860,679,l),
(-17,679,l),
(-17,611,l),
(701,611,l),
(590,550,o),
(462,479,o),
(372,417,c),
(361,507,o),
(292,562,o),
(218,562,cs),
(155,562,o),
(86,539,o),
(34,495,c),
(80,434,l),
(133,481,o),
(178,493,o),
(216,493,cs),
(265,493,o),
(299,454,o),
(299,393,cs),
(299,312,o),
(165,279,o),
(65,270,c),
(65,196,l),
(139,179,o),
(248,130,o),
(310,-31,c),
(384,5,l),
(332,123,o),
(250,198,o),
(175,219,c),
(176,223,l),
(248,228,o),
(313,261,o),
(347,309,c),
(443,386,o),
(595,470,o),
(696,518,c),
(699,517,l),
(699,286,l),
(667,273,o),
(639,266,o),
(602,266,cs),
(555,266,o),
(512,273,o),
(463,298,c),
(424,235,l),
(471,202,o),
(486,164,o),
(486,123,cs),
(486,83,o),
(462,32,o),
(423,-10,c),
(486,-59,l)
);
}
);
vertWidth = 0;
width = 851;
}
);
},
{
color = 0;
glyphname = uniA821uniA81B;
layers = (
{
anchors = (
{
name = Anchor2;
pos = (741,725);
},
{
name = Anchor3;
pos = (402,725);
},
{
name = Anchor4;
pos = (741,0);
},
{
name = Anchor5;
pos = (775,0);
}
);
background = {
anchors = (
{
name = Anchor2;
pos = (741,725);
},
{
name = Anchor3;
pos = (402,725);
},
{
name = Anchor4;
pos = (741,0);
}
);
shapes = (
{
closed = 1;
nodes = (
(394,5,l),
(342,123,o),
(250,198,o),
(175,219,c),
(176,223,l),
(248,228,o),
(313,261,o),
(347,309,c),
(443,386,o),
(595,470,o),
(696,518,c),
(699,517,l),
(699,312,l),
(656,332,o),
(616,346,o),
(569,346,cs),
(484,346,o),
(389,310,o),
(389,196,cs),
(389,75,o),
(487,35,o),
(573,35,cs),
(626,35,o),
(662,51,o),
(699,74,c),
(699,0,l),
(775,0,l),
(775,611,l),
(860,611,l),
(860,679,l),
(-17,679,l),
(-17,611,l),
(701,611,l),
(590,550,o),
(462,479,o),
(372,417,c),
(361,507,o),
(292,562,o),
(218,562,cs),
(155,562,o),
(86,539,o),
(34,495,c),
(80,434,l),
(133,481,o),
(178,493,o),
(216,493,cs),
(265,493,o),
(299,454,o),
(299,393,cs),
(299,312,o),
(165,279,o),
(65,270,c),
(65,196,l),
(139,179,o),
(259,130,o),
(320,-31,c)
);
},
{
closed = 1;
nodes = (
(525,102,o),
(466,118,o),
(466,196,cs),
(466,266,o),
(523,282,o),
(577,282,cs),
(626,282,o),
(663,269,o),
(699,247,c),
(699,144,l),
(666,118,o),
(626,102,o),
(576,102,cs)
);
}
);
};
layerId = UUID0;
shapes = (
{
closed = 1;
nodes = (
(394,5,l),
(342,123,o),
(250,198,o),
(175,219,c),
(176,223,l),
(248,228,o),
(313,261,o),
(347,309,c),
(443,386,o),
(595,470,o),
(696,518,c),
(699,517,l),
(699,312,l),
(656,332,o),
(616,346,o),
(569,346,cs),
(484,346,o),
(389,310,o),
(389,196,cs),
(389,75,o),
(487,35,o),
(573,35,cs),
(626,35,o),
(662,51,o),
(699,74,c),
(699,0,l),
(775,0,l),
(775,611,l),
(860,611,l),
(860,679,l),
(-17,679,l),
(-17,611,l),
(701,611,l),
(590,550,o),
(462,479,o),
(372,417,c),
(361,507,o),
(292,562,o),
(218,562,cs),
(155,562,o),
(86,539,o),
(34,495,c),
(80,434,l),
(133,481,o),
(178,493,o),
(216,493,cs),
(265,493,o),
(299,454,o),
(299,393,cs),
(299,312,o),
(165,279,o),
(65,270,c),
(65,196,l),
(139,179,o),
(259,130,o),
(320,-31,c)
);
},
{
closed = 1;
nodes = (
(525,102,o),
(466,118,o),
(466,196,cs),
(466,266,o),
(523,282,o),
(577,282,cs),
(626,282,o),
(663,269,o),
(699,247,c),
(699,144,l),
(666,118,o),
(626,102,o),
(576,102,cs)
);
}
);
vertWidth = 0;
width = 851;
}
);
},
{
glyphname = uni2010;
layers = (
{
background = {
shapes = (
{
closed = 1;
nodes = (
(282,307,l),
(40,307,l),
(40,229,l),
(282,229,l)
);
}
);
};
layerId = UUID0;
shapes = (
{
closed = 1;
nodes = (
(282,307,l),
(40,307,l),
(40,229,l),
(282,229,l)
);
}
);
vertWidth = 0;
width = 322;
}
);
note = uni2010;
unicode = 8208;
},
{
glyphname = uni2011;
layers = (
{
background = {
shapes = (
{
closed = 1;
nodes = (
(282,307,l),
(40,307,l),
(40,229,l),
(282,229,l)
);
}
);
};
layerId = UUID0;
shapes = (
{
closed = 1;
nodes = (
(282,307,l),
(40,307,l),
(40,229,l),
(282,229,l)
);
}
);
vertWidth = 0;
width = 322;
}
);
note = uni2011;
unicode = 8209;
},
{
glyphname = uni2055;
layers = (
{
background = {
shapes = (
{
closed = 1;
nodes = (
(380,59,o),
(398,101,o),
(398,153,cs),
(398,179,o),
(393,206,o),
(387,230,c),
(420,202,o),
(475,167,o),
(518,167,cs),
(566,167,o),
(596,221,o),
(596,263,cs),
(596,301,o),
(568,324,o),
(531,338,cs),
(511,346,o),
(487,350,o),
(465,353,c),
(526,369,o),
(594,403,o),
(594,459,cs),
(594,503,o),
(553,549,o),
(513,549,cs),
(468,549,o),
(419,510,o),
(387,474,c),
(393,497,o),
(398,525,o),
(398,550,cs),
(398,603,o),
(380,645,o),
(313,645,cs),
(248,645,o),
(229,603,o),
(229,549,cs),
(229,524,o),
(234,497,o),
(240,474,c),
(222,493,o),
(198,515,o),
(174,530,cs),
(155,542,o),
(135,549,o),
(115,549,cs),
(76,549,o),
(33,503,o),
(33,459,cs),
(33,403,o),
(105,367,o),
(162,353,c),
(98,346,o),
(31,321,o),
(31,262,cs),
(31,212,o),
(69,167,o),
(109,167,cs),
(126,167,o),
(140,172,o),
(157,179,cs),
(188,191,o),
(217,212,o),
(240,229,c),
(234,207,o),
(229,179,o),
(229,154,cs),
(229,101,o),
(248,59,o),
(313,59,cs)
);
},
{
closed = 1;
nodes = (
(98,232,o),
(91,240,o),
(91,252,cs),
(91,279,o),
(145,285,o),
(199,300,c),
(202,291,o),
(206,284,o),
(212,276,c),
(189,263,o),
(129,232,o),
(110,232,cs)
);
},
{
closed = 1;
nodes = (
(297,115,o),
(291,133,o),
(291,154,cs),
(291,179,o),
(295,208,o),
(299,229,c),
(303,229,o),
(308,228,o),
(312,228,cs),
(317,228,o),
(322,228,o),
(327,229,c),
(331,207,o),
(336,178,o),
(336,153,cs),
(336,133,o),
(330,115,o),
(313,115,cs)
);
},
{
closed = 1;
nodes = (
(155,421,o),
(94,442,o),
(94,467,cs),
(94,478,o),
(103,485,o),
(113,485,cs),
(142,485,o),
(192,438,o),
(214,417,c),
(210,413,o),
(206,408,o),
(203,402,c)
);
},
{
closed = 1;
nodes = (
(278,286,o),
(254,313,o),
(254,345,cs),
(254,378,o),
(278,404,o),
(311,404,cs),
(345,404,o),
(372,378,o),
(372,345,cs),
(372,313,o),
(345,286,o),
(311,286,cs)
);
},
{
closed = 1;
nodes = (
(496,232,o),
(441,262,o),
(416,280,c),
(422,286,o),
(426,292,o),
(429,299,c),
(480,287,o),
(536,279,o),
(536,252,cs),
(536,239,o),
(526,232,o),
(518,232,cs)
);
},
{
closed = 1;
nodes = (
(297,485,o),
(291,520,o),
(291,549,cs),
(291,571,o),
(297,589,o),
(313,589,cs),
(330,589,o),
(336,571,o),
(336,550,cs),
(336,520,o),
(329,485,o),
(324,462,c),
(320,463,o),
(317,463,o),
(311,463,cs),
(308,463,o),
(305,462,o),
(301,462,c)
);
},
{
closed = 1;
nodes = (
(422,407,o),
(416,415,o),
(410,421,c),
(427,435,o),
(457,459,o),
(486,476,cs),
(496,482,o),
(508,485,o),
(515,485,cs),
(524,485,o),
(533,478,o),
(533,467,cs),
(533,456,o),
(523,447,o),
(511,440,cs),
(483,424,o),
(450,409,o),
(426,399,c)
);
}
);
};
layerId = UUID0;
shapes = (
{
closed = 1;
nodes = (
(380,59,o),
(398,101,o),
(398,153,cs),
(398,179,o),
(393,206,o),
(387,230,c),
(420,202,o),
(475,167,o),
(518,167,cs),
(566,167,o),
(596,221,o),
(596,263,cs),
(596,301,o),
(568,324,o),
(531,338,cs),
(511,346,o),
(487,350,o),
(465,353,c),
(526,369,o),
(594,403,o),
(594,459,cs),
(594,503,o),
(553,549,o),
(513,549,cs),
(468,549,o),
(419,510,o),
(387,474,c),
(393,497,o),
(398,525,o),
(398,550,cs),
(398,603,o),
(380,645,o),
(313,645,cs),
(248,645,o),
(229,603,o),
(229,549,cs),
(229,524,o),
(234,497,o),
(240,474,c),
(222,493,o),
(198,515,o),
(174,530,cs),
(155,542,o),
(135,549,o),
(115,549,cs),
(76,549,o),
(33,503,o),
(33,459,cs),
(33,403,o),
(105,367,o),
(162,353,c),
(98,346,o),
(31,321,o),
(31,262,cs),
(31,212,o),
(69,167,o),
(109,167,cs),
(126,167,o),
(140,172,o),
(157,179,cs),
(188,191,o),
(217,212,o),
(240,229,c),
(234,207,o),
(229,179,o),
(229,154,cs),
(229,101,o),
(248,59,o),
(313,59,cs)
);
},
{
closed = 1;
nodes = (
(98,232,o),
(91,240,o),
(91,252,cs),
(91,279,o),
(145,285,o),
(199,300,c),
(202,291,o),
(206,284,o),
(212,276,c),
(189,263,o),
(129,232,o),
(110,232,cs)
);
},
{
closed = 1;
nodes = (
(297,115,o),
(291,133,o),
(291,154,cs),
(291,179,o),
(295,208,o),
(299,229,c),
(303,229,o),
(308,228,o),
(312,228,cs),
(317,228,o),
(322,228,o),
(327,229,c),
(331,207,o),
(336,178,o),
(336,153,cs),
(336,133,o),
(330,115,o),
(313,115,cs)
);
},
{
closed = 1;
nodes = (
(155,421,o),
(94,442,o),
(94,467,cs),
(94,478,o),
(103,485,o),
(113,485,cs),
(142,485,o),
(192,438,o),
(214,417,c),
(210,413,o),
(206,408,o),
(203,402,c)
);
},
{
closed = 1;
nodes = (
(278,286,o),
(254,313,o),
(254,345,cs),
(254,378,o),
(278,404,o),
(311,404,cs),
(345,404,o),
(372,378,o),
(372,345,cs),
(372,313,o),
(345,286,o),
(311,286,cs)
);
},
{
closed = 1;
nodes = (
(496,232,o),
(441,262,o),
(416,280,c),
(422,286,o),
(426,292,o),
(429,299,c),
(480,287,o),
(536,279,o),
(536,252,cs),
(536,239,o),
(526,232,o),
(518,232,cs)
);
},
{
closed = 1;
nodes = (
(297,485,o),
(291,520,o),
(291,549,cs),
(291,571,o),
(297,589,o),
(313,589,cs),
(330,589,o),
(336,571,o),
(336,550,cs),
(336,520,o),
(329,485,o),
(324,462,c),
(320,463,o),
(317,463,o),
(311,463,cs),
(308,463,o),
(305,462,o),
(301,462,c)
);
},
{
closed = 1;
nodes = (
(422,407,o),
(416,415,o),
(410,421,c),
(427,435,o),
(457,459,o),
(486,476,cs),
(496,482,o),
(508,485,o),
(515,485,cs),
(524,485,o),
(533,478,o),
(533,467,cs),
(533,456,o),
(523,447,o),
(511,440,cs),
(483,424,o),
(450,409,o),
(426,399,c)
);
}
);
vertWidth = 0;
width = 639;
}
);
unicode = 8277;
},
{
glyphname = uni25CC;
layers = (
{
anchors = (
{
name = Anchor2;
pos = (317,641);
},
{
name = Anchor3;
pos = (314,650);
},
{
name = Anchor4;
pos = (380,0);
},
{
name = Anchor6;
pos = (314,647);
},
{
name = bottom;
pos = (298,-27);
},
{
name = top;
pos = (319,648);
}
);
background = {
anchors = (
{
name = Anchor2;
pos = (317,641);
},
{
name = Anchor3;
pos = (314,650);
},
{
name = Anchor4;
pos = (380,0);
},
{
name = Anchor6;
pos = (314,647);
},
{
name = bottom;
pos = (298,-27);
},
{
name = top;
pos = (319,648);
}
);
shapes = (
{
closed = 1;
nodes = (
(480,466,o),
(472,475,o),
(455,475,cs),
(437,475,o),
(428,466,o),
(428,448,cs),
(428,431,o),
(437,422,o),
(455,422,cs),
(472,422,o),
(480,431,o),
(480,448,cs)
);
},
{
closed = 1;
nodes = (
(408,514,o),
(400,523,o),
(383,523,cs),
(364,523,o),
(355,514,o),
(355,496,cs),
(355,479,o),
(364,470,o),
(383,470,cs),
(400,470,o),
(408,479,o),
(408,496,cs)
);
},
{
closed = 1;
nodes = (
(529,393,o),
(520,402,o),
(503,402,cs),
(485,402,o),
(476,393,o),
(476,376,cs),
(476,358,o),
(485,349,o),
(502,349,cs),
(520,349,o),
(529,358,o),
(529,376,cs)
);
},
{
closed = 1;
nodes = (
(546,308,o),
(538,317,o),
(521,317,cs),
(503,317,o),
(494,308,o),
(494,291,cs),
(494,274,o),
(503,265,o),
(521,265,cs),
(538,265,o),
(546,274,o),
(546,291,cs)
);
},
{
closed = 1;
nodes = (
(323,531,o),
(314,540,o),
(297,540,cs),
(280,540,o),
(271,531,o),
(271,514,cs),
(271,496,o),
(280,487,o),
(297,487,cs),
(314,487,o),
(323,496,o),
(323,514,cs)
);
},
{
closed = 1;
nodes = (
(239,514,o),
(230,523,o),
(212,523,cs),
(195,523,o),
(186,514,o),
(186,496,cs),
(186,479,o),
(195,470,o),
(212,470,cs),
(230,470,o),
(239,479,o),
(239,496,cs)
);
},
{
closed = 1;
nodes = (
(529,224,o),
(520,233,o),
(502,233,cs),
(485,233,o),
(476,224,o),
(476,206,cs),
(476,189,o),
(485,180,o),
(502,180,cs),
(520,180,o),
(529,189,o),
(529,206,cs)
);
},
{
closed = 1;
nodes = (
(167,466,o),
(158,475,o),
(140,475,cs),
(123,475,o),
(114,466,o),
(114,447,cs),
(114,430,o),
(123,422,o),
(140,422,cs),
(158,422,o),
(167,431,o),
(167,448,cs)
);
},
{
closed = 1;
nodes = (
(480,151,o),
(472,160,o),
(455,160,cs),
(437,160,o),
(428,151,o),
(428,133,cs),
(428,116,o),
(437,107,o),
(455,107,cs),
(472,107,o),
(480,116,o),
(480,133,cs)
);
},
{
closed = 1;
nodes = (
(408,103,o),
(400,112,o),
(383,112,cs),
(364,112,o),
(355,103,o),
(355,85,cs),
(355,68,o),
(364,60,o),
(383,60,cs),
(400,60,o),
(408,68,o),
(408,85,cs)
);
},
{
closed = 1;
nodes = (
(118,393,o),
(109,402,o),
(92,402,cs),
(74,402,o),
(65,393,o),
(65,376,cs),
(65,358,o),
(74,349,o),
(93,349,cs),
(110,349,o),
(118,358,o),
(118,376,cs)
);
},
{
closed = 1;
nodes = (
(101,308,o),
(92,317,o),
(75,317,cs),
(57,317,o),
(48,308,o),
(48,291,cs),
(48,274,o),
(57,265,o),
(75,265,cs),
(92,265,o),
(101,274,o),
(101,291,cs)
);
},
{
closed = 1;
nodes = (
(323,86,o),
(314,95,o),
(297,95,cs),
(280,95,o),
(271,86,o),
(271,69,cs),
(271,51,o),
(280,42,o),
(297,42,cs),
(314,42,o),
(323,51,o),
(323,69,cs)
);
},
{
closed = 1;
nodes = (
(118,224,o),
(109,233,o),
(92,233,cs),
(74,233,o),
(65,224,o),
(65,206,cs),
(65,189,o),
(74,180,o),
(92,180,cs),
(109,180,o),
(118,189,o),
(118,206,cs)
);
},
{
closed = 1;
nodes = (
(239,104,o),
(230,112,o),
(212,112,cs),
(195,112,o),
(186,103,o),
(186,85,cs),
(186,68,o),
(195,60,o),
(212,60,cs),
(230,60,o),
(239,69,o),
(239,87,cs)
);
},
{
closed = 1;
nodes = (
(167,151,o),
(158,160,o),
(140,160,cs),
(123,160,o),
(114,151,o),
(114,133,cs),
(114,116,o),
(123,107,o),
(140,107,cs),
(158,107,o),
(167,116,o),
(167,133,cs)
);
}
);
};
layerId = UUID0;
shapes = (
{
closed = 1;
nodes = (
(480,466,o),
(472,475,o),
(455,475,cs),
(437,475,o),
(428,466,o),
(428,448,cs),
(428,431,o),
(437,422,o),
(455,422,cs),
(472,422,o),
(480,431,o),
(480,448,cs)
);
},
{
closed = 1;
nodes = (
(408,514,o),
(400,523,o),
(383,523,cs),
(364,523,o),
(355,514,o),
(355,496,cs),
(355,479,o),
(364,470,o),
(383,470,cs),
(400,470,o),
(408,479,o),
(408,496,cs)
);
},
{
closed = 1;
nodes = (
(529,393,o),
(520,402,o),
(503,402,cs),
(485,402,o),
(476,393,o),
(476,376,cs),
(476,358,o),
(485,349,o),
(502,349,cs),
(520,349,o),
(529,358,o),
(529,376,cs)
);
},
{
closed = 1;
nodes = (
(546,308,o),
(538,317,o),
(521,317,cs),
(503,317,o),
(494,308,o),
(494,291,cs),
(494,274,o),
(503,265,o),
(521,265,cs),
(538,265,o),
(546,274,o),
(546,291,cs)
);
},
{
closed = 1;
nodes = (
(323,531,o),
(314,540,o),
(297,540,cs),
(280,540,o),
(271,531,o),
(271,514,cs),
(271,496,o),
(280,487,o),
(297,487,cs),
(314,487,o),
(323,496,o),
(323,514,cs)
);
},
{
closed = 1;
nodes = (
(239,514,o),
(230,523,o),
(212,523,cs),
(195,523,o),
(186,514,o),
(186,496,cs),
(186,479,o),
(195,470,o),
(212,470,cs),
(230,470,o),
(239,479,o),
(239,496,cs)
);
},
{
closed = 1;
nodes = (
(529,224,o),
(520,233,o),
(502,233,cs),
(485,233,o),
(476,224,o),
(476,206,cs),
(476,189,o),
(485,180,o),
(502,180,cs),
(520,180,o),
(529,189,o),
(529,206,cs)
);
},
{
closed = 1;
nodes = (
(167,466,o),
(158,475,o),
(140,475,cs),
(123,475,o),
(114,466,o),
(114,447,cs),
(114,430,o),
(123,422,o),
(140,422,cs),
(158,422,o),
(167,431,o),
(167,448,cs)
);
},
{
closed = 1;
nodes = (
(480,151,o),
(472,160,o),
(455,160,cs),
(437,160,o),
(428,151,o),
(428,133,cs),
(428,116,o),
(437,107,o),
(455,107,cs),
(472,107,o),
(480,116,o),
(480,133,cs)
);
},
{
closed = 1;
nodes = (
(408,103,o),
(400,112,o),
(383,112,cs),
(364,112,o),
(355,103,o),
(355,85,cs),
(355,68,o),
(364,60,o),
(383,60,cs),
(400,60,o),
(408,68,o),
(408,85,cs)
);
},
{
closed = 1;
nodes = (
(118,393,o),
(109,402,o),
(92,402,cs),
(74,402,o),
(65,393,o),
(65,376,cs),
(65,358,o),
(74,349,o),
(93,349,cs),
(110,349,o),
(118,358,o),
(118,376,cs)
);
},
{
closed = 1;
nodes = (
(101,308,o),
(92,317,o),
(75,317,cs),
(57,317,o),
(48,308,o),
(48,291,cs),
(48,274,o),
(57,265,o),
(75,265,cs),
(92,265,o),
(101,274,o),
(101,291,cs)
);
},
{
closed = 1;
nodes = (
(323,86,o),
(314,95,o),
(297,95,cs),
(280,95,o),
(271,86,o),
(271,69,cs),
(271,51,o),
(280,42,o),
(297,42,cs),
(314,42,o),
(323,51,o),
(323,69,cs)
);
},
{
closed = 1;
nodes = (
(118,224,o),
(109,233,o),
(92,233,cs),
(74,233,o),
(65,224,o),
(65,206,cs),
(65,189,o),
(74,180,o),
(92,180,cs),
(109,180,o),
(118,189,o),
(118,206,cs)
);
},
{
closed = 1;
nodes = (
(239,104,o),
(230,112,o),
(212,112,cs),
(195,112,o),
(186,103,o),
(186,85,cs),
(186,68,o),
(195,60,o),
(212,60,cs),
(230,60,o),
(239,69,o),
(239,87,cs)
);
},
{
closed = 1;
nodes = (
(167,151,o),
(158,160,o),
(140,160,cs),
(123,160,o),
(114,151,o),
(114,133,cs),
(114,116,o),
(123,107,o),
(140,107,cs),
(158,107,o),
(167,116,o),
(167,133,cs)
);
}
);
vertWidth = 0;
width = 594;
}
);
note = uni25CC;
unicode = 9676;
},
{
color = 4;
glyphname = uniA800.alt;
layers = (
{
.lastUpdate = 762321155.068;
anchors = (
{
name = Anchor2;
pos = (807,725);
},
{
name = Anchor3;
pos = (484,725);
},
{
name = Anchor4;
pos = (812,0);
},
{
name = Anchor5;
pos = (847,0);
}
);
background = {
guides = (
{
angle = 6.6728;
pos = (316,163);
}
);
shapes = (
{
closed = 1;
nodes = (
(847,0,l),
(847,611,l),
(920,611,l),
(920,679,l),
(-17,679,l),
(-17,611,l),
(772,611,l),
(772,0,l)
);
},
{
closed = 1;
nodes = (
(194,142,o),
(222,179,o),
(238,211,cs),
(269,275,o),
(292,355,o),
(315,410,c),
(291,418,l),
(340,227,l),
(414,197,l),
(525,454,l),
(508,457,l),
(568,276,l),
(642,246,l),
(796,631,l),
(723,631,l),
(616,366,l),
(612,367,l),
(562,518,l),
(495,544,l),
(394,309,l),
(390,310,l),
(347,475,l),
(280,501,l),
(250,433,o),
(213,328,o),
(178,252,cs),
(167,228,o),
(155,221,o),
(139,221,cs),
(122,221,o),
(110,232,o),
(97,258,c),
(31,212,l),
(61,158,o),
(96,142,o),
(137,142,cs)
);
}
);
};
guides = (
{
angle = 11.7683;
pos = (422,526);
},
{
angle = 11.7683;
pos = (422,183);
},
{
angle = 6.6728;
pos = (316,163);
}
);
layerId = UUID0;
shapes = (
{
closed = 1;
nodes = (
(847,0,l),
(847,611,l),
(920,611,l),
(920,679,l),
(-17,679,l),
(-17,611,l),
(772,611,l),
(772,0,l)
);
},
{
closed = 1;
nodes = (
(194,142,o),
(223,179,o),
(239,211,cs),
(270,275,o),
(293,355,o),
(315,410,c),
(291,418,l),
(340,227,l),
(414,197,l),
(525,454,l),
(508,457,l),
(568,276,l),
(642,246,l),
(796,631,l),
(723,631,l),
(616,366,l),
(612,367,l),
(562,518,l),
(495,544,l),
(394,309,l),
(390,310,l),
(347,475,l),
(280,501,l),
(258,450,o),
(216,328,o),
(180,252,cs),
(169,228,o),
(155,220,o),
(139,220,cs),
(122,220,o),
(110,232,o),
(97,258,c),
(31,212,l),
(61,158,o),
(96,142,o),
(137,142,cs)
);
}
);
width = 912;
}
);
metricLeft = uniA800;
metricRight = uniA800;
},
{
color = 4;
glyphname = uniA817.alt;
layers = (
{
.lastUpdate = 762321161.132;
anchors = (
{
name = Anchor2;
pos = (687,725);
},
{
name = Anchor3;
pos = (381,725);
},
{
name = Anchor4;
pos = (694,0);
},
{
name = Anchor5;
pos = (724,0);
}
);
background = {
shapes = (
{
closed = 1;
nodes = (
(165,181,o),
(125,234,o),
(119,311,c),
(115,298,l),
(135,282,o),
(178,271,o),
(214,271,cs),
(327,271,o),
(397,354,o),
(397,448,cs),
(397,538,o),
(341,586,o),
(294,608,c),
(298,620,l),
(86,611,l),
(221,611,o),
(314,553,o),
(314,459,cs),
(314,388,o),
(268,340,o),
(192,340,cs),
(148,340,o),
(118,357,o),
(93,380,c),
(38,359,l),
(45,194,o),
(123,108,o),
(253,108,cs),
(493,108,o),
(570,404,o),
(644,536,c),
(674,526,l),
(674,626,l),
(605,626,l),
(510,469,o),
(447,181,o),
(250,181,cs)
);
},
{
closed = 1;
nodes = (
(724,0,l),
(724,638,l),
(648,638,l),
(648,0,l)
);
},
{
closed = 1;
nodes = (
(809,611,l),
(809,679,l),
(-17,679,l),
(-17,611,l)
);
}
);
};
guides = (
{
pos = (859,558);
}
);
layerId = UUID0;
shapes = (
{
closed = 1;
nodes = (
(165,181,o),
(125,234,o),
(119,311,c),
(115,298,l),
(135,282,o),
(178,271,o),
(214,271,cs),
(327,271,o),
(397,354,o),
(397,448,cs),
(397,538,o),
(341,586,o),
(294,608,c),
(298,620,l),
(86,611,l),
(221,611,o),
(314,553,o),
(314,459,cs),
(314,388,o),
(268,340,o),
(192,340,cs),
(148,340,o),
(118,357,o),
(93,380,c),
(38,359,l),
(45,194,o),
(123,108,o),
(259,108,cs),
(419,108,o),
(502,232,o),
(557,354,cs),
(594,433,o),
(618,511,o),
(645,554,c),
(675,544,l),
(674,626,l),
(604,626,l),
(558,562,o),
(526,459,o),
(482,368,cs),
(433,267,o),
(370,181,o),
(254,181,cs)
);
},
{
closed = 1;
nodes = (
(724,0,l),
(724,638,l),
(648,638,l),
(648,0,l)
);
},
{
closed = 1;
nodes = (
(809,611,l),
(809,679,l),
(-17,679,l),
(-17,611,l)
);
}
);
vertWidth = 0;
width = 806;
}
);
metricLeft = "=-17";
metricRight = "=-3";
},
{
color = 4;
glyphname = uniA81F.alt;
layers = (
{
.lastUpdate = 762324804.432;
anchors = (
{
name = Anchor2;
pos = (648,725);
},
{
name = Anchor3;
pos = (412,725);
},
{
name = Anchor4;
pos = (639,0);
},
{
name = Anchor5;
pos = (681,0);
}
);
background = {
anchors = (
{
name = Anchor2;
pos = (648,725);
},
{
name = Anchor3;
pos = (412,725);
},
{
name = Anchor4;
pos = (639,0);
}
);
shapes = (
{
closed = 1;
nodes = (
(681,0,l),
(681,611,l),
(766,611,l),
(766,679,l),
(89,679,l),
(89,611,l),
(559,611,l),
(476,537,o),
(403,450,o),
(333,365,cs),
(300,324,o),
(285,310,o),
(260,310,cs),
(242,310,o),
(224,318,o),
(205,340,c),
(151,288,l),
(182,245,o),
(215,231,o),
(253,231,cs),
(312,231,o),
(347,266,o),
(394,323,cs),
(466,410,o),
(529,489,o),
(605,557,c),
(605,0,l)
);
},
{
closed = 1;
nodes = (
(507,-14,l),
(468,10,o),
(443,44,o),
(443,99,cs),
(443,170,o),
(491,213,o),
(544,250,c),
(507,301,l),
(446,258,o),
(373,194,o),
(373,95,cs),
(373,14,o),
(417,-42,o),
(463,-70,c)
);
}
);
};
guides = (
{
angle = 90;
pos = (33,570);
}
);
layerId = UUID0;
shapes = (
{
closed = 1;
nodes = (
(681,0,l),
(681,611,l),
(766,611,l),
(766,679,l),
(-17,679,l),
(-17,611,l),
(559,611,l),
(483,537,o),
(423,450,o),
(353,365,cs),
(320,324,o),
(305,310,o),
(280,310,cs),
(262,310,o),
(244,318,o),
(225,340,c),
(171,288,l),
(202,245,o),
(235,231,o),
(273,231,cs),
(332,231,o),
(367,266,o),
(414,323,cs),
(486,410,o),
(536,489,o),
(605,557,c),
(605,0,l)
);
},
{
closed = 1;
nodes = (
(66,432,l),
(119,425,o),
(148,390,o),
(148,333,cs),
(148,286,o),
(128,220,o),
(128,177,cs),
(128,145,o),
(136,134,o),
(161,132,c),
(150,61,l),
(84,66,o),
(59,104,o),
(59,160,cs),
(59,205,o),
(79,293,o),
(79,326,cs),
(79,357,o),
(68,365,o),
(45,369,c)
);
}
);
width = 758;
}
);
metricLeft = "=-17";
metricRight = uniA81F;
},
